<svg xmlns="http://www.w3.org/2000/svg" width="168" height="130" viewBox="0 0 168 130"><g id="Vector_Smart_Object3" data-name="Vector Smart Object3" transform="translate(-32.214 -63.347)"><g id="Group_172" data-name="Group 172"><ellipse id="Ellipse_12" data-name="Ellipse 12" cx="47.716" cy="1.659" rx="47.716" ry="1.659" transform="translate(48.355 189.666)" fill="#dff5ee"></ellipse><path id="Path_465" data-name="Path 465" d="M128.861,188.271l1.013.884a2.062,2.062,0,0,0,1.316.51c1.536.029,4.977-.392,4.924-1.133-.076-1.041-4.558-1.34-4.558-1.34l-1.171-.834Z" fill="#50374b"></path><path id="Path_466" data-name="Path 466" d="M102.761,185.153l.459,2.424a2.063,2.063,0,0,0,.72,1.217c1.19.975,3.847,2.947,4.645,1.812.857-1.215-2.833-3.529-2.833-3.529l-.969-2Z" fill="#50374b"></path><ellipse id="Ellipse_13" data-name="Ellipse 13" cx="18.052" cy="2.023" rx="18.052" ry="2.023" transform="translate(164.109 189.302)" fill="#dff5ee"></ellipse><path id="Path_467" data-name="Path 467" d="M149.823,91.2q-.033-.565-.1-1.137a20.325,20.325,0,0,0-25.892-17.229A28.385,28.385,0,0,1,101.2,69.908a45.573,45.573,0,1,0-8.767,82.165,31.307,31.307,0,0,1,28,3.41,29.507,29.507,0,0,0,37.82-44.9A30.247,30.247,0,0,1,149.823,91.2Z" fill="#ddefda" opacity="0.7"></path><path id="Path_468" data-name="Path 468" d="M139.5,133.214h-8.378l-2.641-10.438h8.378Z" fill="#6f98a8"></path><g id="Group_160" data-name="Group 160"><rect id="Rectangle_62" data-name="Rectangle 62" width="3.549" height="32.925" transform="translate(66.717 156.747)" fill="#959da3"></rect><path id="Path_469" data-name="Path 469" d="M70.073,163.387H66.808a1.92,1.92,0,0,1-1.9-1.669l-.659-4.971h8.384l-.659,4.971A1.918,1.918,0,0,1,70.073,163.387Z" fill="#50374b"></path><path id="Path_470" data-name="Path 470" d="M74.1,186.4H62.811a4.922,4.922,0,0,0-4.917,4.928H79.013A4.922,4.922,0,0,0,74.1,186.4Z" fill="#695a6e"></path></g><path id="Path_471" data-name="Path 471" d="M65.832,157.658H53.948l-10.06-42.2H65.832Z" fill="#d95700"></path><path id="Path_472" data-name="Path 472" d="M65.179,81.042a6.71,6.71,0,0,0-2.932,3.336,12.438,12.438,0,0,1-7.033,6.965,12.622,12.622,0,0,0-7.5,6.594A15.576,15.576,0,0,0,46.3,105.37a7.047,7.047,0,0,1-1.328,4.571,6.72,6.72,0,0,0,3.9,10.387c20.965,5.013,25.624-12.721,28.6-38.252C77.478,82.076,74.032,76.077,65.179,81.042Z" fill="#eb5a7d"></path><path id="Path_473" data-name="Path 473" d="M69.04,155.11l25.941.347,33.879,32.814a2.466,2.466,0,0,0,1.524-1.913s-18.977-32.384-29.1-39.787c-5.5-4.022-24.852-11.151-24.852-11.151Z" fill="#f58251"></path><path id="Path_474" data-name="Path 474" d="M59.608,145.065a8.942,8.942,0,0,1,9.34-9.7c8.51.292,23.009,1.388,27.78,5.428,2.863,2.425,9.024,46.289,9.024,46.289-.38,1.433-2.838-1.114-2.838-1.114l-12.54-34.005s-23.791,3.5-28.546-1.927A8.941,8.941,0,0,1,59.608,145.065Z" fill="#ff9669"></path><path id="Path_475" data-name="Path 475" d="M86.722,136.967c-6.52-1.546-17.1-2.444-24.132-2.444-9.889,0-10.449,13.033-4.416,18.4.19.169.388.333.6.491,5.293,4.027,21.924.39,24.947-.668Z" fill="#323e47"></path><path id="Path_476" data-name="Path 476" d="M110.631,125.131l-18.077-2.355c-1.233,1.478-3.119,8.082-3.119,8.082a6.6,6.6,0,0,0,4.05.96c5.982-.177,11.659-1.538,17.88-2.984.94-.219.48-2.019.151-3A1.027,1.027,0,0,0,110.631,125.131Z" fill="#006bb8"></path><path id="Path_477" data-name="Path 477" d="M92.555,122.776c-1.713-1.507-6.07-13.678-10.989-17.825-5.8-4.891-12.484-5.377-11.128,1.955,0,0,17.306,23.766,19.387,24.917C89.824,131.823,92.539,125,92.555,122.776Z" fill="#006bb8"></path><path id="Path_478" data-name="Path 478" d="M73.767,101.071c-4.142-.6-9.963-1.859-14.194,3.056-2.781,3.232-2.256,10.187-3.333,17.38-1.951,13.019.729,16.779.729,16.779s16,2.4,19.877-1.489c.466-2.511,9.209-18.2,6.9-24.632C81.661,106.367,77.71,101.644,73.767,101.071Z" fill="#006bb8"></path><path id="Path_479" data-name="Path 479" d="M74.976,96.472H70.735a37.665,37.665,0,0,1-.826,4.42,2.5,2.5,0,0,0,.475,2.163c1.4,1.744,4.366,4.7,5.894.82a2.528,2.528,0,0,0,.009-1.8A23.846,23.846,0,0,1,74.976,96.472Z" fill="#f58251"></path><path id="Path_480" data-name="Path 480" d="M69.386,92.162a9.655,9.655,0,0,0,1.7,5.7,4.856,4.856,0,0,0,4.082,2.455c1.381-.041,2.448-1.2,3.2-2.387,2.437-3.843,2.225-11.352,2.225-11.352S72.74,83.34,70.073,87.795A9.691,9.691,0,0,0,69.386,92.162Z" fill="#ff9669"></path><path id="Path_481" data-name="Path 481" d="M74.144,96.472a1.35,1.35,0,1,0,2.7,0Z" fill="#f9f8f7"></path><path id="Path_482" data-name="Path 482" d="M73.717,92.639c0,.379-.158.686-.351.686s-.352-.307-.352-.686.158-.687.352-.687S73.717,92.26,73.717,92.639Z" fill="#523528"></path><path id="Path_483" data-name="Path 483" d="M78.376,92.639c0,.379-.157.686-.351.686s-.351-.307-.351-.686.158-.687.351-.687S78.376,92.26,78.376,92.639Z" fill="#523528"></path><path id="Path_484" data-name="Path 484" d="M75.836,92.43l.593,2.417a.624.624,0,0,1-.7.746h0a.464.464,0,0,1-.453-.562Z" fill="#ff640a"></path><path id="Path_485" data-name="Path 485" d="M74.163,90.767a8.1,8.1,0,0,0-2.412.521" fill="none" stroke="#c96e35" stroke-linecap="round" stroke-miterlimit="10" stroke-width="0.629"></path><path id="Path_486" data-name="Path 486" d="M76.932,91.167a3.335,3.335,0,0,1,1.853.13" fill="none" stroke="#c96e35" stroke-linecap="round" stroke-miterlimit="10" stroke-width="0.629"></path><path id="Path_487" data-name="Path 487" d="M70.021,86.084s4.632,5.381,9.54,5.183,6.368-5.451,6.034-7.44-1.185-8.434-9.451-3.262C76.144,80.564,64.385,79.43,70.021,86.084Z" fill="#eb5a7d"></path><path id="Path_488" data-name="Path 488" d="M70.192,92.479c.342,1.31.1,2.508-.531,2.674s-1.43-.759-1.772-2.069-.1-2.508.532-2.675S69.849,91.17,70.192,92.479Z" fill="#ff9669"></path><path id="Path_489" data-name="Path 489" d="M65.96,133.037a27.839,27.839,0,0,1,6.9-4.186c-.408-1.906-2-9.511-2.6-14.794-.811-7.133-1.22-8.9-4.938-9.873a5.34,5.34,0,0,0-6.14,2.9c-1.294,2.337.74,19.741,5.948,26.883A8.657,8.657,0,0,1,65.96,133.037Z" fill="#07c"></path><path id="Path_490" data-name="Path 490" d="M84.371,153.194H56.258a2.8,2.8,0,0,1-2.7-2.065l-9.675-35.669h0a3.458,3.458,0,0,0-3.33,4.367l9.386,34.606a4.357,4.357,0,0,0,4,3.209v.017H84.5a2.23,2.23,0,0,0,2.215-2.463A2.316,2.316,0,0,0,84.371,153.194Z" fill="#ff7f00"></path><g id="Path_491" data-name="Path 491" fill="#174eaf" stroke-miterlimit="10"><path d="M 150.7207336425781 123.4379348754883 L 112.37646484375 123.4379348754883 C 111.9216537475586 123.4379348754883 111.5478973388672 123.0820999145508 111.5157089233398 122.6325988769531 L 114.6230010986328 97.44281005859375 L 114.6329498291016 97.36217498779297 L 114.6329498291016 97.28092193603516 C 114.6329498291016 96.8021240234375 115.0200881958008 96.41258239746094 115.4959487915039 96.41258239746094 L 153.8402252197266 96.41258239746094 C 154.2950439453125 96.41258239746094 154.6688079833984 96.76842498779297 154.7009887695313 97.21792602539063 L 151.5936889648438 122.40771484375 L 151.583740234375 122.4883499145508 L 151.583740234375 122.5696029663086 C 151.583740234375 123.0484008789063 151.1965942382813 123.4379348754883 150.7207336425781 123.4379348754883 Z" stroke="none"></path><path d="M 150.2973785400391 122.1156387329102 L 153.3048858642578 97.73488616943359 L 115.919303894043 97.73488616943359 L 112.9118118286133 122.1156387329102 L 150.2973785400391 122.1156387329102 M 150.7207336425781 124.7602462768555 L 112.37646484375 124.7602462768555 C 111.1693344116211 124.7602462768555 110.1911468505859 123.7796783447266 110.1911468505859 122.5696029663086 L 113.3106384277344 97.28092193603516 C 113.3106384277344 96.07173919677734 114.2888259887695 95.09027862548828 115.4959487915039 95.09027862548828 L 153.8402252197266 95.09027862548828 C 155.0473480224609 95.09027862548828 156.0255432128906 96.07173919677734 156.0255432128906 97.28092193603516 L 152.9060516357422 122.5696029663086 C 152.9060516357422 123.7796783447266 151.9278564453125 124.7602462768555 150.7207336425781 124.7602462768555 Z" stroke="none" fill="#a0c3d1"></path></g><path id="Path_492" data-name="Path 492" d="M139.5,133.214h-14.58a2.991,2.991,0,0,1,2.988-3h8.6a2.992,2.992,0,0,1,2.988,3Z" fill="#a0c3d1"></path><path id="Path_493" data-name="Path 493" d="M127.1,133.214H111.388a1.2,1.2,0,0,1-1.2-1.2h0a1.2,1.2,0,0,1,1.2-1.2H127.1a1.2,1.2,0,0,1,1.2,1.2h0A1.2,1.2,0,0,1,127.1,133.214Z" fill="#a0c3d1"></path><g id="Group_163" data-name="Group 163"><rect id="Rectangle_63" data-name="Rectangle 63" width="63.567" height="1.673" transform="translate(91.384 137.121)" fill="#c2804a"></rect><g id="Group_161" data-name="Group 161"><path id="Path_494" data-name="Path 494" d="M83.277,190.948l18.084-54.615-5.209-.508L81.407,190.948Z" fill="#c2804a"></path></g><g id="Group_162" data-name="Group 162"><path id="Path_495" data-name="Path 495" d="M163.811,190.948l-14.745-55.123-5.209.508,18.084,54.615Z" fill="#c2804a"></path></g><rect id="Rectangle_64" data-name="Rectangle 64" width="71.42" height="4.282" transform="translate(87.569 133.214)" fill="#8c501f"></rect></g><path id="Path_496" data-name="Path 496" d="M94.314,132.877H89.778l-1.205-11.22h7.092Z" fill="#b48255"></path><rect id="Rectangle_65" data-name="Rectangle 65" width="8.001" height="2.059" transform="translate(88.071 120.891)" fill="#965028"></rect><path id="Path_497" data-name="Path 497" d="M91.569,130.623s.649-2.818,1.081-3.089.324,2.276.324,2.276l1.622-1.68.325-1.247s1.514.975,1.3,1.843-.27,2.493-.486,3.2-2.325,1.681-2.973,1.626S91.569,130.623,91.569,130.623Z" fill="#ff9669"></path><path id="Path_498" data-name="Path 498" d="M91.781,130.541c-3.011.439-16.686-2.2-19.385-2.726-5.509.377-7.3,6.158-7.266,6.178,7.183,3.885,26.5,1.019,27.513-.1C93.539,132.9,91.781,130.541,91.781,130.541Z" fill="#07c"></path><g id="Group_164" data-name="Group 164"><path id="Path_499" data-name="Path 499" d="M130.3,102.956h-11.73l.22-1.765h11.73Z" fill="#0392ea"></path></g><g id="Group_165" data-name="Group 165"><path id="Path_500" data-name="Path 500" d="M148.355,106.821h-11.73l.22-1.765h11.73Z" fill="#fff"></path></g><g id="Group_166" data-name="Group 166"><path id="Path_501" data-name="Path 501" d="M142.653,110.687h-12.61l.22-1.765h12.61Z" fill="#eb5a7d"></path></g><g id="Group_167" data-name="Group 167"><path id="Path_502" data-name="Path 502" d="M134.382,106.821h-16.2l.218-1.765h16.2Z" fill="#eb5a7d"></path></g><g id="Group_168" data-name="Group 168"><path id="Path_503" data-name="Path 503" d="M127.8,110.687H117.766l.218-1.765h10.034Z" fill="#0392ea"></path></g><g id="Group_169" data-name="Group 169"><path id="Path_504" data-name="Path 504" d="M130.763,114.552H117.207l.217-1.765h13.556Z" fill="#eb5a7d"></path></g><g id="Group_170" data-name="Group 170"><path id="Path_505" data-name="Path 505" d="M139.124,114.552h-6.512l.217-1.765h6.512Z" fill="#0392ea"></path></g><g id="Group_171" data-name="Group 171"><path id="Path_506" data-name="Path 506" d="M124.1,118.417h-7.393l.218-1.765h7.393Z" fill="#fff"></path></g><path id="Path_507" data-name="Path 507" d="M188.888,131.855a14.013,14.013,0,0,1-.875-9.7,15.441,15.441,0,0,0-1.131-11.2,10.648,10.648,0,0,1-.041-9.382,18.415,18.415,0,0,0,.723-1.808c2.212-6.5.418-12.995-3-14.163s-8.8,2.874-11.008,9.373a17.129,17.129,0,0,0-.717,8.579,11.676,11.676,0,0,1-.677,7.058,15.112,15.112,0,0,0-1.254,7.6,15.425,15.425,0,0,0,1.007,4.259,15.128,15.128,0,0,1,.074,11.266,17.024,17.024,0,0,0-1.173,4.819c-.707,7.567,3.709,14.17,8.462,14.617s10.317-5.22,11.024-12.787A16.738,16.738,0,0,0,188.888,131.855Z" fill="#4ba35e"></path><path id="Path_508" data-name="Path 508" d="M196.846,134.571a15.487,15.487,0,0,1,.107-8.436,16.834,16.834,0,0,0,.581-2.487c.927-5.95-1.411-11.257-5.22-11.854s-7.649,3.744-8.576,9.694a16.214,16.214,0,0,0-.112,4.25,17.128,17.128,0,0,1-1.188,8.875,21.767,21.767,0,0,0-1.6,5.514c-1.175,7.538,1.518,14.219,6.014,14.922s9.092-4.837,10.265-12.374A20.626,20.626,0,0,0,196.846,134.571Z" fill="#4fab63"></path><path id="Path_509" data-name="Path 509" d="M183.211,93.007s-5.3,13.317-2.651,26.962,0,36.614-.558,49.937" fill="none" stroke="#4fab63" stroke-miterlimit="10" stroke-width="0.882"></path><path id="Path_510" data-name="Path 510" d="M190.9,119.43s-2.376,10.233-1.747,19.5-4.677,20-3,31.147" fill="none" stroke="#4ba35e" stroke-miterlimit="10" stroke-width="0.882"></path><path id="Path_511" data-name="Path 511" d="M181.491,142.531a20.375,20.375,0,0,0-18.67-12.974c-6.018-.086-10.9,2.921-10.9,6.523s4.879,6.522,10.9,6.522h.025a2.706,2.706,0,0,1,2.69,2.172,21.886,21.886,0,0,0,.917,3.28c2.548,6.972,7.98,11.388,12.133,9.863S184.039,149.5,181.491,142.531Z" fill="#4fab63"></path><path id="Path_512" data-name="Path 512" d="M155.845,137.5s10.253-5.562,15.11,2.137,3.68,9.925,8.528,17.84,1.635,13.934,1.635,13.934" fill="none" stroke="#4ba35e" stroke-miterlimit="10" stroke-width="0.882"></path><path id="Rectangle_66" data-name="Rectangle 66" d="M0,0H20.354a0,0,0,0,1,0,0V12.164A10.177,10.177,0,0,1,10.177,22.34h0A10.177,10.177,0,0,1,0,12.164V0A0,0,0,0,1,0,0Z" transform="translate(171.985 168.452)" fill="#ffe576"></path><path id="Path_513" data-name="Path 513" d="M187.713,168.452v12.139a10.192,10.192,0,0,1-7.863,9.927,10.134,10.134,0,0,0,2.312.275h0a10.19,10.19,0,0,0,10.177-10.2V168.452Z" fill="#eac736"></path><path id="Rectangle_67" data-name="Rectangle 67" d="M0,0H24.418a0,0,0,0,1,0,0V1.364a2.681,2.681,0,0,1-2.681,2.681H2.681A2.681,2.681,0,0,1,0,1.364V0A0,0,0,0,1,0,0Z" transform="translate(169.872 187.279)" fill="#07c"></path><path id="Path_514" data-name="Path 514" d="M111.233,126.015a25.3,25.3,0,0,1,3.868-1.255c.7,0,2.3,1.9,2.545,2.539s.453,3.353,0,3.515-.6-.872-.716-1.432a4.3,4.3,0,0,0-.643-1.29,1,1,0,0,1-1.256,1.1,15.776,15.776,0,0,1-3.59-1.379A1.838,1.838,0,0,1,111.233,126.015Z" fill="#ff9669"></path></g></g></svg>