<svg id="unlovedproject" fill="none" height="50" width="220" xmlns="http://www.w3.org/2000/svg"><g stroke="#4513a6" stroke-miterlimit="10" stroke-opacity=".75"><path d="M.966.682c26.588 0 26.588 12.276 53.175 12.276S80.728.682 107.314.682c26.59 0 26.59 12.276 53.181 12.276 26.59 0 26.59-12.276 53.181-12.276" stroke-width=".01"/><path d="M.966 3.328c26.588 0 26.588 12.276 53.175 12.276S80.728 3.328 107.314 3.328c26.59 0 26.59 12.276 53.181 12.276 26.59 0 26.59-12.276 53.181-12.276" stroke-width=".019"/><path d="M.966 5.975c26.588 0 26.588 12.276 53.175 12.276S80.728 5.975 107.314 5.975c26.59 0 26.59 12.276 53.181 12.276s26.591-12.276 53.181-12.276" stroke-width=".029"/><path d="M.966 8.62c26.588 0 26.588 12.275 53.175 12.275S80.728 8.62 107.314 8.62c26.59 0 26.59 12.276 53.181 12.276 26.59 0 26.59-12.276 53.181-12.276" stroke-width=".039"/><path d="M.966 11.266c26.588 0 26.588 12.276 53.175 12.276s26.587-12.276 53.173-12.276c26.59 0 26.59 12.276 53.181 12.276s26.59-12.276 53.181-12.276" stroke-width=".049"/><path d="M.966 13.912c26.588 0 26.588 12.276 53.175 12.276s26.587-12.276 53.173-12.276c26.59 0 26.59 12.276 53.181 12.276s26.59-12.276 53.181-12.276" stroke-width=".059"/><path d="M.966 16.559c26.588 0 26.588 12.276 53.175 12.276s26.587-12.276 53.173-12.276c26.59 0 26.59 12.276 53.181 12.276s26.59-12.276 53.181-12.276" stroke-width=".068"/><path d="M.966 19.203c26.588 0 26.588 12.276 53.175 12.276s26.587-12.276 53.173-12.276c26.59 0 26.59 12.276 53.181 12.276s26.59-12.276 53.181-12.276" stroke-width=".078"/><path d="M.966 21.85c26.588 0 26.588 12.276 53.175 12.276S80.728 21.85 107.314 21.85c26.59 0 26.59 12.276 53.181 12.276 26.59 0 26.59-12.276 53.181-12.276" stroke-width=".088"/><path d="M.966 24.496c26.588 0 26.588 12.276 53.175 12.276s26.587-12.276 53.173-12.276c26.59 0 26.59 12.276 53.181 12.276s26.59-12.276 53.181-12.276" stroke-width=".098"/><path d="M.966 27.143c26.588 0 26.588 12.276 53.175 12.276s26.587-12.276 53.173-12.276c26.59 0 26.59 12.276 53.181 12.276s26.59-12.276 53.181-12.276" stroke-width=".107"/><path d="M.966 29.787c26.588 0 26.588 12.276 53.175 12.276s26.587-12.276 53.173-12.276c26.59 0 26.59 12.276 53.181 12.276s26.59-12.276 53.181-12.276" stroke-width=".117"/><path d="M.966 32.434c26.588 0 26.588 12.276 53.175 12.276s26.587-12.276 53.173-12.276c26.59 0 26.59 12.276 53.181 12.276s26.59-12.276 53.181-12.276" stroke-width=".127"/><path d="M.966 35.08c26.588 0 26.588 12.276 53.175 12.276S80.728 35.08 107.314 35.08c26.59 0 26.59 12.276 53.181 12.276s26.59-12.276 53.181-12.276" stroke-width=".137"/><path d="M.966 37.727c26.588 0 26.588 12.276 53.175 12.276s26.587-12.276 53.173-12.276c26.59 0 26.59 12.276 53.181 12.276s26.59-12.276 53.181-12.276" stroke-width=".146"/><path d="M.966 40.371c26.588 0 26.588 12.276 53.175 12.276s26.587-12.276 53.173-12.276c26.59 0 26.59 12.276 53.181 12.276s26.59-12.276 53.181-12.276" stroke-width=".156"/><path d="M.966 43.018c26.588 0 26.588 12.276 53.175 12.276s26.587-12.276 53.173-12.276c26.59 0 26.59 12.276 53.181 12.276s26.59-12.276 53.181-12.276" stroke-width=".166"/><path d="M.966 45.664c26.588 0 26.588 12.276 53.175 12.276s26.587-12.276 53.173-12.276c26.59 0 26.59 12.276 53.181 12.276s26.59-12.276 53.181-12.276" stroke-width=".176"/><path d="M.966 48.31c26.588 0 26.588 12.276 53.175 12.276s26.587-12.275 53.173-12.275c26.59 0 26.59 12.276 53.181 12.276s26.59-12.277 53.181-12.277" stroke-width=".185"/><path d="M.966 50.955c26.588 0 26.588 12.276 53.175 12.276s26.587-12.276 53.173-12.276c26.59 0 26.59 12.276 53.181 12.276s26.59-12.276 53.181-12.276" stroke-width=".195"/><path d="M.966 53.602c26.588 0 26.588 12.276 53.175 12.276s26.587-12.276 53.173-12.276c26.59 0 26.59 12.276 53.181 12.276s26.59-12.276 53.181-12.276" stroke-width=".205"/><path d="M.966 56.248c26.588 0 26.588 12.276 53.175 12.276s26.587-12.276 53.173-12.276c26.59 0 26.59 12.276 53.181 12.276s26.59-12.276 53.181-12.276" stroke-width=".215"/><path d="M.966 58.895c26.588 0 26.588 12.275 53.175 12.275s26.587-12.275 53.173-12.275c26.59 0 26.59 12.276 53.181 12.276s26.59-12.277 53.181-12.277" stroke-width=".225"/><path d="M.966 61.54c26.588 0 26.588 12.275 53.175 12.275S80.728 61.54 107.314 61.54c26.59 0 26.59 12.276 53.181 12.276s26.59-12.276 53.181-12.276" stroke-width=".234"/><path d="M.966 64.186c26.588 0 26.588 12.276 53.175 12.276s26.587-12.276 53.173-12.276c26.59 0 26.59 12.276 53.181 12.276s26.59-12.276 53.181-12.276" stroke-width=".244"/><path d="M.966 66.832c26.588 0 26.588 12.276 53.175 12.276s26.587-12.276 53.173-12.276c26.59 0 26.59 12.276 53.181 12.276s26.59-12.276 53.181-12.276" stroke-width=".254"/><path d="M.966 69.478c26.588 0 26.588 12.277 53.175 12.277s26.587-12.277 53.173-12.277c26.59 0 26.59 12.277 53.181 12.277s26.59-12.277 53.181-12.277" stroke-width=".264"/><path d="M.966 72.123c26.588 0 26.588 12.276 53.175 12.276s26.587-12.276 53.173-12.276c26.59 0 26.59 12.276 53.181 12.276s26.59-12.276 53.181-12.276" stroke-width=".273"/><path d="M.966 74.77c26.588 0 26.588 12.275 53.175 12.275S80.728 74.77 107.314 74.77c26.59 0 26.59 12.276 53.181 12.276s26.59-12.276 53.181-12.276" stroke-width=".283"/><path d="M.966 77.416c26.588 0 26.588 12.276 53.175 12.276s26.587-12.276 53.173-12.276c26.59 0 26.59 12.276 53.181 12.276s26.59-12.276 53.181-12.276" stroke-width=".293"/><path d="M.966 80.063c26.588 0 26.588 12.275 53.175 12.275s26.587-12.275 53.173-12.275c26.59 0 26.59 12.275 53.181 12.275s26.59-12.275 53.181-12.275" stroke-width=".303"/><path d="M.966 82.707c26.588 0 26.588 12.276 53.175 12.276s26.587-12.276 53.173-12.276c26.59 0 26.59 12.276 53.181 12.276s26.59-12.276 53.181-12.276" stroke-width=".312"/><path d="M.966 85.353c26.588 0 26.588 12.277 53.175 12.277s26.587-12.277 53.173-12.277c26.59 0 26.59 12.277 53.181 12.277s26.59-12.277 53.181-12.277" stroke-width=".322"/><path d="M.966 88c26.588 0 26.588 12.276 53.175 12.276S80.728 88 107.314 88c26.59 0 26.59 12.276 53.181 12.276S187.085 88 213.676 88" stroke-width=".332"/><path d="M.966 90.647c26.588 0 26.588 12.275 53.175 12.275s26.587-12.275 53.173-12.275c26.59 0 26.59 12.275 53.181 12.275s26.59-12.275 53.181-12.275" stroke-width=".342"/><path d="M.966 93.291c26.588 0 26.588 12.276 53.175 12.276s26.587-12.276 53.173-12.276c26.59 0 26.59 12.276 53.181 12.276s26.59-12.276 53.181-12.276" stroke-width=".351"/><path d="M.966 95.938c26.588 0 26.588 12.276 53.175 12.276s26.587-12.277 53.173-12.277c26.59 0 26.59 12.277 53.181 12.277s26.59-12.277 53.181-12.277" stroke-width=".361"/><path d="M.966 98.584c26.588 0 26.588 12.276 53.175 12.276s26.587-12.276 53.173-12.276c26.59 0 26.59 12.276 53.181 12.276s26.59-12.276 53.181-12.276" stroke-width=".371"/><path d="M.966 101.23c26.588 0 26.588 12.276 53.175 12.276s26.587-12.276 53.173-12.276c26.59 0 26.59 12.276 53.181 12.276 26.59 0 26.59-12.276 53.181-12.276" stroke-width=".381"/><path d="M.966 103.875c26.588 0 26.588 12.276 53.175 12.276s26.587-12.276 53.173-12.276c26.59 0 26.59 12.276 53.181 12.276s26.59-12.276 53.181-12.276" stroke-width=".391"/><path d="M.966 106.521c26.588 0 26.588 12.276 53.175 12.276s26.587-12.276 53.173-12.276c26.59 0 26.59 12.276 53.181 12.276s26.59-12.276 53.181-12.276" stroke-width=".4"/><path d="M.966 109.168c26.588 0 26.588 12.276 53.175 12.276s26.587-12.276 53.173-12.276c26.59 0 26.59 12.276 53.181 12.276s26.59-12.276 53.181-12.276" stroke-width=".41"/><path d="M.966 111.814c26.588 0 26.588 12.276 53.175 12.276s26.587-12.276 53.173-12.276c26.59 0 26.59 12.276 53.181 12.276s26.59-12.276 53.181-12.276" stroke-width=".42"/><path d="M.966 114.459c26.588 0 26.588 12.276 53.175 12.276s26.587-12.276 53.173-12.276c26.59 0 26.59 12.276 53.181 12.276s26.59-12.276 53.181-12.276" stroke-width=".43"/><path d="M.966 117.105c26.588 0 26.588 12.276 53.175 12.276s26.587-12.276 53.173-12.276c26.59 0 26.59 12.276 53.181 12.276s26.59-12.276 53.181-12.276" stroke-width=".439"/><path d="M.966 119.752c26.588 0 26.588 12.276 53.175 12.276s26.587-12.276 53.173-12.276c26.59 0 26.59 12.276 53.181 12.276s26.59-12.276 53.181-12.276" stroke-width=".449"/><path d="M.966 122.398c26.588 0 26.588 12.276 53.175 12.276s26.587-12.276 53.173-12.276c26.59 0 26.59 12.276 53.181 12.276s26.59-12.276 53.181-12.276" stroke-width=".459"/><path d="M.966 125.045c26.588 0 26.588 12.276 53.175 12.276s26.587-12.276 53.173-12.276c26.59 0 26.59 12.276 53.181 12.276s26.59-12.276 53.181-12.276" stroke-width=".469"/><path d="M.966 127.691c26.588 0 26.588 12.276 53.175 12.276s26.587-12.276 53.173-12.276c26.59 0 26.59 12.276 53.181 12.276s26.59-12.276 53.181-12.276" stroke-width=".478"/><path d="M.966 130.336c26.588 0 26.588 12.276 53.175 12.276s26.587-12.276 53.173-12.276c26.59 0 26.59 12.276 53.181 12.276s26.59-12.276 53.181-12.276" stroke-width=".488"/><path d="M.966 132.982c26.588 0 26.588 12.276 53.175 12.276s26.587-12.276 53.173-12.276c26.59 0 26.59 12.276 53.181 12.276s26.59-12.276 53.181-12.276" stroke-width=".498"/><path d="M.966 135.629c26.588 0 26.588 12.276 53.175 12.276s26.587-12.276 53.173-12.276c26.59 0 26.59 12.276 53.181 12.276s26.59-12.276 53.181-12.276" stroke-width=".508"/><path d="M.966 138.275c26.588 0 26.588 12.276 53.175 12.276s26.587-12.276 53.173-12.276c26.59 0 26.59 12.276 53.181 12.276s26.59-12.276 53.181-12.276" stroke-width=".517"/><path d="M.966 140.92c26.588 0 26.588 12.276 53.175 12.276s26.587-12.276 53.173-12.276c26.59 0 26.59 12.276 53.181 12.276s26.59-12.276 53.181-12.276" stroke-width=".527"/><path d="M.966 143.566c26.588 0 26.588 12.276 53.175 12.276s26.587-12.276 53.173-12.276c26.59 0 26.59 12.276 53.181 12.276s26.59-12.276 53.181-12.276" stroke-width=".537"/><path d="M.966 146.213c26.588 0 26.588 12.276 53.175 12.276s26.587-12.276 53.173-12.276c26.59 0 26.59 12.276 53.181 12.276s26.59-12.276 53.181-12.276" stroke-width=".547"/><path d="M.966 148.859c26.588 0 26.588 12.276 53.175 12.276s26.587-12.276 53.173-12.276c26.59 0 26.59 12.276 53.181 12.276s26.59-12.276 53.181-12.276" stroke-width=".556"/><path d="M.966 151.504c26.588 0 26.588 12.276 53.175 12.276s26.587-12.276 53.173-12.276c26.59 0 26.59 12.276 53.181 12.276s26.59-12.276 53.181-12.276" stroke-width=".566"/><path d="M.966 154.15c26.588 0 26.588 12.276 53.175 12.276s26.587-12.276 53.173-12.276c26.59 0 26.59 12.276 53.181 12.276s26.59-12.276 53.181-12.276" stroke-width=".576"/><path d="M.966 156.797c26.588 0 26.588 12.276 53.175 12.276s26.587-12.276 53.173-12.276c26.59 0 26.59 12.276 53.181 12.276s26.59-12.276 53.181-12.276" stroke-width=".586"/><path d="M.966 159.443c26.588 0 26.588 12.276 53.175 12.276s26.587-12.276 53.173-12.276c26.59 0 26.59 12.276 53.181 12.276s26.59-12.276 53.181-12.276" stroke-width=".596"/><path d="M.966 162.088c26.588 0 26.588 12.276 53.175 12.276s26.587-12.276 53.173-12.276c26.59 0 26.59 12.276 53.181 12.276s26.59-12.276 53.181-12.276" stroke-width=".605"/><path d="M.966 164.734c26.588 0 26.588 12.276 53.175 12.276s26.587-12.276 53.173-12.276c26.59 0 26.59 12.276 53.181 12.276s26.59-12.276 53.181-12.276" stroke-width=".615"/><path d="M.966 167.381c26.588 0 26.588 12.276 53.175 12.276s26.587-12.276 53.173-12.276c26.59 0 26.59 12.276 53.181 12.276s26.59-12.276 53.181-12.276" stroke-width=".625"/><path d="M.966 170.027c26.588 0 26.588 12.276 53.175 12.276s26.587-12.276 53.173-12.276c26.59 0 26.59 12.276 53.181 12.276s26.59-12.276 53.181-12.276" stroke-width=".635"/><path d="M.966 172.672c26.588 0 26.588 12.276 53.175 12.276s26.587-12.276 53.173-12.276c26.59 0 26.59 12.276 53.181 12.276s26.59-12.276 53.181-12.276" stroke-width=".644"/><path d="M.966 175.318c26.588 0 26.588 12.276 53.175 12.276s26.587-12.276 53.173-12.276c26.59 0 26.59 12.276 53.181 12.276s26.59-12.276 53.181-12.276" stroke-width=".654"/><path d="M.966 177.965c26.588 0 26.588 12.276 53.175 12.276s26.587-12.276 53.173-12.276c26.59 0 26.59 12.276 53.181 12.276s26.59-12.276 53.181-12.276" stroke-width=".664"/><path d="M.966 180.611c26.588 0 26.588 12.276 53.175 12.276s26.587-12.276 53.173-12.276c26.59 0 26.59 12.276 53.181 12.276s26.59-12.276 53.181-12.276" stroke-width=".674"/><path d="M.966 183.256c26.588 0 26.588 12.276 53.175 12.276s26.587-12.276 53.173-12.276c26.59 0 26.59 12.276 53.181 12.276s26.59-12.276 53.181-12.276" stroke-width=".683"/><path d="M.966 185.902c26.588 0 26.588 12.276 53.175 12.276s26.587-12.276 53.173-12.276c26.59 0 26.59 12.276 53.181 12.276s26.59-12.276 53.181-12.276" stroke-width=".693"/><path d="M.966 188.549c26.588 0 26.588 12.276 53.175 12.276s26.587-12.276 53.173-12.276c26.59 0 26.59 12.276 53.181 12.276s26.59-12.276 53.181-12.276" stroke-width=".703"/><path d="M.966 191.195c26.588 0 26.588 12.276 53.175 12.276s26.587-12.276 53.173-12.276c26.59 0 26.59 12.276 53.181 12.276s26.59-12.276 53.181-12.276" stroke-width=".713"/><path d="M.966 193.84c26.588 0 26.588 12.276 53.175 12.276s26.587-12.276 53.173-12.276c26.59 0 26.59 12.276 53.181 12.276s26.59-12.276 53.181-12.276" stroke-width=".722"/><path d="M.966 196.486c26.588 0 26.588 12.276 53.175 12.276s26.587-12.276 53.173-12.276c26.59 0 26.59 12.276 53.181 12.276s26.59-12.276 53.181-12.276" stroke-width=".732"/><path d="M.966 199.133c26.588 0 26.588 12.276 53.175 12.276s26.587-12.276 53.173-12.276c26.59 0 26.59 12.276 53.181 12.276s26.59-12.276 53.181-12.276" stroke-width=".742"/><path d="M.966 201.779c26.588 0 26.588 12.276 53.175 12.276s26.587-12.276 53.173-12.276c26.59 0 26.59 12.276 53.181 12.276s26.59-12.276 53.181-12.276" stroke-width=".752"/><path d="M.966 204.424c26.588 0 26.588 12.276 53.175 12.276s26.587-12.276 53.173-12.276c26.59 0 26.59 12.276 53.181 12.276s26.59-12.276 53.181-12.276" stroke-width=".761"/><path d="M.966 207.07c26.588 0 26.588 12.276 53.175 12.276s26.587-12.276 53.173-12.276c26.59 0 26.59 12.276 53.181 12.276s26.59-12.276 53.181-12.276" stroke-width=".771"/><path d="M.966 209.717c26.588 0 26.588 12.276 53.175 12.276s26.587-12.276 53.173-12.276c26.59 0 26.59 12.276 53.181 12.276s26.59-12.276 53.181-12.276" stroke-width=".781"/><path d="M.966 212.363c26.588 0 26.588 12.276 53.175 12.276s26.587-12.276 53.173-12.276c26.59 0 26.59 12.276 53.181 12.276s26.59-12.276 53.181-12.276" stroke-width=".791"/></g></svg>