<svg xmlns="http://www.w3.org/2000/svg" width="220" height="176.999" viewBox="0 0 220 176.999">
  <g id="image" transform="translate(-82.454 -111.339)">
    <g id="Group_306" data-name="Group 306">
      <g id="Group_305" data-name="Group 305">
        <path id="Path_969" data-name="Path 969" d="M295.89,286.444c0,.914-9.834,1.655-21.965,1.655s-21.965-.741-21.965-1.655,9.834-1.655,21.965-1.655S295.89,285.531,295.89,286.444Z" fill="#dff5ee"/>
        <g id="Group_288" data-name="Group 288">
          <path id="Path_970" data-name="Path 970" d="M173.227,286.144c0,1.212-17.363,2.194-38.781,2.194s-38.781-.981-38.781-2.194,17.363-2.194,38.781-2.194S173.227,284.932,173.227,286.144Z" fill="#dff5ee"/>
          <path id="Path_971" data-name="Path 971" d="M122.528,221.627a15.214,15.214,0,0,1-.948-10.519,16.778,16.778,0,0,0-1.227-12.155,11.56,11.56,0,0,1-.044-10.177,20.211,20.211,0,0,0,.785-1.963c2.4-7.05.453-14.1-3.252-15.365s-9.536,3.118-11.934,10.169a18.589,18.589,0,0,0-.777,9.307,12.689,12.689,0,0,1-.734,7.657,16.4,16.4,0,0,0-1.36,8.24,16.731,16.731,0,0,0,1.092,4.621,16.424,16.424,0,0,1,.081,12.221,18.508,18.508,0,0,0-1.272,5.228c-.766,8.209,4.021,15.373,9.175,15.857s11.185-5.662,11.951-13.872A18.167,18.167,0,0,0,122.528,221.627Z" fill="#4ba35e"/>
          <path id="Path_972" data-name="Path 972" d="M131.155,224.574a16.808,16.808,0,0,1,.116-9.151,18.322,18.322,0,0,0,.631-2.7c1-6.454-1.53-12.212-5.659-12.858s-8.293,4.06-9.3,10.515a17.6,17.6,0,0,0-.121,4.61,18.583,18.583,0,0,1-1.289,9.628A23.676,23.676,0,0,0,113.8,230.6c-1.272,8.178,1.647,15.425,6.521,16.189s9.855-5.247,11.129-13.424A22.437,22.437,0,0,0,131.155,224.574Z" fill="#4fab63"/>
          <path id="Path_973" data-name="Path 973" d="M116.373,179.482s-5.749,14.448-2.874,29.25,0,39.722-.6,54.175" fill="none" stroke="#4fab63" stroke-miterlimit="10" stroke-width="1.458"/>
          <path id="Path_974" data-name="Path 974" d="M124.7,208.148s-2.576,11.1-1.893,21.152-5.07,21.695-3.254,33.792" fill="none" stroke="#4ba35e" stroke-miterlimit="10" stroke-width="1.458"/>
          <path id="Path_975" data-name="Path 975" d="M114.508,233.21a22.088,22.088,0,0,0-20.24-14.074c-6.524-.1-11.814,3.168-11.814,7.075s5.29,7.075,11.814,7.075h.026a2.936,2.936,0,0,1,2.917,2.357,23.635,23.635,0,0,0,1,3.558c2.762,7.564,8.65,12.354,13.152,10.7S117.272,240.773,114.508,233.21Z" fill="#4fab63"/>
          <path id="Path_976" data-name="Path 976" d="M86.706,227.747s11.114-6.034,16.381,2.319,3.99,10.767,9.245,19.354,1.773,15.117,1.773,15.117" fill="none" stroke="#4ba35e" stroke-miterlimit="10" stroke-width="1.458"/>
          <path id="Rectangle_108" data-name="Rectangle 108" d="M0,0H22.065a0,0,0,0,1,0,0V13.2A11.032,11.032,0,0,1,11.032,24.236h0A11.032,11.032,0,0,1,0,13.2V0A0,0,0,0,1,0,0Z" transform="translate(104.203 261.33)" fill="#14bef2"/>
          <path id="Path_977" data-name="Path 977" d="M121.254,261.33V274.5a11.056,11.056,0,0,1-8.525,10.768,10.949,10.949,0,0,0,2.507.3h0A11.051,11.051,0,0,0,126.268,274.5V261.33Z" fill="#0fb0d6"/>
          <path id="Rectangle_109" data-name="Rectangle 109" d="M0,0H26.471a0,0,0,0,1,0,0V.007A4.382,4.382,0,0,1,22.09,4.388H4.381A4.381,4.381,0,0,1,0,.007V0A0,0,0,0,1,0,0Z" transform="translate(101.913 281.755)" fill="#6f98a8"/>
        </g>
        <path id="Path_978" data-name="Path 978" d="M260.822,277.24l4.684,4.158a6.105,6.105,0,0,0,2.735,1.4c3.29.728,10.61,2.095,11.071-.047.623-2.882-10.706-4.881-10.706-4.881l-4.477-2.93Z" fill="#8c501f"/>
        <path id="Path_979" data-name="Path 979" d="M168.671,271.2l-5.615,2.76a6.1,6.1,0,0,0-2.329,2c-1.924,2.775-5.972,9.043-4.175,10.287,2.42,1.676,8.577-8.071,8.577-8.071l4.405-3.037Z" fill="#8c501f"/>
        <g id="Group_291" data-name="Group 291">
          <rect id="Rectangle_110" data-name="Rectangle 110" width="109.481" height="2.883" transform="translate(166.296 193.67)" fill="#c2804a"/>
          <g id="Group_289" data-name="Group 289">
            <path id="Path_980" data-name="Path 980" d="M152.334,286.444l31.146-94.131-8.971-.875-25.4,95.006Z" fill="#c2804a"/>
          </g>
          <g id="Group_290" data-name="Group 290">
            <path id="Path_981" data-name="Path 981" d="M291.036,286.444l-25.4-95.006-8.971.875,31.146,94.131Z" fill="#c2804a"/>
          </g>
          <rect id="Rectangle_111" data-name="Rectangle 111" width="123.006" height="7.381" transform="translate(159.725 186.936)" fill="#8c501f"/>
        </g>
        <g id="Group_300" data-name="Group 300">
          <path id="Path_982" data-name="Path 982" d="M250.11,186.993H235.681L231.131,169h14.429Z" fill="#6f98a8"/>
          <g id="Path_983" data-name="Path 983" fill="#174eaf" stroke-miterlimit="10">
            <path d="M 269.4385375976563 170.2351837158203 L 203.3974609375 170.2351837158203 C 202.5637359619141 170.2351837158203 201.8791046142578 169.5801544189453 201.8247528076172 168.7544097900391 L 207.1779174804688 125.3290405273438 L 207.1943664550781 125.1957244873047 L 207.1943664550781 125.061393737793 C 207.1943664550781 124.1856994628906 207.9014434814453 123.4732666015625 208.7705688476563 123.4732666015625 L 274.8116455078125 123.4732666015625 C 275.6447143554688 123.4732666015625 276.3287658691406 124.1288604736328 276.3830871582031 124.9552764892578 L 271.0298767089844 168.3806915283203 L 271.0134582519531 168.5140075683594 L 271.0134582519531 168.6483306884766 C 271.0134582519531 169.5233306884766 270.3069458007813 170.2351837158203 269.4385375976563 170.2351837158203 Z" stroke="none"/>
            <path d="M 268.8668212890625 168.047607421875 L 274.0919799804688 125.6608200073242 L 209.3411560058594 125.6608200073242 L 204.1160125732422 168.047607421875 L 268.8668212890625 168.047607421875 M 269.4385375976563 172.4227447509766 L 203.3974609375 172.4227447509766 C 201.3184814453125 172.4227447509766 199.6336975097656 170.7326202392578 199.6336975097656 168.6483154296875 L 205.0067901611328 125.0613861083984 C 205.0067901611328 122.9771118164063 206.6915740966797 121.2856979370117 208.7705841064453 121.2856979370117 L 274.8116455078125 121.2856979370117 C 276.8893432617188 121.2856979370117 278.5741271972656 122.9771118164063 278.5741271972656 125.0613861083984 L 273.2010192871094 168.6483154296875 C 273.2010192871094 170.7326202392578 271.5162353515625 172.4227447509766 269.4385375976563 172.4227447509766 Z" stroke="none" fill="#a0c3d1"/>
          </g>
          <path id="Rectangle_112" data-name="Rectangle 112" d="M4.95,0H20.161a4.95,4.95,0,0,1,4.95,4.95v.213a0,0,0,0,1,0,0H0a0,0,0,0,1,0,0V4.95A4.95,4.95,0,0,1,4.95,0Z" transform="translate(224.999 181.83)" fill="#a0c3d1"/>
          <g id="Group_292" data-name="Group 292">
            <path id="Path_984" data-name="Path 984" d="M234.26,134.842h-20.2l.379-3.042h20.2Z" fill="#eb5a7d"/>
          </g>
          <g id="Group_293" data-name="Group 293">
            <path id="Path_985" data-name="Path 985" d="M265.363,141.5h-20.2l.379-3.042h20.2Z" fill="#eb5a7d"/>
          </g>
          <g id="Group_294" data-name="Group 294">
            <path id="Path_986" data-name="Path 986" d="M255.543,148.167H233.824l.379-3.042h21.719Z" fill="#eb5a7d"/>
          </g>
          <g id="Group_295" data-name="Group 295">
            <path id="Path_987" data-name="Path 987" d="M241.3,141.5H213.4l.375-3.042h27.9Z" fill="#ffd56b"/>
          </g>
          <g id="Group_296" data-name="Group 296">
            <path id="Path_988" data-name="Path 988" d="M229.962,148.167H212.68l.375-3.042h17.282Z" fill="#eb5a7d"/>
          </g>
          <g id="Group_297" data-name="Group 297">
            <path id="Path_989" data-name="Path 989" d="M235.065,154.829H211.718l.375-3.042H235.44Z" fill="#827ddc"/>
          </g>
          <g id="Group_298" data-name="Group 298">
            <path id="Path_990" data-name="Path 990" d="M249.465,154.829H238.249l.375-3.042H249.84Z" fill="#ffd56b"/>
          </g>
          <g id="Group_299" data-name="Group 299">
            <path id="Path_991" data-name="Path 991" d="M223.6,161.491H210.863l.375-3.042H223.97Z" fill="#827ddc"/>
          </g>
        </g>
        <path id="Path_992" data-name="Path 992" d="M193.728,232.912l68.052,46.85c2.543-1.239,4.351-2.8,5.131-4.825l-54.2-63.255a14.3,14.3,0,0,0-18.613-2.726h0A14.405,14.405,0,0,0,193.728,232.912Z" fill="#507f91"/>
        <g id="Group_302" data-name="Group 302">
          <g id="Group_301" data-name="Group 301">
            <path id="Path_993" data-name="Path 993" d="M185.033,128.247l-.016,17.616c-.337,1.463-7.848-6.084-13.192-5.757,0,0,3.985-4.945,8.133-14.984Z" fill="#ffaf82"/>
            <path id="Path_994" data-name="Path 994" d="M185.026,135.582c-1.108-1.262-2.327-3.164-2.536-2.26-1.769,4.024.065,9.313,2.528,10.664Z" fill="#ff9669"/>
            <path id="Path_995" data-name="Path 995" d="M196.15,124.575s-.874,11.935-7.65,16.93c-2.006,1.479-7.174-3.5-5.858-11.426,1.461-8.8-2.944-11.113.317-10.522S196.883,120.525,196.15,124.575Z" fill="#ffaf82"/>
            <path id="Path_996" data-name="Path 996" d="M203.051,122.6c-1.281,3.87-6.436,8.194-12.635,2.2-7.211-6.971-16.365,10.06-18.52,5.142-2.614-5.974.536-17.415,9.329-18.555,3.969-.516,6.908,2.987,8.9,3.409,5.3,1.121,7.217-1.271,9.06-.846C204.306,115.139,203.715,120.6,203.051,122.6Z" fill="#ffdb43"/>
            <path id="Path_997" data-name="Path 997" d="M194.806,130.893l-.039,4.638a1.052,1.052,0,0,1-1.24.951,3.112,3.112,0,0,1-.55-.175.783.783,0,0,1-.4-1.048Z" fill="#ff640a"/>
            <path id="Path_998" data-name="Path 998" d="M191.272,130.419c-.249.563-.228,1.117.046,1.239s.7-.235.945-.8.229-1.117-.046-1.239S191.521,129.856,191.272,130.419Z" fill="#783c28"/>
            <path id="Path_999" data-name="Path 999" d="M193.544,128.393a2.937,2.937,0,0,0-2.568-.771" fill="none" stroke="#783c28" stroke-linecap="round" stroke-miterlimit="10" stroke-width="0.859"/>
            <path id="Path_1000" data-name="Path 1000" d="M190.882,120.676s-6.731,2.088-6.91,7.127c-.1,2.713-2.642,9.795-8.531,6.309-9.2-5.444,1.081-16.429,1.081-16.429s9.886-2.933,14.513,2.323" fill="#ffdb43"/>
            <path id="Path_1001" data-name="Path 1001" d="M181.939,127.707c-.435,1.887.749,3.861,1.686,4.145s1.6-1.34,2.17-3.248.28-3.684-.656-3.968S182.563,125,181.939,127.707Z" fill="#ffaf82"/>
            <path id="Path_1002" data-name="Path 1002" d="M185.078,124.115s-.186,4.152.5,4.53,3.048-7.02,3.048-7.02A3.759,3.759,0,0,0,185.078,124.115Z" fill="#ffdb43"/>
          </g>
          <path id="Path_1003" data-name="Path 1003" d="M231.093,167.869a.429.429,0,0,1,.027.808c-1.215.483-2.939,1.284-2.726,1.878.225.629,6.177.9,7.935,1.18a.479.479,0,0,1,.167.886c-1.383.813-5.611,1.425-7.335,1.916s-6.841-.174-6.841-.174l-.73-2.756s6.514-3.983,7.106-4.2A6.5,6.5,0,0,1,231.093,167.869Z" fill="#ffaf82"/>
          <path id="Path_1004" data-name="Path 1004" d="M185.165,153.479c-1.134,6.471-2.913,8.8-3.341,14.236l15.084-10.664a6.589,6.589,0,0,1,3.155,4.692s-22.382,25.434-26.266,23.27c-3.411-1.9-15.8-36.971-2.693-43.079.131-.061.261-.121.39-.179C179.133,138.341,186.547,145.587,185.165,153.479Z" fill="#73c8f0"/>
          <path id="Path_1005" data-name="Path 1005" d="M152.989,208.478h0c-6.089-8.5,29.663-14.77,29.663-14.77s43.621,11.814,46.867,26.059c2.14,9.4-22.216,15.343-23.483,10.916-.989-3.456-19.217-7.063-24.623-8.213C174.639,221.029,150.245,222.548,152.989,208.478Z" fill="#55879b"/>
          <path id="Path_1006" data-name="Path 1006" d="M179.777,141.028c2.865.606,11.2,2.9,14.021,26.994a178.03,178.03,0,0,1,.866,30.123c-.373,6.258-1.657,12.5-7.218,15.366-6.93,3.566-18.037,6.518-31.725.449a12.87,12.87,0,0,1-7.178-8.366c-1.187-4.368-2.292-11.565-2.056-22.979C147.531,132.236,172.2,139.428,179.777,141.028Z" fill="#73c8f0"/>
          <path id="Path_1007" data-name="Path 1007" d="M187.285,153.24c.369.835,13.719,27.067,14.574,27.055,4.568-.055,19.4-9.2,19.4-9.2.947-.144,2.611,3.1,2.428,4.628,0,0-22.6,17.58-26.983,18.326-3.846.654-24.763-30.733-23.9-36.9C174.145,147.489,183.892,145.573,187.285,153.24Z" fill="#73c8f0"/>
        </g>
        <path id="Path_1008" data-name="Path 1008" d="M200.277,217.043l-36.593,55.964,5.048,3.585,58.9-51.22Z" fill="#55879b"/>
        <g id="Group_304" data-name="Group 304">
          <rect id="Rectangle_113" data-name="Rectangle 113" width="41.548" height="38.564" rx="7.223" transform="translate(146.442 162.812)" fill="#ffa74f"/>
          <rect id="Rectangle_114" data-name="Rectangle 114" width="41.548" height="38.564" rx="7.223" transform="translate(146.442 167.376)" fill="#ff7f00"/>
          <path id="Rectangle_115" data-name="Rectangle 115" d="M0,0H51.485a0,0,0,0,1,0,0V.833A2.577,2.577,0,0,1,48.907,3.41H2.577A2.577,2.577,0,0,1,0,.833V0A0,0,0,0,1,0,0Z" transform="translate(141.255 227.528)" fill="#696e73"/>
          <rect id="Rectangle_116" data-name="Rectangle 116" width="3.692" height="53.719" transform="translate(165.22 228.939)" fill="#959da3"/>
          <path id="Path_1009" data-name="Path 1009" d="M151.088,286.444h0a8.03,8.03,0,0,1,8.017-8.042h16.247a8.029,8.029,0,0,1,8.015,8.042h0" fill="none" stroke="#696e73" stroke-miterlimit="10" stroke-width="2.917"/>
          <path id="Path_1010" data-name="Path 1010" d="M169.319,242.931h-4.983l-1.516-14.566h8.016Z" fill="#696e73"/>
          <path id="Rectangle_117" data-name="Rectangle 117" d="M7.864,0H47.333A7.864,7.864,0,0,1,55.2,7.864V8.2a0,0,0,0,1,0,0H0a0,0,0,0,1,0,0V7.864A7.864,7.864,0,0,1,7.864,0Z" transform="translate(139.468 220.163)" fill="#ff7f00"/>
          <g id="Group_303" data-name="Group 303">
            <path id="Path_1011" data-name="Path 1011" d="M167.216,225.072a1.518,1.518,0,0,1-1.516-1.522V199.667a1.516,1.516,0,1,1,3.033,0v23.884A1.518,1.518,0,0,1,167.216,225.072Z" fill="#696e73"/>
          </g>
          <rect id="Rectangle_118" data-name="Rectangle 118" width="32.279" height="19.139" rx="2.796" transform="translate(151.089 181.814)" fill="#696e73"/>
        </g>
        <path id="Path_1012" data-name="Path 1012" d="M197.816,157.76a58.226,58.226,0,0,1,1.336-7.67,53.059,53.059,0,0,1,3.524-6.164s-.141,1.374-.347,2.823c-.264,1.836-.533,3.878.347,4.349,1.019.544,2.809-3.119,3.831-2.583.585.307-2.246,5.113-2.246,5.113l-2.684,4.132-1.715,2.925A6.259,6.259,0,0,0,197.816,157.76Z" fill="#ffaf82"/>
        <path id="Path_1013" data-name="Path 1013" d="M277.416,176.76a3.163,3.163,0,0,0-.766.1v-.505H266.232v5.226a5.2,5.2,0,0,0,10.215,1.369,3.142,3.142,0,0,0,.969.167,3.181,3.181,0,0,0,0-6.361Zm0,5.056a1.859,1.859,0,0,1-.771-.171c0-.021.005-.039.005-.06v-3.352a1.873,1.873,0,1,1,.766,3.583Z" fill="#73c8f0"/>
        <path id="Path_1014" data-name="Path 1014" d="M271.748,173.253a.482.482,0,0,1-.947-.026c-.683-4.492-.779-13.621,8.7-17.028,8.588-3.085,20.8-7.968,20.731-17.832a.477.477,0,0,1,.93-.162c1.7,4.868,3.3,14.277-6.237,20.862C282.631,167.563,273.85,164.736,271.748,173.253Z" fill="#d2f0ff"/>
      </g>
      <g id="Path_1015" data-name="Path 1015" fill="none" stroke-miterlimit="10">
        <path d="M194.017,131.657a2.368,2.368,0,1,1-.933-3.571A2.629,2.629,0,0,1,194.017,131.657Z" stroke="none"/>
        <path d="M 191.5259399414063 133.1385650634766 C 192.3877716064453 133.1385650634766 193.2608032226563 132.4856414794922 193.6981964111328 131.5141754150391 C 194.2671356201172 130.2468414306641 193.9270935058594 128.8522033691406 192.9401702880859 128.4053039550781 C 192.7376708984375 128.3135986328125 192.5193786621094 128.2671051025391 192.2913970947266 128.2671051025391 C 191.4286499023438 128.2671051025391 190.5554504394531 128.9203948974609 190.1185302734375 129.8927459716797 C 189.5490417480469 131.16015625 189.8889617919922 132.5541076660156 190.8765869140625 133.0002136230469 C 191.0793304443359 133.0920257568359 191.2978057861328 133.1385650634766 191.5259399414063 133.1385650634766 M 191.5259552001953 133.4883728027344 C 191.2546081542969 133.4883728027344 190.9862060546875 133.433837890625 190.7322845458984 133.3188629150391 C 189.5679016113281 132.7929077148438 189.1502838134766 131.1941375732422 189.7994689941406 129.7493743896484 C 190.3072052001953 128.6194152832031 191.3180084228516 127.9173126220703 192.2913970947266 127.9173126220703 C 192.5625915527344 127.9173126220703 192.8307647705078 127.9717712402344 193.08447265625 128.0866546630859 C 194.2488708496094 128.6139221191406 194.6664886474609 130.2113800048828 194.0173034667969 131.6574401855469 C 193.5086669921875 132.7871398925781 192.4988250732422 133.4883728027344 191.5259552001953 133.4883728027344 Z" stroke="none" fill="#174eaf"/>
      </g>
      <line id="Line_15" data-name="Line 15" x2="4.593" y2="2.745" transform="translate(185.465 126.811)" fill="none" stroke="#174eaf" stroke-miterlimit="10" stroke-width="1.151"/>
      <path id="Path_1016" data-name="Path 1016" d="M172.771,121.624s-20.344-7.17-20.479,11.7c0,0-17.453,8.464-19.563,25.126-1.235,9.756,5.153,17.542,13.852,21.206,9.574,4.033,24.325,1.4,27.625-4.437,6.3-11.139-.148-37.338-.148-37.338s9.151-1.368,9.568-6.026C183.625,131.852,174.354,125.963,172.771,121.624Z" fill="#ffdb43"/>
      <line id="Line_16" data-name="Line 16" x2="1.302" y2="0.465" transform="translate(194.06 131.099)" fill="none" stroke="#174eaf" stroke-miterlimit="10" stroke-width="0.977"/>
    </g>
  </g>
</svg>
