<svg xmlns="http://www.w3.org/2000/svg" width="199" height="204" viewBox="0 0 199 204">
  <g id="image" transform="translate(-398.907 -102.402)">
    <g id="Group_287" data-name="Group 287">
      <path id="Path_928" data-name="Path 928" d="M573.035,289.379c0,3.128-24.067,5.664-53.756,5.664s-53.756-2.536-53.756-5.664,24.067-5.664,53.756-5.664S573.035,286.25,573.035,289.379Z" fill="#dff5ee"/>
      <path id="Path_929" data-name="Path 929" d="M597.908,301.765c0,2.562-44.549,4.637-99.5,4.637s-99.5-2.076-99.5-4.637,44.547-4.638,99.5-4.638S597.908,299.2,597.908,301.765Z" fill="#dff5ee"/>
      <path id="Path_930" data-name="Path 930" d="M567.481,215.731s10.437-1.165,11.663-.873a48.091,48.091,0,0,1,7.892,2.868c1.183.563,5.051,1.442,3.213,2.089s-12.242.038-18.762-1.825Z" fill="#edc1a4"/>
      <path id="Path_931" data-name="Path 931" d="M571.216,215.379l-.012-.119s6.728-1.079,7.954-.787a64.121,64.121,0,0,1,7.879,2.4c4.826,1.895,6.269,3.085,4.431,3.733a47.466,47.466,0,0,1-7.357-.259c-1.878-.178-3.449-.381-5.87-.642C576.98,217.066,574.476,215.745,571.216,215.379Z" fill="#55696e"/>
      <g id="Group_281" data-name="Group 281">
        <g id="Group_276" data-name="Group 276">
          <rect id="Rectangle_101" data-name="Rectangle 101" width="3.811" height="54.874" transform="translate(539.97 228.303)" fill="#959da3"/>
        </g>
        <g id="Group_277" data-name="Group 277">
          <path id="Path_932" data-name="Path 932" d="M560.1,288.6h-3.13a6.692,6.692,0,0,0-6.709-6.661H533.491a6.692,6.692,0,0,0-6.709,6.661h-3.13a9.815,9.815,0,0,1,9.839-9.768h16.768A9.814,9.814,0,0,1,560.1,288.6Z" fill="#696e73"/>
        </g>
        <g id="Group_278" data-name="Group 278">
          <path id="Path_933" data-name="Path 933" d="M544.447,239.489H539.3l-1.565-12.74h8.274Z" fill="#696e73"/>
        </g>
        <g id="Group_279" data-name="Group 279">
          <rect id="Rectangle_102" data-name="Rectangle 102" width="53.14" height="4.35" transform="translate(515.305 225.996)" fill="#696e73"/>
        </g>
        <g id="Group_280" data-name="Group 280">
          <path id="Rectangle_103" data-name="Rectangle 103" d="M8.075,0H48.9A8.075,8.075,0,0,1,56.97,8.075v.3a0,0,0,0,1,0,0H0a0,0,0,0,1,0,0v-.3A8.075,8.075,0,0,1,8.075,0Z" transform="translate(513.39 219.338)" fill="#ff7f00"/>
        </g>
      </g>
      <path id="Path_934" data-name="Path 934" d="M543.77,119.539c-2.388-1.774-8.927.919-8.927.919l3.741-15.364s7.586,3.744,12.988,2.486,49.254,37.879,46.181,59.313c-1.892,13.2-13.388,25.7-31.606,26.812-27.174,1.657-39-23.158-39.212-31.64-.3-12,14.676-28.3,18.4-33.359C547.633,125.575,546.158,121.312,543.77,119.539Z" fill="#965028"/>
      <path id="Path_935" data-name="Path 935" d="M540.984,156.135s-19.947,2.759-38.516-22.682a1.82,1.82,0,0,1-.19-1.8c1.369-3.124,11.274-16.258,27.782-26.556,1.168.376-.491,3.353-1.808,5.218L512.92,132.695s18.118,6.815,26.755,10.861S548.939,155.649,540.984,156.135Z" fill="#ffaf82"/>
      <path id="Path_936" data-name="Path 936" d="M520.61,135.649c5.776,2.219,12.884,5.011,19.064,7.906,8.636,4.046,11.267,17.123,3.311,17.608a88.507,88.507,0,0,1-26.284-9.5Z" fill="#ff6196"/>
      <path id="Path_937" data-name="Path 937" d="M536.42,147.193c7.288,4.814,13.988,13.517,6.565,13.97a76.52,76.52,0,0,1-13.416-3.707C531.966,156.565,533.3,154.321,536.42,147.193Z" fill="#f5415f"/>
      <path id="Path_938" data-name="Path 938" d="M564.279,152.943A42.5,42.5,0,0,0,580.2,116.5a2.315,2.315,0,0,0-.88-1.824c-3.138-2.173-14.187-8.553-35.929-8.758a5.472,5.472,0,0,0-1.3,3.558l27.738,12.367a228.27,228.27,0,0,0-14.2,18.714C549.8,149.408,556.437,157.1,564.279,152.943Z" fill="#ff8c46"/>
      <path id="Path_939" data-name="Path 939" d="M519.635,218.813s-19.112-1.375-20.734-8.8c-2.856-13.083,8.671-17.954,36.877-9.816s37.257,14.108,37.257,14.108c-.23,1.391-.361,3.779-2.3,5.213Z" fill="#0091c8"/>
      <path id="Path_940" data-name="Path 940" d="M489.67,274.032s-3.354,5.816-4.309,6.633a47.808,47.808,0,0,1-6.954,4.686c-1.15.624-4.127,3.228-3.585,1.369s7.12-9.89,12.451-14.055Z" fill="#edc1a4"/>
      <path id="Path_941" data-name="Path 941" d="M489.566,273.972l.1.06s-3.047,6.053-4,6.87a63.968,63.968,0,0,1-6.56,4.951c-4.37,2.783-6.185,3.25-5.641,1.39a46.72,46.72,0,0,1,4.508-5.778c1.242-1.41,2.325-2.557,3.953-4.356C484.819,277.633,487.362,276.386,489.566,273.972Z" fill="#55696e"/>
      <path id="Path_942" data-name="Path 942" d="M532.659,212.037c-3.668-6.932,3.769-17.538,3.366-28.921-1.149-32.387-2.682-39.026,2.883-39.612s10.167-2.341,11.513-3.655c0,0,10.275-3.9,19.053,8.2,12.235,16.864,7.649,53.605.556,56.96Z" fill="#ff6196"/>
      <path id="Path_943" data-name="Path 943" d="M570.561,204.483l-.036.173a21.983,21.983,0,0,1-17.921,16.89L526.931,226c-1.413-2.672,1.143-18.166,2.638-22.016C545.118,203.98,565.393,204.168,570.561,204.483Z" fill="#41b4e6"/>
      <path id="Path_944" data-name="Path 944" d="M547.1,120.117s1.973,13.926,8.136,19.755a15.365,15.365,0,0,1-3.8,4.018c-3.664,2.605-8.845,4.4-8.661-.789,0,0,1.478-5.986-1-15.037Z" fill="#ff9669"/>
      <path id="Path_945" data-name="Path 945" d="M549.08,120.608a14,14,0,0,1-1.209,13.665c-1.015,1.533-2.908,3.415-5,3.28-3.1-.2-6.6-4.24-7.86-7.206-1.677-3.932-3.7-10.334-3.7-10.334a70.14,70.14,0,0,1,11.518-1.654c2.592-.079,4.486-2.073,5.869,1.208Q548.9,120.055,549.08,120.608Z" fill="#ffaf82"/>
      <path id="Path_946" data-name="Path 946" d="M547.733,121.935c.357,1.847,1.484,3.184,2.515,2.989s1.58-1.854,1.223-3.7-1.482-3.186-2.515-2.989S547.376,120.088,547.733,121.935Z" fill="#ffaf82"/>
      <path id="Path_947" data-name="Path 947" d="M539.131,125.708a9.267,9.267,0,0,1,.651,4.111.989.989,0,0,0,1.289.735h0a.978.978,0,0,0,.525-1.435Z" fill="#ff640a"/>
      <path id="Path_948" data-name="Path 948" d="M543.99,113.345c-1.18,7.208-6.728,15.5-15.476,12.283s-3.46-19.126,4.279-20.72S544.71,108.955,543.99,113.345Z" fill="#965028"/>
      <path id="Path_949" data-name="Path 949" d="M543.315,131.91a1.731,1.731,0,0,0-2.82.876" fill="none" stroke="#a56941" stroke-linecap="round" stroke-miterlimit="10" stroke-width="0.538"/>
      <path id="Path_950" data-name="Path 950" d="M540.895,125.622a2.267,2.267,0,0,0,2.6-1.172" fill="none" stroke="#a56941" stroke-linecap="round" stroke-miterlimit="10" stroke-width="0.538"/>
      <line id="Line_13" data-name="Line 13" x1="2.321" y2="1.94" transform="translate(540.237 122.115)" fill="none" stroke="#965028" stroke-linecap="round" stroke-miterlimit="10" stroke-width="0.538"/>
      <path id="Path_951" data-name="Path 951" d="M535.8,128.13a2.267,2.267,0,0,0,2.6-1.172" fill="none" stroke="#a56941" stroke-linecap="round" stroke-miterlimit="10" stroke-width="0.538"/>
      <line id="Line_14" data-name="Line 14" x1="3.271" y2="0.572" transform="translate(534.545 125.486)" fill="none" stroke="#965028" stroke-linecap="round" stroke-miterlimit="10" stroke-width="0.538"/>
      <path id="Path_952" data-name="Path 952" d="M529.379,230.479s16.633-16.057,5.927-23.941c-10.829-7.976-18.41,2.915-31.722,28.912-9.433,18.42-18.511,37.112-18.511,37.112,1.066.931,2.525,2.612,4.941,2.5Z" fill="#41b4e6"/>
      <path id="Path_953" data-name="Path 953" d="M549.257,118.176s-.994-.283-1.562,4.758l-.778.066s-2.14-4.743-9.387-4.136c0,0-1.816-.093.841-1.94S550.048,114.435,549.257,118.176Z" fill="#965028"/>
      <path id="Path_954" data-name="Path 954" d="M564.279,152.943A42.5,42.5,0,0,0,580.2,116.5a2.315,2.315,0,0,0-.88-1.824c-3.138-2.173-14.187-8.553-35.929-8.758a5.472,5.472,0,0,0-1.3,3.558l27.738,12.367a228.27,228.27,0,0,0-14.2,18.714C549.8,149.408,556.437,157.1,564.279,152.943Z" fill="#ffaf82"/>
      <path id="Path_955" data-name="Path 955" d="M564.961,126.007l14.9,6.432c-2.224,13.991-12.849,24.032-12.849,24.032-7.743,6.769-19.521-6.657-11.771-16.6C559.086,134.937,563.731,127.624,564.961,126.007Z" fill="#ff6196"/>
      <path id="Path_956" data-name="Path 956" d="M543.389,105.915l-6.214-2.989a5.3,5.3,0,0,0-5.647.665s-4.9,2.267-4.415,3.6h7.973l7,2.278Z" fill="#ffaf82"/>
      <path id="Rectangle_104" data-name="Rectangle 104" d="M0,0H27.176a0,0,0,0,1,0,0V.448a5.083,5.083,0,0,1-5.083,5.083H5.083A5.083,5.083,0,0,1,0,.448V0A0,0,0,0,1,0,0Z" transform="matrix(-1, 0, 0, -1, 506.137, 195.798)" fill="#a0c3d1"/>
      <path id="Path_957" data-name="Path 957" d="M472.4,195.8h15.616l4.923-19.269H477.32Z" fill="#6f98a8"/>
      <path id="Path_958" data-name="Path 958" d="M451.479,180.191H522.95a4.059,4.059,0,0,0,4.073-4.043l-5.815-46.686a4.059,4.059,0,0,0-4.073-4.043H445.664a4.057,4.057,0,0,0-4.072,4.043l5.814,46.686A4.059,4.059,0,0,0,451.479,180.191Z" fill="#a0c3d1"/>
      <path id="Path_959" data-name="Path 959" d="M488.589,160.743h-8.631A2.254,2.254,0,0,1,477.7,158.5l-1.565-8.569a2.255,2.255,0,0,1,2.263-2.247h8.631a2.255,2.255,0,0,1,2.263,2.247l1.565,8.569A2.254,2.254,0,0,1,488.589,160.743Z" fill="#acd1e0"/>
      <g id="Group_284" data-name="Group 284">
        <rect id="Rectangle_105" data-name="Rectangle 105" width="143.248" height="3.08" transform="translate(424.203 202.628)" fill="#c2804a"/>
        <g id="Group_282" data-name="Group 282">
          <path id="Path_960" data-name="Path 960" d="M409.128,301.764l33.628-100.587-9.686-.935L405.65,301.764Z" fill="#c2804a"/>
        </g>
        <g id="Group_283" data-name="Group 283">
          <path id="Path_961" data-name="Path 961" d="M583.926,301.764l-27.42-101.522-9.686.935,33.628,100.587Z" fill="#c2804a"/>
        </g>
        <rect id="Rectangle_106" data-name="Rectangle 106" width="157.852" height="7.887" transform="translate(417.108 195.433)" fill="#8c501f"/>
      </g>
      <g id="Group_286" data-name="Group 286">
        <path id="Rectangle_107" data-name="Rectangle 107" d="M0,0H21.4a0,0,0,0,1,0,0V17.14a6.118,6.118,0,0,1-6.118,6.118H6.118A6.118,6.118,0,0,1,0,17.14V0A0,0,0,0,1,0,0Z" transform="translate(422.749 172.175)" fill="#efbc30"/>
        <path id="Path_962" data-name="Path 962" d="M435.217,158.481s-10.892-16.137,0-35.537,11.585-11.114,13.4,0S435.217,158.481,435.217,158.481Z" fill="#469757"/>
        <path id="Path_963" data-name="Path 963" d="M442.168,124.169s-8.275,31.905-6.951,48.006" fill="none" stroke="#428f52" stroke-miterlimit="10" stroke-width="1.123"/>
        <path id="Path_964" data-name="Path 964" d="M439.1,165.6s13.419-16.759,18.4-12.159,5.943,35.16,0,34.5S451.135,165.275,439.1,165.6Z" fill="#4fab63"/>
        <g id="Group_285" data-name="Group 285">
          <path id="Path_965" data-name="Path 965" d="M451.142,160.691a9.608,9.608,0,0,0-7.346.69c-3.4,1.748-6.026,5.387-7.85,10.782h1.644c1.678-4.73,4-7.9,6.926-9.4a8.011,8.011,0,0,1,6.123-.6c3.494,1.179,5.463,11.723,5.927,15.687C456.566,177.85,456.2,162.4,451.142,160.691Z" fill="#4ba35e"/>
        </g>
        <path id="Path_966" data-name="Path 966" d="M418.439,131.039s13.155,4.035,14.148,12.886-1.82,19.794-1.82,19.794-9.349-7.2-12.328-16.34A25.407,25.407,0,0,1,418.439,131.039Z" fill="#4fab63"/>
        <path id="Path_967" data-name="Path 967" d="M423.315,140.219s8.675,20.784,8.179,31.956" fill="none" stroke="#4ba35e" stroke-miterlimit="10" stroke-width="1.123"/>
      </g>
      <path id="Path_968" data-name="Path 968" d="M479.6,193.032h-8.726a9.242,9.242,0,0,0-9.275,9.208v99.245" fill="none" stroke="#a0c3d1" stroke-linecap="round" stroke-miterlimit="10" stroke-width="1.497"/>
    </g>
  </g>
</svg>
