<svg xmlns="http://www.w3.org/2000/svg" width="253" height="184" viewBox="0 0 253 184">
  <g id="image" transform="translate(-65.104 -126.033)">
    <g id="Group_320" data-name="Group 320">
      <ellipse id="Ellipse_19" data-name="Ellipse 19" cx="76.826" cy="2.66" rx="76.826" ry="2.66" transform="translate(77.854 304.13)" fill="#dff5ee"/>
      <path id="Path_1017" data-name="Path 1017" d="M207.473,301.893l1.63,1.418a3.328,3.328,0,0,0,2.119.818c2.474.047,8.014-.628,7.929-1.817-.122-1.669-7.339-2.148-7.339-2.148l-1.885-1.337Z" fill="#50374b"/>
      <path id="Path_1018" data-name="Path 1018" d="M165.451,296.894l.739,3.886a3.3,3.3,0,0,0,1.16,1.952c1.915,1.564,6.194,4.726,7.479,2.906,1.379-1.949-4.562-5.658-4.562-5.658l-1.559-3.208Z" fill="#50374b"/>
      <ellipse id="Ellipse_20" data-name="Ellipse 20" cx="20.131" cy="2.246" rx="20.131" ry="2.246" transform="translate(277.842 305.54)" fill="#dff5ee"/>
      <path id="Path_1019" data-name="Path 1019" d="M224.6,213.609H211.112l-4.253-16.737h13.489Z" fill="#6f98a8"/>
      <g id="Group_307" data-name="Group 307">
        <rect id="Rectangle_119" data-name="Rectangle 119" width="5.715" height="52.795" transform="translate(107.419 251.345)" fill="#959da3"/>
        <path id="Path_1020" data-name="Path 1020" d="M112.821,261.992h-5.256a3.086,3.086,0,0,1-3.061-2.676l-1.06-7.971h13.5l-1.062,7.971A3.084,3.084,0,0,1,112.821,261.992Z" fill="#50374b"/>
        <path id="Path_1021" data-name="Path 1021" d="M119.3,298.888H101.129a7.909,7.909,0,0,0-7.916,7.9h34A7.909,7.909,0,0,0,119.3,298.888Z" fill="#695a6e"/>
      </g>
      <path id="Path_1022" data-name="Path 1022" d="M105.994,252.805H86.86l-16.2-67.666h35.33Z" fill="#d95700"/>
      <path id="Path_1023" data-name="Path 1023" d="M104.942,129.951a10.773,10.773,0,0,0-4.721,5.35A19.986,19.986,0,0,1,88.9,146.468c-4.562,1.671-9.477,4.782-12.072,10.574a24.887,24.887,0,0,0-2.272,11.919,11.266,11.266,0,0,1-2.138,7.33A10.761,10.761,0,0,0,78.7,192.946c33.755,8.039,41.257-20.4,46.042-61.337C124.745,131.609,119.2,121.99,104.942,129.951Z" fill="#eb5a7d"/>
      <path id="Path_1024" data-name="Path 1024" d="M111.159,248.719l41.767.556,54.548,52.617a3.957,3.957,0,0,0,2.454-3.067s-30.554-51.928-46.848-63.8c-8.854-6.449-40.013-17.881-40.013-17.881Z" fill="#f58251"/>
      <path id="Path_1025" data-name="Path 1025" d="M95.972,232.612c-.991-8.588,6.385-15.857,15.038-15.561,13.7.468,37.046,2.226,44.728,8.7,4.61,3.888,14.529,74.224,14.529,74.224-.612,2.3-4.569-1.786-4.569-1.786l-20.191-54.528s-38.305,5.612-45.962-3.09A14.309,14.309,0,0,1,95.972,232.612Z" fill="#ff9669"/>
      <path id="Path_1026" data-name="Path 1026" d="M139.628,219.627c-10.5-2.48-27.538-3.919-38.854-3.919-15.921,0-16.824,20.9-7.109,29.506.306.27.625.534.961.787,8.523,6.458,35.3.626,40.166-1.071Z" fill="#323e47"/>
      <path id="Path_1027" data-name="Path 1027" d="M178.123,200.648l-29.1-3.776c-1.985,2.369-5.023,12.96-5.023,12.96s2.165,1.669,6.521,1.54c9.631-.284,18.772-2.467,28.789-4.785,1.514-.351.773-3.238.242-4.818A1.653,1.653,0,0,0,178.123,200.648Z" fill="#006bb8"/>
      <path id="Path_1028" data-name="Path 1028" d="M149.019,196.872c-2.759-2.416-9.773-21.933-17.693-28.583-9.343-7.843-20.1-8.622-17.917,3.135,0,0,27.863,38.109,31.214,39.955C144.623,211.379,148.993,200.439,149.019,196.872Z" fill="#006bb8"/>
      <path id="Path_1029" data-name="Path 1029" d="M118.77,162.068c-6.668-.962-16.042-2.981-22.853,4.9-4.478,5.183-3.632,16.335-5.367,27.868-3.141,20.877,1.174,26.906,1.174,26.906s25.765,3.842,32-2.388c.75-4.026,14.827-29.19,11.108-39.5C131.48,170.559,125.118,162.986,118.77,162.068Z" fill="#006bb8"/>
      <path id="Path_1030" data-name="Path 1030" d="M120.716,154.693h-6.829a60.177,60.177,0,0,1-1.33,7.088,3.991,3.991,0,0,0,.766,3.469c2.255,2.8,7.03,7.542,9.489,1.315a4.037,4.037,0,0,0,.014-2.879A38.108,38.108,0,0,1,120.716,154.693Z" fill="#f58251"/>
      <path id="Path_1031" data-name="Path 1031" d="M111.716,147.782a15.433,15.433,0,0,0,2.735,9.141c1.128,1.49,2.99,4.045,6.572,3.936,2.223-.067,3.941-1.93,5.149-3.828,3.924-6.162,3.582-18.2,3.582-18.2s-12.638-5.191-16.932,1.952C111.913,142.29,111.716,145.077,111.716,147.782Z" fill="#ff9669"/>
      <path id="Path_1032" data-name="Path 1032" d="M119.376,154.693a2.173,2.173,0,0,0,4.346,0Z" fill="#f9f8f7"/>
      <path id="Path_1033" data-name="Path 1033" d="M118.689,148.547c0,.607-.254,1.1-.566,1.1s-.567-.493-.567-1.1.254-1.1.567-1.1S118.689,147.939,118.689,148.547Z" fill="#523528"/>
      <path id="Path_1034" data-name="Path 1034" d="M126.189,148.547c0,.607-.252,1.1-.566,1.1s-.566-.493-.566-1.1.254-1.1.566-1.1S126.189,147.939,126.189,148.547Z" fill="#523528"/>
      <path id="Path_1035" data-name="Path 1035" d="M122.1,148.212l.954,3.876a1,1,0,0,1-1.133,1.2h0a.744.744,0,0,1-.729-.9Z" fill="#ff640a"/>
      <path id="Path_1036" data-name="Path 1036" d="M119.408,145.546a13.094,13.094,0,0,0-3.883.835" fill="none" stroke="#c96e35" stroke-linecap="round" stroke-miterlimit="10" stroke-width="1.011"/>
      <path id="Path_1037" data-name="Path 1037" d="M123.866,146.187a5.39,5.39,0,0,1,2.984.208" fill="none" stroke="#c96e35" stroke-linecap="round" stroke-miterlimit="10" stroke-width="1.011"/>
      <path id="Path_1038" data-name="Path 1038" d="M112.738,138.036s7.458,8.629,15.36,8.311,10.252-8.741,9.715-11.931-1.908-13.524-15.217-5.231C122.6,129.185,103.664,127.366,112.738,138.036Z" fill="#eb5a7d"/>
      <path id="Path_1039" data-name="Path 1039" d="M113.013,148.291c.551,2.1.169,4.021-.855,4.288s-2.3-1.217-2.854-3.317-.169-4.021.856-4.29S112.461,146.191,113.013,148.291Z" fill="#ff9669"/>
      <path id="Path_1040" data-name="Path 1040" d="M106.2,213.326c3.019-2.845,7.217-4.811,11.11-6.713-.656-3.057-3.219-15.251-4.186-23.723-1.306-11.438-1.965-14.269-7.95-15.831-2.968-.774-7.261-.076-9.886,4.646-2.084,3.748,1.191,31.654,9.576,43.106A13.9,13.9,0,0,1,106.2,213.326Z" fill="#07c"/>
      <path id="Path_1041" data-name="Path 1041" d="M135.843,245.647H90.579a4.5,4.5,0,0,1-4.339-3.312l-15.577-57.2h0a5.549,5.549,0,0,0-5.361,7l15.112,55.49a7.01,7.01,0,0,0,6.446,5.146v.027h49.188a3.582,3.582,0,0,0,3.567-3.949A3.724,3.724,0,0,0,135.843,245.647Z" fill="#ff7f00"/>
      <g id="Path_1042" data-name="Path 1042" fill="#174eaf" stroke-miterlimit="10">
        <path d="M 242.6697235107422 197.9288940429688 L 180.9330596923828 197.9288940429688 C 180.1987457275391 197.9288940429688 179.5952301025391 197.3604278564453 179.5429077148438 196.6422119140625 L 184.5456848144531 156.2515106201172 L 184.5617828369141 156.1214294433594 L 184.5617828369141 155.9903411865234 C 184.5617828369141 155.2249603271484 185.1870727539063 154.6022644042969 185.9556274414063 154.6022644042969 L 247.6922912597656 154.6022644042969 C 248.4266052246094 154.6022644042969 249.0301055908203 155.1707305908203 249.0824279785156 155.8889617919922 L 244.0796508789063 196.2796630859375 L 244.0635528564453 196.4097595214844 L 244.0635528564453 196.5408325195313 C 244.0635528564453 197.3062133789063 243.4382781982422 197.9288940429688 242.6697235107422 197.9288940429688 Z" stroke="none"/>
        <path d="M 241.9976501464844 195.8042144775391 L 246.8377380371094 156.7269439697266 L 186.627685546875 156.7269439697266 L 181.78759765625 195.8042144775391 L 241.9976501464844 195.8042144775391 M 242.6697235107422 200.0535430908203 L 180.9330749511719 200.0535430908203 C 178.9895324707031 200.0535430908203 177.4145660400391 198.4811859130859 177.4145660400391 196.5408325195313 L 182.4371337890625 155.9903411865234 C 182.4371337890625 154.0513916015625 184.0120849609375 152.4776153564453 185.9556274414063 152.4776153564453 L 247.6922912597656 152.4776153564453 C 249.6358337402344 152.4776153564453 251.2107696533203 154.0513916015625 251.2107696533203 155.9903411865234 L 246.1882019042969 196.5408325195313 C 246.1882019042969 198.4811859130859 244.6132507324219 200.0535430908203 242.6697235107422 200.0535430908203 Z" stroke="none" fill="#a0c3d1"/>
      </g>
      <path id="Path_1043" data-name="Path 1043" d="M224.6,213.609H201.127a4.806,4.806,0,0,1,4.811-4.8H219.79a4.807,4.807,0,0,1,4.811,4.8Z" fill="#a0c3d1"/>
      <path id="Path_1044" data-name="Path 1044" d="M204.633,213.609H179.341a1.925,1.925,0,0,1-1.927-1.923h0a1.924,1.924,0,0,1,1.927-1.923h25.291a1.924,1.924,0,0,1,1.927,1.923h0A1.925,1.925,0,0,1,204.633,213.609Z" fill="#a0c3d1"/>
      <g id="Group_310" data-name="Group 310">
        <rect id="Rectangle_120" data-name="Rectangle 120" width="102.346" height="2.682" transform="translate(147.135 219.873)" fill="#c2804a"/>
        <g id="Group_308" data-name="Group 308">
          <path id="Path_1045" data-name="Path 1045" d="M134.082,306.186,163.2,218.611l-8.387-.814-23.741,88.389Z" fill="#c2804a"/>
        </g>
        <g id="Group_309" data-name="Group 309">
          <path id="Path_1046" data-name="Path 1046" d="M263.746,306.186,240,217.8l-8.387.814,29.116,87.575Z" fill="#c2804a"/>
        </g>
        <rect id="Rectangle_121" data-name="Rectangle 121" width="114.991" height="6.867" transform="translate(140.991 213.609)" fill="#8c501f"/>
      </g>
      <path id="Path_1047" data-name="Path 1047" d="M151.852,213.07h-7.3l-1.941-17.991h11.418Z" fill="#b48255"/>
      <rect id="Rectangle_122" data-name="Rectangle 122" width="12.882" height="3.302" transform="translate(141.799 193.849)" fill="#965028"/>
      <path id="Path_1048" data-name="Path 1048" d="M147.432,209.455s1.045-4.519,1.741-4.953.522,3.65.522,3.65l2.611-2.693.523-2s2.437,1.564,2.088,2.955-.435,4-.783,5.126-3.744,2.695-4.787,2.607S147.432,209.455,147.432,209.455Z" fill="#ff9669"/>
      <path id="Path_1049" data-name="Path 1049" d="M147.772,209.324c-4.848.7-26.865-3.52-31.211-4.37-8.87.6-11.76,9.874-11.7,9.907,11.565,6.23,42.671,1.633,44.3-.163C150.6,213.1,147.772,209.324,147.772,209.324Z" fill="#07c"/>
      <g id="Group_311" data-name="Group 311">
        <path id="Path_1050" data-name="Path 1050" d="M209.784,165.09H190.9l.354-2.831h18.886Z" fill="#0392ea"/>
      </g>
      <g id="Group_312" data-name="Group 312">
        <path id="Path_1051" data-name="Path 1051" d="M238.86,171.288H219.975l.354-2.831h18.886Z" fill="#fff"/>
      </g>
      <g id="Group_313" data-name="Group 313">
        <path id="Path_1052" data-name="Path 1052" d="M229.68,177.486h-20.3l.354-2.831h20.3Z" fill="#eb5a7d"/>
      </g>
      <g id="Group_314" data-name="Group 314">
        <path id="Path_1053" data-name="Path 1053" d="M216.364,171.288H190.285l.35-2.831h26.079Z" fill="#eb5a7d"/>
      </g>
      <g id="Group_315" data-name="Group 315">
        <path id="Path_1054" data-name="Path 1054" d="M205.766,177.486H189.61l.35-2.831h16.156Z" fill="#0392ea"/>
      </g>
      <g id="Group_316" data-name="Group 316">
        <path id="Path_1055" data-name="Path 1055" d="M210.537,183.684H188.711l.35-2.831h21.826Z" fill="#eb5a7d"/>
      </g>
      <g id="Group_317" data-name="Group 317">
        <path id="Path_1056" data-name="Path 1056" d="M224,183.684H213.513l.35-2.831h10.485Z" fill="#0392ea"/>
      </g>
      <g id="Group_318" data-name="Group 318">
        <path id="Path_1057" data-name="Path 1057" d="M199.815,189.883h-11.9l.35-2.831h11.9Z" fill="#fff"/>
      </g>
      <g id="Group_319" data-name="Group 319">
        <path id="Path_1058" data-name="Path 1058" d="M305.474,241.738a15.5,15.5,0,0,1-.975-10.769,17.09,17.09,0,0,0-1.262-12.442,11.783,11.783,0,0,1-.047-10.419A20.421,20.421,0,0,0,304,206.1c2.465-7.218.465-14.432-3.347-15.729s-9.81,3.191-12.275,10.411a18.935,18.935,0,0,0-.8,9.528,12.934,12.934,0,0,1-.754,7.839,16.713,16.713,0,0,0-1.4,8.435,17.082,17.082,0,0,0,1.123,4.731,16.737,16.737,0,0,1,.082,12.511,18.91,18.91,0,0,0-1.307,5.353c-.79,8.4,4.135,15.738,9.437,16.233s11.505-5.8,12.293-14.2A18.539,18.539,0,0,0,305.474,241.738Z" fill="#4ba35e"/>
        <path id="Path_1059" data-name="Path 1059" d="M314.348,244.755a17.132,17.132,0,0,1,.119-9.369,18.613,18.613,0,0,0,.648-2.761c1.035-6.609-1.572-12.5-5.821-13.165s-8.53,4.158-9.563,10.766a17.949,17.949,0,0,0-.125,4.719,18.944,18.944,0,0,1-1.325,9.857,24.092,24.092,0,0,0-1.788,6.124c-1.31,8.371,1.693,15.792,6.707,16.573s10.139-5.371,11.447-13.744A22.81,22.81,0,0,0,314.348,244.755Z" fill="#4fab63"/>
        <path id="Path_1060" data-name="Path 1060" d="M299.143,198.593s-5.914,14.791-2.956,29.946,0,40.664-.624,55.46" fill="none" stroke="#4fab63" stroke-miterlimit="10" stroke-width="1.416"/>
        <path id="Path_1061" data-name="Path 1061" d="M307.712,227.939s-2.65,11.366-1.948,21.655-5.215,22.21-3.347,34.594" fill="none" stroke="#4ba35e" stroke-miterlimit="10" stroke-width="1.416"/>
        <path id="Path_1062" data-name="Path 1062" d="M297.225,253.6a22.71,22.71,0,0,0-20.82-14.409c-6.711-.1-12.152,3.242-12.152,7.243s5.441,7.243,12.152,7.243h.027a3.013,3.013,0,0,1,3,2.412,24.3,24.3,0,0,0,1.025,3.643c2.841,7.743,8.9,12.648,13.53,10.954S300.067,261.339,297.225,253.6Z" fill="#4fab63"/>
        <path id="Path_1063" data-name="Path 1063" d="M268.625,248s11.434-6.178,16.851,2.372,4.1,11.024,9.509,19.814,1.824,15.476,1.824,15.476" fill="none" stroke="#4ba35e" stroke-miterlimit="10" stroke-width="1.416"/>
        <path id="Rectangle_123" data-name="Rectangle 123" d="M0,0H22.7a0,0,0,0,1,0,0V13.472A11.339,11.339,0,0,1,11.358,24.812h-.019A11.339,11.339,0,0,1,0,13.472V0A0,0,0,0,1,0,0Z" transform="translate(286.624 282.384)" fill="#ffe576"/>
        <path id="Path_1064" data-name="Path 1064" d="M304.163,282.384v13.482a11.33,11.33,0,0,1-8.769,11.025,11.4,11.4,0,0,0,2.579.3h0a11.339,11.339,0,0,0,11.348-11.329V282.384Z" fill="#eac736"/>
        <path id="Rectangle_124" data-name="Rectangle 124" d="M0,0H27.23a0,0,0,0,1,0,0V.185a4.308,4.308,0,0,1-4.308,4.308H4.308A4.308,4.308,0,0,1,0,.184V0A0,0,0,0,1,0,0Z" transform="translate(284.268 303.294)" fill="#07c"/>
      </g>
      <path id="Path_1065" data-name="Path 1065" d="M179.092,202.066s5.106-2.013,6.228-2.013,3.7,3.049,4.1,4.072.729,5.377,0,5.637-.972-1.4-1.153-2.3a6.887,6.887,0,0,0-1.035-2.069,1.6,1.6,0,0,1-2.022,1.766,25.461,25.461,0,0,1-5.78-2.211A2.938,2.938,0,0,1,179.092,202.066Z" fill="#ff9669"/>
    </g>
  </g>
</svg>
