<svg xmlns="http://www.w3.org/2000/svg" width="259.999" height="189.001" viewBox="0 0 259.999 189.001">
  <g id="image" transform="translate(-72.69 -393.314)">
    <g id="Group_275" data-name="Group 275">
      <path id="Path_852" data-name="Path 852" d="M191.45,579.478c0,1.568-17.755,2.837-39.659,2.837s-39.659-1.27-39.659-2.837,17.755-2.836,39.659-2.836S191.45,577.913,191.45,579.478Z" fill="#dff5ee"/>
      <path id="Path_853" data-name="Path 853" d="M322.369,579.478c0,1.568-17.757,2.837-39.659,2.837s-39.659-1.27-39.659-2.837,17.755-2.836,39.659-2.836S322.369,577.913,322.369,579.478Z" fill="#dff5ee"/>
      <path id="Path_854" data-name="Path 854" d="M94.3,494.063a75.651,75.651,0,0,1,22.087,44.97" fill="none" stroke="#4ba35e" stroke-miterlimit="10" stroke-width="1.871"/>
      <g id="Group_259" data-name="Group 259">
        <rect id="Rectangle_90" data-name="Rectangle 90" width="20.517" height="48.649" transform="translate(258.91 528.995)" fill="#a0c3d1"/>
        <rect id="Rectangle_91" data-name="Rectangle 91" width="40.528" height="48.649" transform="matrix(-1, 0, 0, -1, 319.954, 577.644)" fill="#6f98a8"/>
        <rect id="Rectangle_92" data-name="Rectangle 92" width="13.907" height="4.341" transform="translate(261.95 532.665)" fill="#6f98a8"/>
        <path id="Path_855" data-name="Path 855" d="M273.648,541.841a1.1,1.1,0,1,0,1.1-1.11A1.108,1.108,0,0,0,273.648,541.841Z" fill="#6f98a8"/>
        <path id="Path_856" data-name="Path 856" d="M274.435,545.891a.712.712,0,1,1,.711.714A.713.713,0,0,1,274.435,545.891Z" fill="#6f98a8"/>
        <path id="Path_857" data-name="Path 857" d="M314.657,565.66h-13.55a2.144,2.144,0,0,1,2.14-2.149h9.271a2.144,2.144,0,0,1,2.14,2.149Z" fill="#426670"/>
        <path id="Path_858" data-name="Path 858" d="M314.657,569.048h-13.55a2.144,2.144,0,0,1,2.14-2.149h9.271a2.144,2.144,0,0,1,2.14,2.149Z" fill="#426670"/>
        <path id="Path_859" data-name="Path 859" d="M314.657,572.435h-13.55a2.144,2.144,0,0,1,2.14-2.149h9.271a2.144,2.144,0,0,1,2.14,2.149Z" fill="#426670"/>
        <rect id="Rectangle_93" data-name="Rectangle 93" width="3.453" height="1.77" transform="translate(261.71 577.644)" fill="#6f98a8"/>
        <rect id="Rectangle_94" data-name="Rectangle 94" width="3.453" height="1.77" transform="translate(272.502 577.644)" fill="#6f98a8"/>
        <rect id="Rectangle_95" data-name="Rectangle 95" width="3.453" height="1.77" transform="translate(281.946 577.644)" fill="#6f98a8"/>
        <rect id="Rectangle_96" data-name="Rectangle 96" width="3.453" height="1.77" transform="translate(312.975 577.644)" fill="#6f98a8"/>
      </g>
      <path id="Path_860" data-name="Path 860" d="M83.88,439.643s35.61,61,38.8,98.658" fill="none" stroke="#4ba35e" stroke-miterlimit="10" stroke-width="1.352"/>
      <path id="Path_861" data-name="Path 861" d="M135.574,404.8s-26,74.005-17.473,134.232" fill="none" stroke="#4ba35e" stroke-miterlimit="10" stroke-width="1.352"/>
      <path id="Path_862" data-name="Path 862" d="M125.966,579.414h-9.855a2.606,2.606,0,0,1-2.577-2.252l-6.374-45.828a2.05,2.05,0,0,1,2.025-2.339h22.432a2.051,2.051,0,0,1,2.033,2.282l-5.1,45.813A2.608,2.608,0,0,1,125.966,579.414Z" fill="#695a6e"/>
      <path id="Path_863" data-name="Path 863" d="M85,435.674a26.3,26.3,0,0,1,3.116,11.551A24.469,24.469,0,0,1,76.8,426.993,26.162,26.162,0,0,1,85,435.674Z" fill="#4ba35e"/>
      <path id="Path_864" data-name="Path 864" d="M84.42,449.243a26.146,26.146,0,0,1,9.337,7.435A24.294,24.294,0,0,1,72.69,447.15,26.014,26.014,0,0,1,84.42,449.243Z" fill="#4ba35e"/>
      <path id="Path_865" data-name="Path 865" d="M94.143,438.9a26.293,26.293,0,0,1-4.26,11.176,24.538,24.538,0,0,1,2.729-23.044A26.334,26.334,0,0,1,94.143,438.9Z" fill="#4ba35e"/>
      <path id="Path_866" data-name="Path 866" d="M137.5,405.282a26.24,26.24,0,0,1-5.622,10.55,24.522,24.522,0,0,1,5.585-22.518A26.345,26.345,0,0,1,137.5,405.282Z" fill="#4ba35e"/>
      <path id="Path_867" data-name="Path 867" d="M141.943,413.925a26.04,26.04,0,0,1-10.733,5.2,24.374,24.374,0,0,1,17.726-14.885A26.224,26.224,0,0,1,141.943,413.925Z" fill="#4ba35e"/>
      <path id="Path_868" data-name="Path 868" d="M138.392,424.877a26.046,26.046,0,0,1-10.733,5.2,24.367,24.367,0,0,1,17.726-14.885A26.225,26.225,0,0,1,138.392,424.877Z" fill="#4ba35e"/>
      <path id="Path_869" data-name="Path 869" d="M128.156,414.216a26.332,26.332,0,0,1,1.082,11.918,24.512,24.512,0,0,1-7.665-21.892A26.212,26.212,0,0,1,128.156,414.216Z" fill="#4ba35e"/>
      <path id="Path_870" data-name="Path 870" d="M125.432,427.077A26.339,26.339,0,0,1,126.514,439a24.512,24.512,0,0,1-7.665-21.892A26.214,26.214,0,0,1,125.432,427.077Z" fill="#4ba35e"/>
      <path id="Path_871" data-name="Path 871" d="M122.28,439.565a26.321,26.321,0,0,1,1.081,11.918,24.506,24.506,0,0,1-7.664-21.892A26.212,26.212,0,0,1,122.28,439.565Z" fill="#4ba35e"/>
      <path id="Path_872" data-name="Path 872" d="M134.688,439.259a26.064,26.064,0,0,1-10.461,5.729,24.381,24.381,0,0,1,16.961-15.759A26.237,26.237,0,0,1,134.688,439.259Z" fill="#4ba35e"/>
      <path id="Path_873" data-name="Path 873" d="M131.47,454.064a26.064,26.064,0,0,1-10.461,5.729,24.381,24.381,0,0,1,16.961-15.759A26.227,26.227,0,0,1,131.47,454.064Z" fill="#4ba35e"/>
      <path id="Path_874" data-name="Path 874" d="M129.64,469.3a26.064,26.064,0,0,1-10.461,5.729,24.387,24.387,0,0,1,16.961-15.759A26.237,26.237,0,0,1,129.64,469.3Z" fill="#4ba35e"/>
      <path id="Path_875" data-name="Path 875" d="M119.115,455.7a26.335,26.335,0,0,1,1.3,11.9,24.51,24.51,0,0,1-8.073-21.745A26.22,26.22,0,0,1,119.115,455.7Z" fill="#4ba35e"/>
      <path id="Path_876" data-name="Path 876" d="M100.862,452.476a26.292,26.292,0,0,1-4.26,11.177,24.539,24.539,0,0,1,2.729-23.044A26.334,26.334,0,0,1,100.862,452.476Z" fill="#4ba35e"/>
      <path id="Path_877" data-name="Path 877" d="M92.414,461.654a26.186,26.186,0,0,1,8.046,8.827,24.339,24.339,0,0,1-19.3-12.759A26.024,26.024,0,0,1,92.414,461.654Z" fill="#4ba35e"/>
      <path id="Path_878" data-name="Path 878" d="M95.358,473.126a26.1,26.1,0,0,1,9.694,6.957,24.289,24.289,0,0,1-21.515-8.46A26,26,0,0,1,95.358,473.126Z" fill="#4ba35e"/>
      <path id="Path_879" data-name="Path 879" d="M100.7,484.794a26.129,26.129,0,0,1,9.315,7.462,24.3,24.3,0,0,1-21.04-9.59A26,26,0,0,1,100.7,484.794Z" fill="#4ba35e"/>
      <path id="Path_880" data-name="Path 880" d="M106.189,464.311a26.3,26.3,0,0,1-3.736,11.363,24.537,24.537,0,0,1,1.655-23.147A26.321,26.321,0,0,1,106.189,464.311Z" fill="#4ba35e"/>
      <path id="Path_881" data-name="Path 881" d="M112.116,477.607a26.293,26.293,0,0,1-3.737,11.365,24.542,24.542,0,0,1,1.657-23.147A26.312,26.312,0,0,1,112.116,477.607Z" fill="#4ba35e"/>
      <path id="Path_882" data-name="Path 882" d="M170.662,431.206c7.469,6.113,11,18.494,18.98,23.379,5.551,3.4,25.6,4.632,25.6,4.632l1.035,4.8s-24.6,3.584-32.46,1.515c-7.1-1.87-13.641-8.576-22.669-18.743-2.785-3.137-5.885-8.72-5.99-10.1C154.595,429.321,164.96,426.539,170.662,431.206Z" fill="#ffce52"/>
      <path id="Path_883" data-name="Path 883" d="M209.092,484l1.276-.062a6.36,6.36,0,0,0,1.619-.267c1.936-.615,4.652-.879,6.346-.084,0,0,3.737,1.565,4.138,2.182.127.2.236.622.054.764-1.029.794-5.16-.6-5.16-.6a8.215,8.215,0,0,0-3.885.306l-2.481.816-2.641.858Z" fill="#ffaf82"/>
      <path id="Path_884" data-name="Path 884" d="M261.95,490.776H249.113l-4.047-16.025H257.9Z" fill="#6f98a8"/>
      <g id="Path_885" data-name="Path 885" fill="#174eaf" stroke-miterlimit="10">
        <path d="M 279.1455993652344 475.768798828125 L 220.3919677734375 475.768798828125 C 219.69677734375 475.768798828125 219.12548828125 475.2215270996094 219.076416015625 474.5302429199219 L 223.8376007080078 435.8563842773438 L 223.8527984619141 435.7329406738281 L 223.8527984619141 435.6085815429688 C 223.8527984619141 434.8723754882813 224.445068359375 434.2734375 225.1730804443359 434.2734375 L 283.9253845214844 434.2734375 C 284.6212768554688 434.2734375 285.1931762695313 434.8207092285156 285.2422790527344 435.5119934082031 L 280.4811096191406 474.1858520507813 L 280.4659118652344 474.3092956542969 L 280.4659118652344 474.4336547851563 C 280.4659118652344 475.1698608398438 279.8736267089844 475.768798828125 279.1455993652344 475.768798828125 Z" stroke="none"/>
        <path d="M 278.4925231933594 473.74072265625 L 283.1016845703125 436.3015441894531 L 225.8262023925781 436.3015441894531 L 221.2170257568359 473.74072265625 L 278.4925231933594 473.74072265625 M 279.1455993652344 477.7969055175781 L 220.3919677734375 477.7969055175781 C 218.5437164306641 477.7969055175781 217.0449066162109 476.2914428710938 217.0449066162109 474.4336547851563 L 221.82470703125 435.6085815429688 C 221.82470703125 433.7521667480469 223.3235015869141 432.2453308105469 225.1730804443359 432.2453308105469 L 283.9253845214844 432.2453308105469 C 285.7749938964844 432.2453308105469 287.2738037109375 433.7521667480469 287.2738037109375 435.6085815429688 L 282.4940185546875 474.4336547851563 C 282.4940185546875 476.2914428710938 280.9938354492188 477.7969055175781 279.1455993652344 477.7969055175781 Z" stroke="none" fill="#a0c3d1"/>
      </g>
      <path id="Path_886" data-name="Path 886" d="M261.95,490.776H239.611a4.588,4.588,0,0,1,4.579-4.6h13.182a4.589,4.589,0,0,1,4.579,4.6Z" fill="#a0c3d1"/>
      <path id="Path_887" data-name="Path 887" d="M231.875,490.776H207.806a1.838,1.838,0,0,1-1.833-1.842h0a1.837,1.837,0,0,1,1.833-1.841h24.069a1.837,1.837,0,0,1,1.833,1.841h0A1.838,1.838,0,0,1,231.875,490.776Z" fill="#a0c3d1"/>
      <g id="Group_262" data-name="Group 262">
        <rect id="Rectangle_97" data-name="Rectangle 97" width="97.399" height="2.568" transform="translate(188.228 496.774)" fill="#c2804a"/>
        <g id="Group_260" data-name="Group 260">
          <path id="Path_888" data-name="Path 888" d="M175.807,579.413l27.709-83.849-7.981-.779-22.593,84.628Z" fill="#c2804a"/>
        </g>
        <g id="Group_261" data-name="Group 261">
          <path id="Path_889" data-name="Path 889" d="M299.2,579.413l-22.593-84.628-7.981.779,27.709,83.849Z" fill="#c2804a"/>
        </g>
        <rect id="Rectangle_98" data-name="Rectangle 98" width="109.432" height="6.575" transform="translate(182.382 490.776)" fill="#8c501f"/>
      </g>
      <g id="Group_263" data-name="Group 263">
        <path id="Path_890" data-name="Path 890" d="M247.849,444.321H229.877l.337-2.71h17.973Z" fill="#eb5a7d"/>
      </g>
      <g id="Group_264" data-name="Group 264">
        <path id="Path_891" data-name="Path 891" d="M275.52,450.256H257.547l.337-2.71h17.973Z" fill="#eb5a7d"/>
      </g>
      <g id="Group_265" data-name="Group 265">
        <path id="Path_892" data-name="Path 892" d="M266.784,456.19H247.462l.337-2.71h19.322Z" fill="#eb5a7d"/>
      </g>
      <g id="Group_266" data-name="Group 266">
        <path id="Path_893" data-name="Path 893" d="M254.111,450.256H229.292l.333-2.71h24.818Z" fill="#ffd56b"/>
      </g>
      <g id="Group_267" data-name="Group 267">
        <path id="Path_894" data-name="Path 894" d="M244.025,456.19H228.651l.333-2.71h15.375Z" fill="#eb5a7d"/>
      </g>
      <g id="Group_268" data-name="Group 268">
        <path id="Path_895" data-name="Path 895" d="M248.566,462.124H227.795l.333-2.71H248.9Z" fill="#827ddc"/>
      </g>
      <g id="Group_269" data-name="Group 269">
        <path id="Path_896" data-name="Path 896" d="M261.376,462.124H251.4l.333-2.71h9.978Z" fill="#ffd56b"/>
      </g>
      <g id="Group_270" data-name="Group 270">
        <path id="Path_897" data-name="Path 897" d="M238.362,468.059H227.035l.333-2.71H238.7Z" fill="#827ddc"/>
      </g>
      <path id="Path_898" data-name="Path 898" d="M167.532,424.89s-8.5,2.637-16.733,17.507l23.527-6.928.936,7.327s-34.65,23.155-40.576,14.232c-3.5-5.277-.776-17.879,11.127-27.6S167.532,424.89,167.532,424.89Z" fill="#f5e88c"/>
      <path id="Path_899" data-name="Path 899" d="M132.763,572.79l.5,2.13c.2.836,5.426,2.572,6.589,3.584.585.508-6.787,1.394-8.567.744a2.013,2.013,0,0,1-1.267-2.2l.747-4.85Z" fill="#ffaf82"/>
      <path id="Path_900" data-name="Path 900" d="M110.472,538.677l-2.934,2.046c-.83.2-2.919,9.867-5,9.844-.773-.009.038-10,.669-11.793a1.993,1.993,0,0,1,1.9-1.313,3.672,3.672,0,0,0,.56-.02l4.059-.622Z" fill="#ffaf82"/>
      <path id="Path_901" data-name="Path 901" d="M132.763,572.79l.5,2.13c.2.836,5.426,2.572,6.589,3.584.585.508-6.787,1.394-8.567.744a2.013,2.013,0,0,1-1.267-2.2l.747-4.85Z" fill="#50374b"/>
      <path id="Path_902" data-name="Path 902" d="M110.472,538.677l-2.934,2.046c-.83.2-2.919,9.867-5,9.844-.773-.009.038-10,.669-11.793a1.993,1.993,0,0,1,1.9-1.313,3.672,3.672,0,0,0,.56-.02l4.059-.622Z" fill="#50374b"/>
      <path id="Path_903" data-name="Path 903" d="M107.731,536.343s37.078-20.891,41.761-21.486,6.4,4.432,6.4,4.432-.335,8.346-2.018,8.346c-11.111,0-44.59,12.247-44.59,12.247A4.165,4.165,0,0,1,107.731,536.343Z" fill="#e16450"/>
      <path id="Path_904" data-name="Path 904" d="M141.234,518.233c-12.383,6.367-33.5,18.11-33.5,18.11a4.165,4.165,0,0,0,1.553,3.539s18.919-6.649,31.95-10.275Z" fill="#ce4a3c"/>
      <path id="Path_905" data-name="Path 905" d="M147.457,528.637a8.534,8.534,0,0,0,8.426-7.283l.008-.052c1.581-10.521,3-40.3-.755-49.385-3.228-7.808-29.131-9.262-37.313-6.66-.4.127-.87,1.379-1.332,3.069a50.513,50.513,0,0,0-1.475,17.931A414.5,414.5,0,0,0,121.5,531.1c5.336,25.336,8.5,42.406,8.5,42.406a4.75,4.75,0,0,0,3.32,0s6.751-68.5,7.6-81.213c0,0,.977,14.168,2.238,36.34Z" fill="#e16450"/>
      <path id="Path_906" data-name="Path 906" d="M158.332,421.58c-2.4.27-4.479,1.519-6.6,2.671-3.307,1.8-8.333,5.031-19.025,14.3-14.25,12.359-17.966,22.61-18.952,27.235a8.514,8.514,0,0,0,.82,5.794q.059.11.121.224c11.06,20.366,29.968,14.37,35.946,8.42s10.223-11.416,13.218-14.879C190.26,434.838,165.549,420.769,158.332,421.58Z" fill="#ffce52"/>
      <g id="Group_271" data-name="Group 271">
        <line id="Line_12" data-name="Line 12" y2="43.646" transform="translate(153.873 532.996)" fill="none" stroke="#87afb9" stroke-miterlimit="10" stroke-width="4.065"/>
        <rect id="Rectangle_99" data-name="Rectangle 99" width="39.131" height="10.719" rx="3.836" transform="translate(134.308 527.637)" fill="#ffb49b"/>
        <path id="Path_907" data-name="Path 907" d="M139.783,579.307h0a5.505,5.505,0,0,1,5.493-5.518h17.194a5.505,5.505,0,0,1,5.492,5.518h0" fill="none" stroke="#87afb9" stroke-miterlimit="10" stroke-width="2.704"/>
        <path id="Path_908" data-name="Path 908" d="M151.3,541.532h4.941l9.882,3.176" fill="none" stroke="#b4d7dc" stroke-linecap="round" stroke-miterlimit="10" stroke-width="2.704"/>
      </g>
      <path id="Path_909" data-name="Path 909" d="M219.234,457.047c-.418-.365.588-1.947,1.124-3.007.171-.34-.134-.886-.853-.523a7.1,7.1,0,0,0-1.972,1.169c-.281.524-2.148,5.263-2.148,5.263l.65,2.972a18.187,18.187,0,0,0,2.494-.55A36.356,36.356,0,0,0,219.234,457.047Z" fill="#ffaf82"/>
      <path id="Path_910" data-name="Path 910" d="M166.321,430.682c4.332,8.644,8.908,27.474,14.419,35.051,4.015,5.522,29.471,17.835,29.471,17.835l-.979,5.216c-13.4-1.691-31.3-10.479-38.26-15.449-6.863-4.9-14.838-20.177-18.946-33.16-1.267-4.006-1.658-7.457-1.193-8.76C153.313,424.459,163.012,424.082,166.321,430.682Z" fill="#ffd56b"/>
      <path id="Rectangle_100" data-name="Rectangle 100" d="M0,0H18.45a0,0,0,0,1,0,0V14.757a5.524,5.524,0,0,1-5.524,5.524h-7.4A5.524,5.524,0,0,1,0,14.757V0A0,0,0,0,1,0,0Z" transform="translate(299.203 508.714)" fill="#827ddc"/>
      <path id="Path_911" data-name="Path 911" d="M309.95,496.773a30.8,30.8,0,0,1,0-30.989c9.39-16.915,9.985-9.691,11.553,0S309.95,496.773,309.95,496.773Z" fill="#469757"/>
      <path id="Path_912" data-name="Path 912" d="M315.94,466.853s-7.131,27.821-5.99,41.86" fill="none" stroke="#428f52" stroke-miterlimit="10" stroke-width="1.014"/>
      <path id="Path_913" data-name="Path 913" d="M313.295,502.983s11.566-14.613,15.857-10.6,5.122,30.66,0,30.086S323.671,502.7,313.295,502.983Z" fill="#4fab63"/>
      <g id="Group_272" data-name="Group 272">
        <path id="Path_914" data-name="Path 914" d="M323.677,498.7a8.2,8.2,0,0,0-6.333.6c-2.926,1.524-5.194,4.7-6.767,9.4H312c1.446-4.123,3.447-6.884,5.97-8.2a6.837,6.837,0,0,1,5.278-.522c3.011,1.028,4.71,10.223,5.109,13.679C328.352,513.663,328.032,500.188,323.677,498.7Z" fill="#4ba35e"/>
      </g>
      <path id="Path_915" data-name="Path 915" d="M295.488,472.844s11.339,3.518,12.2,11.236-1.569,17.261-1.569,17.261-8.059-6.277-10.627-14.248A22.4,22.4,0,0,1,295.488,472.844Z" fill="#4fab63"/>
      <path id="Path_916" data-name="Path 916" d="M299.691,480.849s7.478,18.124,7.05,27.865" fill="none" stroke="#4ba35e" stroke-miterlimit="10" stroke-width="1.014"/>
      <g id="Group_274" data-name="Group 274">
        <g id="Group_273" data-name="Group 273">
          <path id="Path_917" data-name="Path 917" d="M173.517,412.859l-.95,16.978c-2.018-2.831-6.957-6.733-11.918-6.727,0,0,3.957-4.359,8.347-13.426Z" fill="#ffaf82"/>
          <path id="Path_918" data-name="Path 918" d="M173.108,419.651c-.956-1.23-1.841-3.079-2.083-2.253-1.16,3.781-.591,8.648,1.613,10.034Z" fill="#ff9669"/>
          <path id="Path_919" data-name="Path 919" d="M183.174,409.734s-2.223,14.757-7.3,15.706c-2.767.516-5.614-3.966-4.668-10.965,1.108-8.2-2.113-10.507.872-9.778S184.076,406.025,183.174,409.734Z" fill="#ffaf82"/>
          <path id="Path_920" data-name="Path 920" d="M190.494,408.631c-1.4,3.512-6.4,7.231-11.807,1.337-6.287-6.855-15.69,8.408-17.411,3.735-2.09-5.676,1.454-16.1,9.65-16.666,3.7-.256,6.226,3.151,8.042,3.652,4.843,1.333,6.745-.778,8.426-.28C192.064,401.79,191.218,406.811,190.494,408.631Z" fill="#783c28"/>
          <path id="Path_921" data-name="Path 921" d="M178.732,415.191c-.26.507-.273,1.022-.026,1.149s.657-.179.917-.686.273-1.023.026-1.15S178.993,414.684,178.732,415.191Z" fill="#783c28"/>
          <path id="Path_922" data-name="Path 922" d="M181.382,413.467a2.722,2.722,0,0,0-2.334-.856" fill="none" stroke="#783c28" stroke-linecap="round" stroke-miterlimit="10" stroke-width="0.796"/>
          <path id="Path_923" data-name="Path 923" d="M179.344,406.173s-6.339,1.56-6.782,6.217c-.239,2.507-2.983,8.923-8.237,5.369-8.209-5.552,1.9-15.154,1.9-15.154s9.3-2.167,13.294,2.957" fill="#783c28"/>
          <path id="Path_924" data-name="Path 924" d="M170.687,412.188c-.506,1.722.48,3.617,1.332,3.931s1.549-1.152,2.184-2.888.463-3.4-.387-3.71S171.412,409.713,170.687,412.188Z" fill="#ffaf82"/>
          <path id="Path_925" data-name="Path 925" d="M181.788,415.025l.135,4.3a.974.974,0,0,1-1.113.927,2.868,2.868,0,0,1-.517-.141.725.725,0,0,1-.409-.957Z" fill="#ff640a"/>
          <path id="Path_926" data-name="Path 926" d="M173.788,409.036s-.4,3.833.209,4.222,3.205-6.332,3.205-6.332A3.478,3.478,0,0,0,173.788,409.036Z" fill="#783c28"/>
        </g>
        <path id="Path_927" data-name="Path 927" d="M167.083,400.4s-2.3-5.469-11.947-3.377-8.436,18-8.436,18-21.314-3.453-29.043,4.735c-6.235,6.606-2.214,24.274,6.446,27.345,16.139,5.721,27.968-21.625,27.968-21.625s8,.264,7.328-6.672-1.878-18.407,5.168-16.658Z" fill="#783c28"/>
      </g>
    </g>
  </g>
</svg>
