<svg xmlns="http://www.w3.org/2000/svg" width="619" height="543" viewBox="0 0 619 543"><g id="image_shape" data-name="image / shape" transform="translate(-375 -1825)"><g id="image_01" transform="translate(543.138 1858.305)"><g id="Group_173" data-name="Group 173"><path id="Path_515" data-name="Path 515" d="M439.054,355.667c-2.16,5.849-5.249,9-7.335,8.206s-2.376-5.22-.217-11.068,8.037-10.111,8.037-10.111S441.214,349.819,439.054,355.667Z" fill="#469757"></path><path id="Path_516" data-name="Path 516" d="M442.22,378.106c-2.464,4.712-5.421,7.033-7.1,6.131s-1.446-4.685,1.018-9.4,7.9-7.665,7.9-7.665S444.685,373.395,442.22,378.106Z" fill="#4fab63"></path><path id="Path_517" data-name="Path 517" d="M410.657,381.033c5.21-.753,8.8.3,9.073,2.21s-2.889,3.941-8.1,4.695-10.769-1.965-10.769-1.965S405.447,381.786,410.657,381.033Z" fill="#4fab63"></path><path id="Path_518" data-name="Path 518" d="M431.931,371.143c1.27,6.11.326,10.445-1.853,10.91s-4.769-3.117-6.038-9.227,1.438-12.9,1.438-12.9S430.661,365.033,431.931,371.143Z" fill="#4fab63"></path><path id="Path_519" data-name="Path 519" d="M415.72,364.007c4.6,4.156,6.663,7.892,5.53,9.178s-5.032-.362-9.632-4.518a31.06,31.06,0,0,1-7.027-10.532A30.462,30.462,0,0,1,415.72,364.007Z" fill="#469757"></path><path id="Path_520" data-name="Path 520" d="M437.059,348.926s-10.027,20.5-11.459,40.657c-.3,4.281-.479,8.031-.566,11.282" fill="none" stroke="#4fab63" stroke-miterlimit="10" stroke-width="1.035"></path><path id="Path_521" data-name="Path 521" d="M410.3,363.993s18.957,8.661,20.707,35.747" fill="none" stroke="#4fab63" stroke-miterlimit="10" stroke-width="0.758"></path><path id="Path_522" data-name="Path 522" d="M407.71,385.23s18.328-5.321,24.793,0,.577,15.635.577,15.635" fill="none" stroke="#469757" stroke-miterlimit="10" stroke-width="1.01"></path><path id="Path_523" data-name="Path 523" d="M427.309,369.43s4.5,15.472,1.792,31.436" fill="none" stroke="#469757" stroke-miterlimit="10" stroke-width="1.102"></path><path id="Path_524" data-name="Path 524" d="M440.159,374.428s-8.123,14.183-9.113,26.438" fill="none" stroke="#469757" stroke-miterlimit="10" stroke-width="1.01"></path><path id="Path_525" data-name="Path 525" d="M437.587,394.719c-6.5-.871-10.513-2.961-10.268-4.843s4.657-2.843,11.158-1.972,12.385,5.128,12.385,5.128S444.088,395.59,437.587,394.719Z" fill="#4fab63"></path><path id="Path_526" data-name="Path 526" d="M442.311,391.865s-20.689-9.773-19.257,9" fill="none" stroke="#469757" stroke-miterlimit="10" stroke-width="1.01"></path><path id="Path_527" data-name="Path 527" d="M434.252,434.031H423.023L417,399.74h23.271Z" fill="#e16450"></path><path id="Path_528" data-name="Path 528" d="M436.669,399.74l-6.021,34.291h3.6l6.021-34.291Z" fill="#db4e40"></path><path id="Path_529" data-name="Path 529" d="M433.861,434.7H422.943a3.219,3.219,0,0,1-3.2-3.24h17.313A3.219,3.219,0,0,1,433.861,434.7Z" fill="#6f98a8"></path></g></g><g id="image_02" transform="translate(305.62 1818.592)" opacity="0.502"><path id="Path_530" data-name="Path 530" d="M512.227,119.443a160.087,160.087,0,0,0-108.1,38.718c-20.2,17.356-46.762,26.292-73.182,22.762a75.7,75.7,0,0,0-19.346-.069,73.95,73.95,0,0,0-64.017,64.981,74.8,74.8,0,0,0,.5,20.021A70.628,70.628,0,0,1,233.2,322.125a95.105,95.105,0,0,0-21.675,66.091c2.625,47.886,41.464,86.99,89.423,90a95.566,95.566,0,0,0,59.565-16.03c35.327-23.734,78.959-31.765,120.933-24.573a161.541,161.541,0,0,0,27.346,2.319c88.687,0,160.583-71.751,160.586-160.261C669.38,191.92,600.136,121.277,512.227,119.443Z" fill="#d2f0ff"></path></g><g id="image_02-2" data-name="image_02" transform="translate(309.387 1691.441)"><g id="Group_200" data-name="Group 200"><g id="Group_187" data-name="Group 187"><path id="Path_531" data-name="Path 531" d="M561.409,470.2c2.671,2.691,25.592,24.743,35.8,21.839s5.051-14.1-6.593-26.163-24.025-15.22-26.977-14.7C547.844,453.974,553.907,462.639,561.409,470.2Z" fill="#00663e" fill-rule="evenodd"></path><path id="Path_532" data-name="Path 532" d="M601.07,399.878c-2.567-2.749-32.975-22.294-32.975-22.294s6.537-2.253,5.344-2.021c-12.516,2.418-44.25,12.626-43.036,28.38.182,2.381,27.794,51.346,36.013,52.544s42.74-15.326,44.847-18.33S601.07,399.878,601.07,399.878Z" fill="#3d1b07" fill-rule="evenodd"></path><path id="Path_533" data-name="Path 533" d="M561.006,387.327c7.7-27.316,55.88,8.8,56.657,8.152,1.1-.916-1.375-3.115-3.116-4.489-18.544-14.625-34.452-24.662-57.207-15.114-13.751,5.77-21.636,12-21.27,14.838s.586,5.6,1.5,5.511S561.006,387.327,561.006,387.327Z" fill="#d27133" fill-rule="evenodd"></path><path id="Path_534" data-name="Path 534" d="M598.812,484.079c-2.8-9.608-17.957-22.232-24.178-26.211a110.619,110.619,0,0,0-12.26-6.5c.56-.08.993-.145,1.265-.193,2.954-.522,15.333,2.64,26.977,14.7,10.844,11.23,16.061,21.714,8.483,25.449C599.688,489.72,599.791,487.434,598.812,484.079Z" fill="#e2cab6" fill-rule="evenodd"></path><path id="Path_535" data-name="Path 535" d="M572.36,462.83a1.341,1.341,0,0,0-1.6-2.152,42.336,42.336,0,0,0-3.389,4.687,22.239,22.239,0,0,0-1.954,3.73,19.575,19.575,0,0,0-1.263,5.159,1.337,1.337,0,0,0,2.67.131,16.66,16.66,0,0,1,1.1-4.36,19.579,19.579,0,0,1,1.719-3.241C570.946,464.7,572.287,462.885,572.36,462.83Z" fill="#f98300" fill-rule="evenodd"></path><path id="Path_536" data-name="Path 536" d="M568.421,477.449a1.339,1.339,0,0,0,2.589.687,26.167,26.167,0,0,1,2.643-6.471,38.085,38.085,0,0,1,4.17-5.734,1.337,1.337,0,0,0-2.027-1.744,40.419,40.419,0,0,0-4.455,6.142A28.942,28.942,0,0,0,568.421,477.449Z" fill="#f98300" fill-rule="evenodd"></path><path id="Path_537" data-name="Path 537" d="M573.341,480.72a1.339,1.339,0,1,0,2.668.235,21.222,21.222,0,0,1,2.462-5.547c1.26-2.223,2.642-4.286,3.379-4.8a1.336,1.336,0,1,0-1.536-2.186c-1.076.751-2.752,3.157-4.172,5.664C574.7,476.642,573.455,479.409,573.341,480.72Z" fill="#f98300" fill-rule="evenodd"></path><path id="Path_538" data-name="Path 538" d="M513.83,278.884c-24.462-26.361-35.991-76.836-4.036-104.614,20.543-17.86,33.967-19.58,47.464-7.512,74.834,9.126,42.525,75.441,65.675,94.585,6.3,5.21-22.718,21.889-32.069,25.552s-22.144,2.742-38.871-2.931S524.857,275.743,513.83,278.884Z" fill="#651906" fill-rule="evenodd"></path><path id="Path_539" data-name="Path 539" d="M500.467,510.365c.513-2.844,1.517-8.52,16.886-26.976s42.477-31.521,42.477-31.521l6.35,7.072s-39.729,72.68-46.74,75.6S500.467,510.365,500.467,510.365Z" fill="#351805" fill-rule="evenodd"></path><path id="Path_540" data-name="Path 540" d="M620.4,461.794c2.671,2.691,25.592,24.743,35.8,21.839s5.051-14.1-6.593-26.163-24.025-15.222-26.977-14.7C606.833,445.569,612.9,454.234,620.4,461.794Z" fill="#00663e" fill-rule="evenodd"></path><path id="Path_541" data-name="Path 541" d="M657.8,475.674c-2.8-9.608-17.957-22.232-24.178-26.211a110.614,110.614,0,0,0-12.26-6.5c.56-.079.993-.145,1.265-.193,2.954-.524,15.333,2.639,26.977,14.7,10.844,11.23,16.061,21.714,8.483,25.449C658.678,481.315,658.781,479.029,657.8,475.674Z" fill="#e2cab6" fill-rule="evenodd"></path><path id="Path_542" data-name="Path 542" d="M631.35,454.426a1.341,1.341,0,0,0-1.6-2.152,42.194,42.194,0,0,0-3.387,4.687,22.079,22.079,0,0,0-1.956,3.73,19.657,19.657,0,0,0-1.263,5.159,1.337,1.337,0,0,0,2.67.131,16.658,16.658,0,0,1,1.1-4.36,19.818,19.818,0,0,1,1.719-3.241C629.935,456.3,631.276,454.48,631.35,454.426Z" fill="#f98300" fill-rule="evenodd"></path><path id="Path_543" data-name="Path 543" d="M627.411,469.044a1.339,1.339,0,0,0,2.589.687,26.168,26.168,0,0,1,2.643-6.471,38.1,38.1,0,0,1,4.17-5.736,1.336,1.336,0,0,0-2.027-1.742,40.426,40.426,0,0,0-4.455,6.142A28.915,28.915,0,0,0,627.411,469.044Z" fill="#f98300" fill-rule="evenodd"></path><path id="Path_544" data-name="Path 544" d="M632.331,472.315a1.339,1.339,0,1,0,2.668.235A21.189,21.189,0,0,1,637.463,467c1.258-2.223,2.642-4.286,3.378-4.8a1.336,1.336,0,1,0-1.536-2.186c-1.076.75-2.752,3.157-4.172,5.664C633.686,468.237,632.446,471,632.331,472.315Z" fill="#f98300" fill-rule="evenodd"></path><path id="Path_545" data-name="Path 545" d="M554.726,509.181c.513-2.842,4.524-12.225,19.892-30.682s40.772-32.324,40.772-32.324c5.569-.985,9.522,10,5.009,15.619-11.941,14.871-37.828,65.413-43.695,67.859C569.693,532.578,554.726,509.181,554.726,509.181Z" fill="#45260c" fill-rule="evenodd"></path><path id="Path_546" data-name="Path 546" d="M481.582,402.01a140.664,140.664,0,0,0-1.04,34.784c1.92,17.936,11.178,75.17,28.019,93.6s14.035-9.615,14.837-38.061-9.022-75.521-9.022-75.521Z" fill="#45260c" fill-rule="evenodd"></path><path id="Path_547" data-name="Path 547" d="M506.356,401.385c.4,8.014,18.445,78.927,39.7,106.972s35.286,32.452,34.483,0-26.088-101.49-26.088-101.49Z" fill="#45260c" fill-rule="evenodd"></path><path id="Path_548" data-name="Path 548" d="M581.336,310.417l16,31.422,29.271-41.883a8.128,8.128,0,0,1-.028-1.368c-.8-4.618-1.736-12.585-1.647-13.389.122-1.1,3.538-13.413,4.583-11.708,2.2,3.6-.1,8.018.348,13.123.758-1.943,1.494-3.623,2.015-4.69,1.9-3.888,9.036-20.052,11.244-18.738s-5.491,19.676-4.942,19.856,15.571-21.934,18.787-19.986-13.982,22.869-13.21,23.375,15.139-17.317,17.546-14.965-13.74,19.076-12.232,19.056,14.6-12.227,16.4-9.661S651.1,295.433,651.1,295.433s-5.747,7.068-10.14,9.826c-4.324,2.716-4.2,2.156-4.2,2.138,0,0-30.254,56.243-37.954,58.808s-33.921-33.161-33.921-33.161l16.451-22.628Zm55.423-3.02h0Z" fill="#fbb98c" fill-rule="evenodd"></path><path id="Path_549" data-name="Path 549" d="M476.324,287.136l-31.489,15.907L446,251.218l-12.607.768s-8.841,63.238-4.143,69.854,46.974-6.736,46.974-6.736Z" fill="#fbb98c" fill-rule="evenodd"></path><path id="Path_550" data-name="Path 550" d="M438.387,251.682l-5,.3s-8.841,63.238-4.143,69.852,46.974-6.734,46.974-6.734l.02-5.368c-5.673,2.485-11.231,4.506-12.961,3.849-3.852-1.466-8.884-12-8.884-12s2.465,11.82-2.3,14.935-16.5,2.932-17.784.366,6.433-62.644,4.7-64.2A3.26,3.26,0,0,1,438.387,251.682Z" fill="#faad7b" fill-rule="evenodd"></path><path id="Path_551" data-name="Path 551" d="M592.293,329.269l-17.357,19.053-19.749-21.283c-.267-.285-27.024,20.9-17.92,56.742,1.736,6.834,11.975,12.6,16.429,20.988,9.453,17.807-62.141,30.753-73.154,32.025-2.21-4.015-4.568-25.529,1.3-37.235,15.456-30.856-4.454-65.274-2.8-80.08,0,0-21.129,4.539-20.76,1.948s-5.811-23.361-3.587-23.361c1.525,0,32.337-19.106,38.69-19.477,6.848-.4,14.573-.77,20.451.3,13.91,2.523,23.73,6.317,36.148,6.963,4.3,1.1,12.5,3.358,17.563,7.764C578.231,302.922,586.358,318.74,592.293,329.269Z" fill="#00b18f" fill-rule="evenodd"></path><path id="Path_552" data-name="Path 552" d="M513.83,278.884c1.235.209,3.635.235,4.82.455,7.429,1.385,12.948,3.174,22.268,4.579,3.03.457,5.968,1.709,9.06,1.929a8.721,8.721,0,0,1,.278,2.18c0,7.412-9.416,13.422-21.031,13.422s-21.031-6.01-21.031-13.422C508.194,284.494,510.334,281.281,513.83,278.884Z" fill="#f9a873" fill-rule="evenodd"></path><path id="Path_553" data-name="Path 553" d="M545.253,265.718c-.926,2.962-5.188,24.994-5.188,24.994s-10.746,4.813-17.046.926-6.855-6.48-6.855-6.48l9.263-21.661Z" fill="#f9a873" fill-rule="evenodd"></path><path id="Path_554" data-name="Path 554" d="M553.745,173.061c-25.1-5.4-44.585,15.008-50.765,43.667s3.29,54.713,28.388,60.115,45.592-14.2,51.773-42.86S578.843,178.463,553.745,173.061Z" fill="#fbb98c" fill-rule="evenodd"></path><path id="Path_555" data-name="Path 555" d="M560.134,221.661c-2.327,0-4.706,3.135-5.318,7s.78,7,3.106,7,4.706-3.135,5.318-7S562.459,221.661,560.134,221.661Z" fill="#4d0c01" fill-rule="evenodd"></path><path id="Path_556" data-name="Path 556" d="M521.213,209.663c-2.325,0-4.706,3.133-5.318,7s.781,7,3.108,7,4.706-3.135,5.316-7S523.539,209.663,521.213,209.663Z" fill="#4d0c01" fill-rule="evenodd"></path><path id="Path_557" data-name="Path 557" d="M541.149,226.331c0,1.13-11.453,8.335-11.453,8.335-2.066,3.381,8.516,10.142,11.17,6.921a10.9,10.9,0,0,1-8.978-6.392C534.136,233.8,541.366,229.318,541.149,226.331Z" fill="#f79961" fill-rule="evenodd"></path><path id="Path_558" data-name="Path 558" d="M585.59,228.762c-4.661,0-9.3,4.994-10.352,11.153s1.867,11.153,6.528,11.153,9.3-4.994,10.353-11.153S590.252,228.762,585.59,228.762Z" fill="#fbb98c" fill-rule="evenodd"></path><path id="Path_559" data-name="Path 559" d="M500.749,206.672c-4.661,0-8.735,4.992-9.1,11.153s3.12,11.153,7.782,11.153,8.735-4.994,9.1-11.153S505.412,206.672,500.749,206.672Z" fill="#fbb98c" fill-rule="evenodd"></path><path id="Path_560" data-name="Path 560" d="M554.644,217.557c6.522-2.756,15.966-.662,17.162,7.428.6,4.036,2.1,2.11,1.987-.441-.415-9.357-14.314-14.525-19.615-10.25C553,215.242,553.944,217.56,554.644,217.557Z" fill="#651906" fill-rule="evenodd"></path><path id="Path_561" data-name="Path 561" d="M584.708,232.609c6.221,0,6.032,11.234-.858,14.217-3.68,1.594-4.232-1.655-3.557-2.7s2.392-.552,3.557-2.82-.7-1.649-.981-4.166A6.133,6.133,0,0,1,584.708,232.609Z" fill="#f39157" fill-rule="evenodd"></path><path id="Path_562" data-name="Path 562" d="M502.739,210.414c-5.257-3.324-11.108,6.272-6.882,12.473,2.257,3.313,4.462.863,4.449-.377s-1.726-1.745-1.5-4.283,1.477-1.017,3.058-3A6.137,6.137,0,0,0,502.739,210.414Z" fill="#f39157" fill-rule="evenodd"></path><path id="Path_563" data-name="Path 563" d="M543.632,272.865c14.445-1.025,26.656-10.237,34.467-24.165.064.062.128.123.193.182-7.359,16.334-20.169,27.439-35.635,28.731a38.278,38.278,0,0,1-11.289-.77,37.751,37.751,0,0,1-10.077-3.676c-14.565-7.889-21.234-24.868-20-44.457.117-.034.231-.07.346-.111.031,17.98,7.2,33.195,21.492,40.258a39.413,39.413,0,0,0,9.374,3.205A40.129,40.129,0,0,0,543.632,272.865Z" fill="#faad79" fill-rule="evenodd"></path><path id="Path_564" data-name="Path 564" d="M521.754,243.369a16.246,16.246,0,0,0-1.046,2.379,15.264,15.264,0,0,0,9.244,19.611,15.5,15.5,0,0,0,19.464-9.858,15.863,15.863,0,0,0,.65-2.515Z" fill="#891207" fill-rule="evenodd"></path><path id="Path_565" data-name="Path 565" d="M547.384,252.075l-.914,2.548a1.98,1.98,0,0,1-2.526,1.19l-19.908-7.136a1.975,1.975,0,0,1-1.191-2.523l.772-2.152Z" fill="#fff" fill-rule="evenodd"></path><path id="Path_566" data-name="Path 566" d="M532.9,305.8a22.829,22.829,0,0,0-16.485,7.038,22.839,22.839,0,0,0-16.9-7.479,23.36,23.36,0,0,0,0,46.715A22.82,22.82,0,0,0,516,345.033a22.84,22.84,0,0,0,16.9,7.482,23.36,23.36,0,0,0,0-46.717Z" fill="#00b18f" fill-rule="evenodd"></path><path id="Path_567" data-name="Path 567" d="M546.495,170.745c1.4,22.313,19.479,50.593,43.64,55.391,19.027,3.777-9.444-40.361-13.935-44.582C564.845,170.886,546.495,170.745,546.495,170.745Z" fill="#651906" fill-rule="evenodd"></path><path id="Path_568" data-name="Path 568" d="M556.821,173.315c-4.377,4.924-5.661,12.618-25.463,17.381s-29.7,13.007-29.7,13.007.883-16.513,18.335-27.481S556.821,173.315,556.821,173.315Z" fill="#651906" fill-rule="evenodd"></path><path id="Path_569" data-name="Path 569" d="M515.767,190.643c-1.084,1.084-7.981,9.215-10.383,17.344s-3.719,20.519-3.875,19.667-2.015-15.951.7-23.383a98.872,98.872,0,0,1,4.418-10.684Z" fill="#651906" fill-rule="evenodd"></path><path id="Path_570" data-name="Path 570" d="M580.67,207.407c.349,1.493,1.918,12.035-.334,20.208s-7.671,19.393-7.091,18.751S583.379,233.877,585,226.132a98.581,98.581,0,0,0,1.889-11.4Z" fill="#651906" fill-rule="evenodd"></path><path id="Path_571" data-name="Path 571" d="M532.84,210.911c-3.234-6.293-11.825-10.739-17.935-5.3-3.047,2.714-2.966.273-1.241-1.613,6.324-6.914,20.307-1.971,21.63,4.706C535.586,210.187,533.375,211.362,532.84,210.911Z" fill="#651906" fill-rule="evenodd"></path><path id="Path_572" data-name="Path 572" d="M434.192,253.307c1.594.3,8.349,2.28,12.158.438s8.143-15.561,9.232-20.228,6.272-23.589,3.4-23.816-9.118,21.007-9.726,20.82,1.865-29.41-2.339-29.711-3.922,29.234-4.959,29.2-1.026-25.019-4.806-24.449-1.447,25.7-2.757,24.728-4.156-20.141-7.557-19,2.3,22.09,2.3,22.09.041,9.938,1.945,15.18S434.192,253.307,434.192,253.307Z" fill="#fbb98c" fill-rule="evenodd"></path><path id="Path_573" data-name="Path 573" d="M432.983,232.765s-1.58,2.727.828,9.6a46.366,46.366,0,0,0,3.579,7.708,42.694,42.694,0,0,0,2.829,4.35,51.678,51.678,0,0,1-6.027-1.111s-.536.218-1.458-1.183a17.58,17.58,0,0,1-1.656-3.568c-1.9-5.242-1.945-15.18-1.945-15.18s-5.7-20.946-2.3-22.09a.89.89,0,0,1,.363-.047c-.05,2.786.039,8.137,1.235,12.057A35.236,35.236,0,0,0,432.983,232.765Z" fill="#fbb98c" fill-rule="evenodd"></path><rect id="Rectangle_68" data-name="Rectangle 68" width="102.622" height="71.455" transform="matrix(0.988, -0.157, 0.157, 0.988, 389.661, 175.531)" fill="#0072a3"></rect><rect id="Rectangle_69" data-name="Rectangle 69" width="6.7" height="43.447" transform="matrix(0.991, -0.137, 0.137, 0.991, 474.151, 175.014)" fill="#fff"></rect><path id="Path_574" data-name="Path 574" d="M443.817,254.431c.664-.642,2.127.023,3.688-1.577,4.123-4.219,9.864-12.361,10.367-13.065.694-.972,6.394-14.192,4.27-13.335-5.606,2.262-5.943,10.136-13.26,14.394C440.69,245.613,438.076,252.941,443.817,254.431Z" fill="#fbb98c" fill-rule="evenodd"></path><path id="Path_575" data-name="Path 575" d="M437.39,250.068a46.492,46.492,0,0,1-3.579-7.708c-.175-.5-.327-.972-.462-1.426l-3.716.591a33,33,0,0,0,1.444,7.032,13.2,13.2,0,0,0,2.135,4.2c.446.5,5.984,2.105,6.041,1.55C439.4,252.943,437.39,250.068,437.39,250.068Z" fill="#faad7b" fill-rule="evenodd"></path><path id="Path_576" data-name="Path 576" d="M568.095,377.768c2.544-.34,4.677-6.538,25.686,3.97s42.3,32.81,40.6,36.732c0,0-13.084,16.926-25.337,20.686-6.023,1.848-39.935-37.128-43.788-46.595S568.095,377.768,568.095,377.768Z" fill="#a14616" fill-rule="evenodd"></path><path id="Path_577" data-name="Path 577" d="M568.095,377.766c2.544-.338,4.677-6.536,25.686,3.972s42.3,32.81,40.6,36.732a97.956,97.956,0,0,1-9.361,10.168,51.549,51.549,0,0,1,1.627-9.162c2.2-7.876-23.871-32.573-39.054-34.808-13.655-2.008-19.183,6.229-21.382,9.8a17.584,17.584,0,0,1-.954-1.912C561.406,383.094,568.095,377.766,568.095,377.766Z" fill="#9b3f13" fill-rule="evenodd"></path><path id="Path_578" data-name="Path 578" d="M491.243,279.073s5.407,47.444,23.008,77.122c11.715,19.751,50.452,22.9,66.037,42.79,0,0,12.253-6.482,10.345-8.738-26.6-31.479-76.568-13.928-85.733-96.341-1.1-9.893-.231-11.493.131-15.716C500.169,275.89,495.617,276.488,491.243,279.073Z" fill="#763915" fill-rule="evenodd"></path><path id="Path_579" data-name="Path 579" d="M554.407,389.9c4.1,14.212,19.978,35.733,26.768,49.822a93.279,93.279,0,0,1,4.706,11.4c-3.507,1.426-6.951,2.7-10.007,3.66a40.753,40.753,0,0,0-6.742-2.772c-7.024-24.221-14.685-45.141-14.685-45.141a7.318,7.318,0,0,0-.752-2.1c-2.222-4.187-5.884-7.717-9.21-11.055C547.622,392.52,551.312,391.1,554.407,389.9Z" fill="#2e1002" fill-rule="evenodd"></path><path id="Path_580" data-name="Path 580" d="M554.407,389.9c-3.1,1.2-6.785,2.624-9.921,3.817a57.826,57.826,0,0,1-4.5-4.894,19.882,19.882,0,0,1-1.45-2.091,51.857,51.857,0,0,1,11.354-7.406q1.89.834,3.771,1.683c-.033.206-.061.411-.086.62a18.719,18.719,0,0,0,.282,6.064C554,388.4,554.189,389.139,554.407,389.9Z" fill="#cb6224" fill-rule="evenodd"></path><path id="Path_581" data-name="Path 581" d="M550.251,415.271a45.6,45.6,0,0,1-10.458,6.169,159.04,159.04,0,0,1-23.036,7.87q-1.794.486-3.585.944a301.326,301.326,0,0,1-32.63,6.54,19.307,19.307,0,0,1-1.447-5.22c-1.411-8.177-1.77-23,2.745-32.015,9.129-18.226,5.921-37.693,2.1-53.628,4.1,3.814,12.572,6.142,15.574,6.142,1.907,0-.822,25.825-.839,48.374-.011,12.623-13.3,30.289-8.276,31.3C504.218,434.52,542.746,415.807,550.251,415.271Z" fill="#009974" fill-rule="evenodd"></path><path id="Path_582" data-name="Path 582" d="M482.53,337.677c3.484,9.16,16.987,14.4,16.987,14.4a22.8,22.8,0,0,1-15.574-6.142,23.519,23.519,0,0,1,3.467-37.093c-1.932,3.31-4.2,7.132-5.43,9.329C479.413,322.745,479.046,328.516,482.53,337.677Z" fill="#009974" fill-rule="evenodd"></path><path id="Path_583" data-name="Path 583" d="M478.278,319.638c-3.771.781-20.329,4.085-20,1.789a5.638,5.638,0,0,0-.078-1.342c-.463-3.334-2.508-11.139-3.479-16.5-.161-1.218-.324-2-.324-2s5.032,10.538,8.884,12c1.729.658,7.287-1.363,12.961-3.847,6.957-3.048,14.087-6.792,14.542-7.144.429-.333-1.276,2.654-3.372,6.244A23.37,23.37,0,0,0,478.278,319.638Z" fill="#009974" fill-rule="evenodd"></path><path id="Path_584" data-name="Path 584" d="M636.761,307.4S606.508,363.64,598.807,366.2c-4.365,1.454-14.678-9.393-22.8-19.062l10.949-12.018c-1.062,2.876-3.306,9.053-3.306,9.893,0,1.1,8.8,13.1,13.935,13.466s33.553-48.549,34.012-49.418-1.65-6.275-1.926-6.688,3.942,2.29,6.325,2.886,8.572-6.275,9.993-8.015,1.054-5.633,1.054-5.633l2.751,2.152,15.676-12.906c1.8,2.566-14.374,14.573-14.374,14.573s-5.747,7.068-10.14,9.826C636.636,307.975,636.756,307.416,636.761,307.4Z" fill="#faad7b" fill-rule="evenodd"></path><path id="Path_585" data-name="Path 585" d="M547.646,340.276c1.715-2.267,2.979-6,3.9-10.1a103.117,103.117,0,0,0,1.836-11.727c.53-5.1.655-8.97.655-8.97s7.208,11.329,13.421,20.027c3.317,4.645,6.349,8.54,7.849,9.561,4.309,2.931,12.193-5.405,12.193-5.405s-.215.575-.544,1.466l-10.949,12.018-1.074,1.18-19.029-20.505q.037.664.037,1.34a23.3,23.3,0,0,1-17.756,22.74,54.084,54.084,0,0,0-1.7,6.3,64.031,64.031,0,0,1-7.6-6.036c-9.308-8.657-17.065-21.395-21.483-42.371,1.843,4.668,4.137,10.164,6.573,14.891,5.712,11.08,16.045,24.183,16.87,24.823.526.41,4.911-.421,9.482-3.006A23.818,23.818,0,0,0,547.646,340.276Z" fill="#009974" fill-rule="evenodd"></path><path id="Path_586" data-name="Path 586" d="M501.671,326.924a161.1,161.1,0,0,0,8.828,22.328c1.184,2.4,2.434,4.72,3.752,6.943,4.287,7.227,12.19,12.23,21.252,16.644a60.675,60.675,0,0,0,1.764,10.941,11.165,11.165,0,0,0,1.266,2.948,19.882,19.882,0,0,0,1.45,2.091,57.826,57.826,0,0,0,4.5,4.894c3.326,3.338,6.988,6.87,9.21,11.055a7.318,7.318,0,0,1,.752,2.1,6.989,6.989,0,0,1-1.324,5.327c-1.633-1.79-3.54-3.888-5.555-6.111-2.98-3.291-6.194-6.862-9.1-10.136q-1.041-1.171-2.018-2.284-.5-.57-.95-1.133c-7.418-9.307-3.47-16.1-3.47-16.1s-12.1-6.778-17.694-14.93c-1.475-2.149-3.3-6.429-5.188-11.568C506.524,342.784,503.772,333.97,501.671,326.924Z" fill="#009974" fill-rule="evenodd"></path><g id="Group_174" data-name="Group 174"><path id="Path_587" data-name="Path 587" d="M555.189,178.341c4.214,17.783,13.134,33.234,27.5,44.7C566.064,215.337,555.092,196.481,555.189,178.341Z" fill="#7e290f" fill-rule="evenodd"></path></g><g id="Group_175" data-name="Group 175"><path id="Path_588" data-name="Path 588" d="M564.539,175.593c1.745,18.181,14.105,32.97,29.154,42.5C577.258,212.442,561.19,193.981,564.539,175.593Z" fill="#5a1404" fill-rule="evenodd"></path></g><g id="Group_176" data-name="Group 176"><path id="Path_589" data-name="Path 589" d="M574.074,181.456c4.416,4.579,28.917,28.43,25.67,34.625a1.119,1.119,0,0,1-.282-.584l.019.083C590.518,202.209,582.738,195.185,574.074,181.456Z" fill="#5a1404" fill-rule="evenodd"></path></g><g id="Group_177" data-name="Group 177"><path id="Path_590" data-name="Path 590" d="M596.443,223.409c2.548,8.051,10.372,30.7,15.769,38.106C602.157,257.623,597.046,231.543,596.443,223.409Z" fill="#5a1404" fill-rule="evenodd"></path></g><g id="Group_178" data-name="Group 178"><path id="Path_591" data-name="Path 591" d="M590.943,253.454c4.12,6.354,8.331,11.876,13.018,17.953C598.921,268.639,587.672,256.822,590.943,253.454Z" fill="#7e290f" fill-rule="evenodd"></path></g><g id="Group_179" data-name="Group 179"><path id="Path_592" data-name="Path 592" d="M577.375,259.133c3.289,5.96,8.2,14.351,14.118,17.769C587.611,279.607,576.712,267.843,577.375,259.133Z" fill="#5a1404" fill-rule="evenodd"></path></g><g id="Group_180" data-name="Group 180"><path id="Path_593" data-name="Path 593" d="M565.823,275.988c-.939-.519-1.095-2.336,7.863,4.674a52.394,52.394,0,0,0,7.54,4.852c-6.347.566-13.3-4.283-15.383-9.562l-.02.036Zm.1-.185a.188.188,0,0,0,.145-.195l-.017,0A1.375,1.375,0,0,0,565.927,275.8Z" fill="#5a1404" fill-rule="evenodd"></path></g><g id="Group_181" data-name="Group 181"><path id="Path_594" data-name="Path 594" d="M551.521,280.2c6.62,2.626,12.242,3.779,19.069,6.046C563.055,287.009,556.14,287,551.521,280.2Z" fill="#7e290f" fill-rule="evenodd"></path></g><g id="Group_182" data-name="Group 182"><path id="Path_595" data-name="Path 595" d="M568.39,269.208c7.117,3.369,10.194,6.306,16.5,9.893C577.594,280.061,572.574,274.37,568.39,269.208Z" fill="#7e290f" fill-rule="evenodd"></path></g><g id="Group_183" data-name="Group 183"><path id="Path_596" data-name="Path 596" d="M551.521,169.913c-4.817,15.913-21.544,17.71-35.111,19.145C532.539,183.307,540.272,184.057,551.521,169.913Z" fill="#7e290f" fill-rule="evenodd"></path></g><g id="Group_184" data-name="Group 184"><path id="Path_597" data-name="Path 597" d="M540.154,169c-9.94,6.175-33.931,18.123-39.372,29.377.008.02.017.051.042.118-.1.025-.26.089-.326-.041C495.581,188.765,537.765,170,540.154,169Z" fill="#5a1404" fill-rule="evenodd"></path></g><g id="Group_185" data-name="Group 185"><path id="Path_598" data-name="Path 598" d="M536.486,163.319c-15.576,10.315-7.651,5.411-23.772,14.717l.041-.036a2.328,2.328,0,0,1-1.112.524C514.109,170.509,530.237,165.783,536.486,163.319Z" fill="#7e290f" fill-rule="evenodd"></path></g><g id="Group_186" data-name="Group 186"><path id="Path_599" data-name="Path 599" d="M548.954,168.265c-12.271,10-5.641,6.231-19.71,11.633C541.238,171.049,534.71,175,548.954,168.265Z" fill="#5a1404" fill-rule="evenodd"></path></g></g><path id="Path_600" data-name="Path 600" d="M241.225,326.942c-.864,1.48-2.593,11.722-2.1,15.176s6.238,23.2,6.238,23.2a14.4,14.4,0,0,0,3.241,1.635c2.068.773,17.938-18.138,16.828-24.309S241.225,326.942,241.225,326.942Z" fill="#583b1b" fill-rule="evenodd"></path><path id="Path_601" data-name="Path 601" d="M241.374,338.144c-1.938,2.987,2.291,21.6,3.991,27.174.27.883-25.181-45.283.243-67.222,4.454-3.842,17.028-5.723,26.927-6.575,9.271-.8,39.813-1.049,40.863-.556C313.588,291.055,255.159,316.885,241.374,338.144Z" fill="#846251" fill-rule="evenodd"></path><path id="Path_602" data-name="Path 602" d="M265.126,307.074c-9.138,4.936-14.573,11.845-18.525,25.42s4.2,8.144-.248,31.344-1.235,47.383,9.138,57.748,65.95,8.886,79.782-5.923S326.316,313.707,312.022,305.7,265.126,307.074,265.126,307.074Z" fill="#503825" fill-rule="evenodd"></path><path id="Path_603" data-name="Path 603" d="M276.117,301.4c-9.138,4.936-14.573,11.847-18.525,25.42s4.2,8.144-.248,31.344-3.705,48.125,6.668,58.49,59.8,9.726,73.633-5.081-.34-103.538-14.632-111.545S276.117,301.4,276.117,301.4Z" fill="#392515" fill-rule="evenodd"></path><path id="Path_604" data-name="Path 604" d="M242.657,299.815c-17.895-1.351-10.965,1.165-37.1-6.694,1.045.793-27.623-17.087-47.593-55.112l-10.074,8.76c17.914,33.4,35.9,54.238,60.331,68.284,7.629,4.385,15.027,4.509,22.873,7.393Z" fill="#f9a873" fill-rule="evenodd"></path><path id="Path_605" data-name="Path 605" d="M348.111,571.865c-1.358,1.48-7.657,7.4-7.657,7.4l-6.793,8.144s7.163,13.821,12.1,20.485,22.6,12.956,24.824,6.17-11.362-15.549-13.338-21.965a38.032,38.032,0,0,1-1.6-12.217Z" fill="#240901" fill-rule="evenodd"></path><path id="Path_606" data-name="Path 606" d="M218.8,581s-10.127,12.587-10.622,16.041-5.31,32.33-14.448,35.786-11.487-7.651-9.511-22.953,9.386-24.432,11.857-25.666,20.008-11.353,20.008-11.353Z" fill="#240901" fill-rule="evenodd"></path><path id="Path_607" data-name="Path 607" d="M282.545,425.467c-4.866,12.311-26.491,93.57-26.491,93.57l-53.111,60.04s3.722,18.238,9.692,13.02c3.172-2.773,57.918-45.708,70.313-56.911,7.239-6.544,30.857-59.219,32.429-59.392,3.358-.372,55.3,32.69,55.3,32.69s-28.2,65.14-28.554,68.459,7.2,7.959,13.542,6.094,51.118-70.337,48.88-76.3-57.458-81.269-57.458-81.269Z" fill="#45260c" fill-rule="evenodd"></path><path id="Path_608" data-name="Path 608" d="M343.294,326.188c9.4,4.321,9.48,6.466,28.906,8.953-.954-.725,30.918,23.562,60.9,37.547l4.469-7.562c-19.241-15.656-41.94-35.995-57.276-45.525-11-6.832-17-6.753-28.1-10.834Z" fill="#f9a873" fill-rule="evenodd"></path><path id="Path_609" data-name="Path 609" d="M429.663,366.674l3.436,6.014s7.183,24.463,8.313,23,0-15.127,0-15.127,14.235,7.675,16.945,10.271,9.265,8.693,8.7,6.661-8.585-12.531-8.585-12.531,5.874,5.023,6.553,5.813,4.463,4.741,4.632,2.2c.214-3.211-16.747-20.561-20.523-22.043-3.164-1.242-11.565-5.8-11.565-5.8Z" fill="#f9a873" fill-rule="evenodd"></path><path id="Path_610" data-name="Path 610" d="M441.41,378.919c2.826,2.708,11.016,9.311,11.128,9.707s5.254,13.037,5.818,11.119-1.977-12.079-2.2-12.417-9.321-8.749-9.773-8.805S441.41,378.919,441.41,378.919Z" fill="#f9a873" fill-rule="evenodd"></path><path id="Path_611" data-name="Path 611" d="M448.659,373.5a5.086,5.086,0,0,0,3.412.7l16.039,13.425s.678.8-1.606.678-16.8-11.907-16.8-11.907Z" fill="#f9a873" fill-rule="evenodd"></path><path id="Path_612" data-name="Path 612" d="M372.2,335.141c-.954-.725,30.918,23.562,60.9,37.547l-2.791-4.888-52.044-35.954,1.549-12.492C379.551,321.36,375.356,329,372.2,335.141Z" fill="#f59a60" fill-rule="evenodd"></path><path id="Path_613" data-name="Path 613" d="M430.307,367.8l2.791,4.888s6.42,21.866,8.076,23.012l.237-.017-5.759-24.556-1.193-.742Z" fill="#f9a873" fill-rule="evenodd"></path><path id="Path_614" data-name="Path 614" d="M212.063,295.064l-4.934,35.605,53.008,9.464s6.3,86.238,6.345,108.156c.031,13.639,74.644,4.165,95.431-10.7l-22.486-102s29.143,12.073,28.771,9.463,14.138-26.613,11.9-26.613c-1.536,0-44.537-26.839-50.934-27.212-6.894-.4-14.671-.776-20.59.3-14.006,2.541-24.367,8.751-36.395,7.012C263.594,296.256,238.038,297.334,212.063,295.064Z" fill="#f98300" fill-rule="evenodd"></path><path id="Path_615" data-name="Path 615" d="M352.8,396.246l-13.372-60.654s29.143,12.073,28.771,9.463c-.34-2.378,11.682-22.525,12.12-26.076l-14.784,14.405L342.316,317.96l-11.283-21.588-15.206-5.516q-1.083.03-2.135.092l18.352,58.621s11.209,30.317,11.227,31.808C343.28,382.065,347.865,389.06,352.8,396.246Z" fill="#f27900" fill-rule="evenodd"></path><path id="Path_616" data-name="Path 616" d="M308.574,291.527c-1.244.209-3.66.235-4.853.458-7.481,1.393-13.037,3.194-22.419,4.609-2.592.391-6.177,1.734-9.123,1.943a8.831,8.831,0,0,0-.279,2.194c0,7.464,9.48,13.514,21.174,13.514s21.173-6.05,21.173-13.514C314.247,297.174,312.094,293.939,308.574,291.527Z" fill="#f9a873" fill-rule="evenodd"></path><path id="Path_617" data-name="Path 617" d="M276.937,278.27c.933,2.982,5.223,25.163,5.223,25.163s10.821,4.847,17.163.933,6.9-6.524,6.9-6.524L296.9,276.034Z" fill="#f9a873" fill-rule="evenodd"></path><path id="Path_618" data-name="Path 618" d="M240.963,254.331c-3.3-5.039-5.444-7.565-12.922-25.462s5.566-27.8,5.566-27.8a35.975,35.975,0,0,1,5.043-19.98c5.912-9.383,8.521-11.815,8-9.905s.173,4.344.522,2.954,11.3-11.468,11.3-11.468,1.131,5.039,1.739,4.431,1.913-3.214,17.737-7.646,28.867-5.039,27.824-4.257-5.913,5.212-4.869,4.865,13.737,0,19.389-.955,8.26-2.172,7.044-1.564-5.739,12.076-8.61,15.117-2.955,2.954-2.955,2.954,1.218-1.13,10.522,2.867,12.348,8.079,11.825,7.732-16.954,1.652-16.954,1.652,5.129,18.938,4.26,24.5-4.519,23.327-5.648,23.59Z" fill="#651906" fill-rule="evenodd"></path><path id="Path_619" data-name="Path 619" d="M268.387,184.984c25.268-5.44,44.889,15.109,51.111,43.963s-3.312,55.085-28.58,60.525-45.9-14.3-52.125-43.151S243.119,190.423,268.387,184.984Z" fill="#fbb98c" fill-rule="evenodd"></path><path id="Path_620" data-name="Path 620" d="M237.149,226.735c.775-14.227,6.094-26.666,15.654-34.4,9.617.62,39.492,6.05,39.492,6.05s8.769,6.664,9.51,6.664-1.112,1.111-8.4,1.974-28.159-1.728-28.9-1.974,9.017,10,9.017,10-3.088.863-13.709-1.974c-5.157-1.379-9.878-4.561-13.4-7.57-1.578,2.982-3.479,6.778-5.251,10.161A53.346,53.346,0,0,0,237.149,226.735Z" fill="#f99d63" fill-rule="evenodd"></path><path id="Path_621" data-name="Path 621" d="M238.886,193.981c4.669,4.291,10.782,10.077,26.258,12.683s18.085,1.39,18.085,1.39-8.346-7.124-6.085-6.429,13.737,1.564,22.258,1.737,8-.347,8-.347-9.737-5.907-7.651-5.907,16-1.564,16-1.564-8.869-18.592-26.606-20.328S238.886,193.981,238.886,193.981Z" fill="#651906" fill-rule="evenodd"></path><path id="Path_622" data-name="Path 622" d="M258.457,232.084c2.342,0,4.739,3.157,5.354,7.049s-.786,7.049-3.128,7.049-4.738-3.157-5.352-7.049S256.115,232.084,258.457,232.084Z" fill="#4d0c01" fill-rule="evenodd"></path><path id="Path_623" data-name="Path 623" d="M298.628,222.18c2.342,0,4.739,3.155,5.354,7.049s-.786,7.049-3.127,7.049-4.739-3.157-5.354-7.049S296.285,222.18,298.628,222.18Z" fill="#4d0c01" fill-rule="evenodd"></path><path id="Path_624" data-name="Path 624" d="M277.756,236.662c0,1.39,14.087,10.251,14.087,10.251,2.542,4.159-10.473,12.475-13.739,8.514,4.6-.418,9.346-3.487,11.043-7.862C286.381,245.844,277.491,240.336,277.756,236.662Z" fill="#f79961" fill-rule="evenodd"></path><path id="Path_625" data-name="Path 625" d="M149.1,246.769c1.531-.676,8.448-2.942,10.611-6.737s-2.179-18.017-3.984-22.629-8.477-23.76-11.055-22.275,4.54,23.227,3.911,23.424-15.638-26.143-19.4-23.941,13.786,27.2,12.878,27.769-15.531-20.713-18.416-18.015,13.823,22.74,12.137,22.676-15.339-14.726-17.567-11.762,14.9,17.475,14.9,17.475,5.856,8.441,10.548,11.791S149.1,246.769,149.1,246.769Z" fill="#f9a873" fill-rule="evenodd"></path><path id="Path_626" data-name="Path 626" d="M136.04,229.979s.253,3.246,6.328,7.688a48.045,48.045,0,0,0,7.562,4.473,44.5,44.5,0,0,0,4.959,2.051,53.92,53.92,0,0,1-5.784,2.579s-.331.5-1.935-.156a18.03,18.03,0,0,1-3.5-2.071c-4.692-3.35-10.548-11.791-10.548-11.791s-17.124-14.51-14.9-17.475a.969.969,0,0,1,.284-.252c1.589,2.4,4.8,6.909,8.114,9.548A36.5,36.5,0,0,0,136.04,229.979Z" fill="#f9a873" fill-rule="evenodd"></path><rect id="Rectangle_70" data-name="Rectangle 70" width="106.02" height="73.876" transform="matrix(0.725, -0.689, 0.689, 0.725, 65.613, 206.563)" fill="#f98419"></rect><rect id="Rectangle_71" data-name="Rectangle 71" width="6.922" height="44.919" transform="matrix(0.739, -0.674, 0.674, 0.738, 137.278, 156.711)" fill="#fff"></rect><path id="Path_627" data-name="Path 627" d="M157.959,242.1c.192-.933,1.826-1.223,2.219-3.5,1.039-6.007,1.16-16.3,1.176-17.193.023-1.234-2.868-15.828-4.175-13.855-3.448,5.206.876,12.11-2.862,20.014C150.131,236.415,152.2,244.184,157.959,242.1Z" fill="#f9a873" fill-rule="evenodd"></path><path id="Path_628" data-name="Path 628" d="M235.772,240.417c4.692,0,9.36,5.028,10.422,11.23s-1.879,11.23-6.572,11.23-9.36-5.028-10.423-11.23S231.078,240.417,235.772,240.417Z" fill="#fbb98c" fill-rule="evenodd"></path><path id="Path_629" data-name="Path 629" d="M321.743,218.822c4.692,0,8.794,5.028,9.16,11.23s-3.141,11.23-7.833,11.23-8.8-5.028-9.162-11.23S317.05,218.822,321.743,218.822Z" fill="#fbb98c" fill-rule="evenodd"></path><path id="Path_630" data-name="Path 630" d="M188.174,627.822c-3.211-8.638,1.049-26.284,3.457-32.64a102.268,102.268,0,0,1,5.489-11.529c-.457.249-.812.438-1.04.552-2.47,1.234-9.881,10.365-11.857,25.666-1.84,14.251.069,24.86,7.721,23.461C190.629,632.47,189.3,630.838,188.174,627.822Z" fill="#e2cab6" fill-rule="evenodd"></path><path id="Path_631" data-name="Path 631" d="M196.042,597.6a1.234,1.234,0,1,1,0-2.468,39.1,39.1,0,0,1,5.079,1.6,20.536,20.536,0,0,1,3.495,1.683,18.072,18.072,0,0,1,3.769,3.121,1.23,1.23,0,0,1-1.9,1.561,15.465,15.465,0,0,0-3.209-2.619,18.219,18.219,0,0,0-3.05-1.451C198.116,598.211,196.124,597.6,196.042,597.6Z" fill="#f98300" fill-rule="evenodd"></path><path id="Path_632" data-name="Path 632" d="M206.987,606.244a1.232,1.232,0,1,1-1.535,1.927,24.134,24.134,0,0,0-5.511-3.331,34.971,34.971,0,0,0-6.235-1.949,1.23,1.23,0,1,1,.541-2.4,37.247,37.247,0,0,1,6.668,2.093A26.557,26.557,0,0,1,206.987,606.244Z" fill="#f98300" fill-rule="evenodd"></path><path id="Path_633" data-name="Path 633" d="M205.15,611.361A1.233,1.233,0,0,1,203.307,613a19.434,19.434,0,0,0-4.869-2.749,18.189,18.189,0,0,0-5.135-1.694,1.23,1.23,0,1,1-.069-2.459c1.209-.036,3.771.823,6.2,1.9C201.907,609.091,204.344,610.454,205.15,611.361Z" fill="#f98300" fill-rule="evenodd"></path><path id="Path_634" data-name="Path 634" d="M352.044,592.241a.82.82,0,1,1-.906-1.368c.168-.112.332-.21.488-.294l.048-.025a7.21,7.21,0,0,1,3.754-.82,3.973,3.973,0,0,1,3.155,1.569c.053.079.1.151.131.214a.823.823,0,1,1-1.447.784l-.053-.09a2.4,2.4,0,0,0-1.889-.838,5.545,5.545,0,0,0-2.874.63l-.041.022C352.275,592.1,352.153,592.17,352.044,592.241Z" fill="#f98300" fill-rule="evenodd"></path><path id="Path_635" data-name="Path 635" d="M364.811,613.041c-16.259-2.51-22.511-18.2-28.856-28.38l-2.294,2.752s7.163,13.821,12.1,20.485,22.6,12.956,24.824,6.17a5,5,0,0,0,.245-1.606A13.344,13.344,0,0,1,364.811,613.041Z" fill="#e2cab6" fill-rule="evenodd"></path><path id="Path_636" data-name="Path 636" d="M354.946,597.424a.82.82,0,1,1-.906-1.368c.168-.112.332-.21.488-.294l.048-.025a7.21,7.21,0,0,1,3.754-.82,3.976,3.976,0,0,1,3.155,1.569c.053.079.1.151.131.213a.823.823,0,0,1-1.447.785l-.053-.092a2.4,2.4,0,0,0-1.888-.837,5.544,5.544,0,0,0-2.874.628l-.041.023C355.177,597.28,355.055,597.354,354.946,597.424Z" fill="#f98300" fill-rule="evenodd"></path><path id="Path_637" data-name="Path 637" d="M358.714,602.174a.821.821,0,1,1-.908-1.368c.17-.112.334-.21.49-.294l.048-.025a7.22,7.22,0,0,1,3.752-.82,3.981,3.981,0,0,1,3.156,1.569,2.226,2.226,0,0,1,.129.215.822.822,0,1,1-1.446.782l-.055-.09a2.391,2.391,0,0,0-1.887-.837,5.54,5.54,0,0,0-2.874.628l-.041.023C358.944,602.031,358.821,602.1,358.714,602.174Z" fill="#f98300" fill-rule="evenodd"></path><path id="Path_638" data-name="Path 638" d="M259.331,297.163s-2.971,53.6-1.984,69.392,5.291,23.215,7.761,19.265,12.415-82.886,11.651-88.157S259.208,293.584,259.331,297.163Z" fill="#72513e" fill-rule="evenodd"></path><path id="Path_639" data-name="Path 639" d="M329.163,291.23s17.982,48.656,19.939,64.451-.962,23.215-4.168,19.267-18.72-71.716-31.537-83.983C311.942,287.09,327.261,284.688,329.163,291.23Z" fill="#72513e" fill-rule="evenodd"></path><path id="Path_640" data-name="Path 640" d="M267.409,226.635c-4.42.411-15.922,2.381-19.038,3.741s-3.549-3.782-.722-4.738,13.689-3.475,17.539-4.064S268.625,226.881,267.409,226.635Z" fill="#651906" fill-rule="evenodd"></path><path id="Path_641" data-name="Path 641" d="M289.169,221.886c3.974-1.974,14.792-6.351,18.157-6.834s1.025-5.083-1.884-4.408-13.467,4.248-17.053,5.771S288.265,222.735,289.169,221.886Z" fill="#651906" fill-rule="evenodd"></path><g id="Group_188" data-name="Group 188"><path id="Path_642" data-name="Path 642" d="M242.214,189.811c-1.322-7.714,14.693-20.136,21.365-17.646C255.574,175.852,247.073,182.424,242.214,189.811Z" fill="#5a1404" fill-rule="evenodd"></path></g><g id="Group_189" data-name="Group 189"><path id="Path_643" data-name="Path 643" d="M253.452,184.876c20.148-13.693,19.545-10.514,43.1-7.775C279.22,181.947,282.174,173.318,253.452,184.876Z" fill="#5a1404" fill-rule="evenodd"></path></g><g id="Group_190" data-name="Group 190"><path id="Path_644" data-name="Path 644" d="M270.372,167.23c22.545-6.323,34.218,12.244,44.337,1.851.85,1.814-3.016,3.548-4.073,3.936C297.347,177.872,291.028,167.221,270.372,167.23Z" fill="#7e290f" fill-rule="evenodd"></path></g><g id="Group_191" data-name="Group 191"><path id="Path_645" data-name="Path 645" d="M279.881,161.8c7-3.49,7.655-4.235,15.314-2.468C288.44,161.88,287.091,163.146,279.881,161.8Z" fill="#5a1404" fill-rule="evenodd"></path></g><g id="Group_192" data-name="Group 192"><path id="Path_646" data-name="Path 646" d="M250.981,192.279c5.29,4.445,16.694,9.065,23.467,9.749C274.8,205.781,251.711,201.39,250.981,192.279Z" fill="#7e290f" fill-rule="evenodd"></path></g><g id="Group_193" data-name="Group 193"><path id="Path_647" data-name="Path 647" d="M261.356,187.714c6.364,3.86,26.346,7.6,34.085,7.651C289.492,200.5,261.319,193.409,261.356,187.714Z" fill="#5a1404" fill-rule="evenodd"></path></g><g id="Group_194" data-name="Group 194"><path id="Path_648" data-name="Path 648" d="M269.013,184.876c32.267-6.653,37.227-2.378,51.623,23.444C298.007,183.941,308.031,185.166,269.013,184.876Z" fill="#7e290f" fill-rule="evenodd"></path></g><g id="Group_195" data-name="Group 195"><path id="Path_649" data-name="Path 649" d="M301.617,179.692c8.858,2.655,20.655,1.887,26.553,3.7C322.77,187.237,301.6,184.28,301.617,179.692Z" fill="#5a1404" fill-rule="evenodd"></path></g><g id="Group_196" data-name="Group 196"><path id="Path_650" data-name="Path 650" d="M293.343,162.294c8.34,1.128,20.033,2.957,28.282.369C316.733,171.663,299.273,165.357,293.343,162.294Z" fill="#5a1404" fill-rule="evenodd"></path></g><g id="Group_197" data-name="Group 197"><path id="Path_651" data-name="Path 651" d="M239.682,203.015c-2.8,8.417-6.806,16.35-5.9,25.342l-.1-.023.07.039c.006.17.023.1-.027.221a.172.172,0,0,1-.193-.006C226.011,223.106,236.825,206.944,239.682,203.015Z" fill="#7e290f" fill-rule="evenodd"></path></g><g id="Group_198" data-name="Group 198"><path id="Path_652" data-name="Path 652" d="M231.716,208.012c-1,4.813-2.567,9.475-3.166,14.371l-.08-.143c.064.313.058.14-.028.519C226.443,223.007,224.157,212.158,231.716,208.012Z" fill="#5a1404" fill-rule="evenodd"></path></g><g id="Group_199" data-name="Group 199"><path id="Path_653" data-name="Path 653" d="M240.053,194.253c9.828,1.7,5.539-.234,13.029,5.43C243.747,198.181,248.124,199.908,240.053,194.253Z" fill="#331907" fill-rule="evenodd"></path></g><path id="Path_654" data-name="Path 654" d="M149.93,242.14a48.045,48.045,0,0,1-7.562-4.473q-.66-.481-1.229-.944l-2.82,2.677a34.225,34.225,0,0,0,5.349,5.145,13.722,13.722,0,0,0,4.276,2.328c.942.228,1.16-.1,1.16-.1.482-.213,1.5-.583,2.732-1.109-.327-.591-.616-1.117-.864-1.571C150.3,242.846,149.93,242.14,149.93,242.14Z" fill="#f59a60" fill-rule="evenodd"></path><path id="Path_655" data-name="Path 655" d="M151.837,245.66c-1.234.527-2.25.9-2.732,1.109,0,0-.218.33-1.16.1,17.895,33.337,35.866,54.149,60.276,68.182q.5.285,1,.55l1.152-8.324s-22.186-13.445-35.525-28.129C164.746,268.032,155.656,252.53,151.837,245.66Z" fill="#f59a60" fill-rule="evenodd"></path><path id="Path_656" data-name="Path 656" d="M234.314,326.431a37.921,37.921,0,0,1-6.805-5.143c-9.029-8.359-16.214-20.68-16.214-20.68l-.925,6.672-1.152,8.324-2.088,15.066,28.039,5.006,4.15.74,2.885.516,3.348.6,11.927,2.13q.019-.608.039-1.218.051-1.629.106-3.267c.112-3.246.235-6.5.363-9.671q.07-1.739.143-3.436c.159-3.771.323-7.354.474-10.567.212-4.449.4-8.187.535-10.729l-.9,11.044-.876,10.817-.633,7.8-.256,3.147s-.71-.048-2.074-.284a61.121,61.121,0,0,1-7.451-1.842l-.037-.011c-1.879-.58-4.016-1.314-6.394-2.242q-1.92-.748-4.05-1.675A22.256,22.256,0,0,1,234.314,326.431Z" fill="#f27900" fill-rule="evenodd"></path><path id="Path_657" data-name="Path 657" d="M263.346,386.83c.669,10.31,1.335,21.071,1.881,30.859.164,2.936.317,5.785.455,8.509.479,9.4.791,17.288.8,22.091.006,2.636,2.8,4.408,7.446,5.446,18.018,4.02,63.944-3,83.857-13.621q1.441-.769,2.695-1.561c-1.272-.064-2.618-.153-4.028-.27a136.229,136.229,0,0,1-45.917-12.16q-.7-.327-1.394-.656-2.365-1.129-4.541-2.267c-28.975-15.13-33.948-31.257-34.411-34.965-.451-3.595,4.778-66.522,5.717-77.758.094-1.1.143-1.709.143-1.709q-.082.839-.172,1.726c-2.413,23.868-8.85,72.256-10.77,75.326C264.586,386.655,263.983,386.983,263.346,386.83Z" fill="#f27900" fill-rule="evenodd"></path><path id="Path_658" data-name="Path 658" d="M236.659,244.29c-6.263,0-6.073,11.311.865,14.313,3.705,1.6,4.26-1.666,3.581-2.714s-2.408-.555-3.581-2.839.708-1.659.987-4.195A6.176,6.176,0,0,0,236.659,244.29Z" fill="#f39157" fill-rule="evenodd"></path><path id="Path_659" data-name="Path 659" d="M319.74,222.591c5.293-3.347,11.184,6.314,6.929,12.557-2.272,3.334-4.491.869-4.479-.38s1.737-1.756,1.508-4.311-1.488-1.025-3.08-3.018A6.175,6.175,0,0,1,319.74,222.591Z" fill="#f39157" fill-rule="evenodd"></path><path id="Path_660" data-name="Path 660" d="M236.227,229.05s8.4,22.213,7.471,22.4-8.275-13.079-8.275-13.079Z" fill="#651906" fill-rule="evenodd"></path><path id="Path_661" data-name="Path 661" d="M314.342,210.254s2.214,23.64,3.128,23.4,1.686-15.382,1.686-15.382Z" fill="#651906" fill-rule="evenodd"></path><path id="Path_662" data-name="Path 662" d="M268.337,529.46c5.187-6.416,21.736-62.191,21.736-62.191s13.586-1.234,42.732-12.093A128.628,128.628,0,0,0,359.086,441.9l-1.3-1.789c-19.913,10.62-65.839,17.641-83.857,13.621-7.921,27.9-17.875,65.3-17.875,65.3l-53.111,60.04s.09.436.264,1.156a50.322,50.322,0,0,0,2.029,6.544c3.108-2.742,7.262-6.415,11.967-10.584C236.472,559.11,264.942,533.661,268.337,529.46Z" fill="#3d1b07" fill-rule="evenodd"></path><path id="Path_663" data-name="Path 663" d="M315.378,475.794c3.358-.372,55.3,32.69,55.3,32.69s-28.2,65.14-28.554,68.459a2.355,2.355,0,0,0,.039.706c.342,1.7,2.422,3.574,5.176,4.727l3.125-8,25.067-64.166,16.055-2.468-10.868-7.651-53.858-32.654Z" fill="#3d1b07" fill-rule="evenodd"></path><path id="Path_664" data-name="Path 664" d="M278.57,285.466c-14.545-1.031-26.837-10.307-34.7-24.329-.064.062-.129.123-.195.182,7.409,16.446,20.3,27.626,35.877,28.927a38.6,38.6,0,0,0,11.367-.774,38,38,0,0,0,10.144-3.7c14.665-7.942,21.379-25.036,20.131-44.759-.115-.033-.232-.07-.348-.111-.031,18.1-7.247,33.421-21.639,40.532a39.685,39.685,0,0,1-9.436,3.227A40.324,40.324,0,0,1,278.57,285.466Z" fill="#faad79" fill-rule="evenodd"></path><path id="Path_665" data-name="Path 665" d="M300.6,255.769a16.306,16.306,0,0,1,1.054,2.4,15.367,15.367,0,0,1-9.308,19.743,15.6,15.6,0,0,1-19.6-9.925,16.238,16.238,0,0,1-.653-2.53Z" fill="#891207" fill-rule="evenodd"></path><path id="Path_666" data-name="Path 666" d="M274.791,264.535l.922,2.565a1.993,1.993,0,0,0,2.542,1.2l20.045-7.185a1.99,1.99,0,0,0,1.2-2.54l-.778-2.167Z" fill="#fff" fill-rule="evenodd"></path></g><ellipse id="Ellipse_14" data-name="Ellipse 14" cx="117.22" cy="12.007" rx="117.22" ry="12.007" transform="translate(160.836 652.545)" fill="#dddad3" opacity="0.24"></ellipse><ellipse id="Ellipse_15" data-name="Ellipse 15" cx="81.896" cy="11.723" rx="81.896" ry="11.723" transform="translate(485.985 613.871)" fill="#dddad3" opacity="0.24"></ellipse></g></g></svg>