<svg xmlns="http://www.w3.org/2000/svg" width="150" height="134" viewBox="0 0 150 134"><g id="Vector_Smart_Object21" data-name="Vector Smart Object21" transform="translate(-265.73 -267.876)"><g id="Group_125" data-name="Group 125"><path id="Path_243" data-name="Path 243" d="M302.566,399.873c0,.848-7.678,1.535-17.151,1.535s-17.151-.687-17.151-1.535,7.679-1.534,17.151-1.534S302.566,399.026,302.566,399.873Z" fill="#dff5ee"></path><path id="Path_244" data-name="Path 244" d="M405.967,400.107c0,.977-9.454,1.769-21.116,1.769s-21.116-.792-21.116-1.769,9.454-1.769,21.116-1.769S405.967,399.13,405.967,400.107Z" fill="#dff5ee"></path><path id="Path_245" data-name="Path 245" d="M363.535,267.887a47.287,47.287,0,0,0-32.172,11.668,27.723,27.723,0,0,1-21.782,6.86,21.969,21.969,0,0,0-24.811,19.563,22.857,22.857,0,0,0,.149,6.033,21.478,21.478,0,0,1-4.43,16.957,28.874,28.874,0,0,0,20.164,47.04,28.176,28.176,0,0,0,17.728-4.831,49.032,49.032,0,0,1,35.993-7.4,47.555,47.555,0,0,0,8.139.7c26.4,0,47.795-21.623,47.795-48.3C410.309,289.729,389.7,268.44,363.535,267.887Z" fill="#d4deff" opacity="0.5"></path><g id="Group_116" data-name="Group 116"><rect id="Rectangle_36" data-name="Rectangle 36" width="66.807" height="1.772" transform="translate(299.822 342.624)" fill="#c2804a"></rect><g id="Group_114" data-name="Group 114"><path id="Path_246" data-name="Path 246" d="M291.3,399.65l19.006-57.86-5.474-.538-15.5,58.4Z" fill="#c2804a"></path></g><g id="Group_115" data-name="Group 115"><path id="Path_247" data-name="Path 247" d="M375.941,399.65l-15.5-58.4-5.474.538,19.006,57.86Z" fill="#c2804a"></path></g><rect id="Rectangle_37" data-name="Rectangle 37" width="75.06" height="4.537" transform="translate(295.812 338.485)" fill="#8c501f"></rect></g><path id="Path_248" data-name="Path 248" d="M351.016,338.485h-8.8l-2.776-11.058h8.8Z" fill="#6f98a8"></path><g id="Path_249" data-name="Path 249" fill="#174eaf" stroke-miterlimit="10"><path d="M 362.8100280761719 328.13330078125 L 322.5113830566406 328.13330078125 C 322.0360717773438 328.13330078125 321.6454772949219 327.7540283203125 321.6122436523438 327.2750244140625 L 324.8780822753906 300.5857238769531 L 324.888427734375 300.5013122558594 L 324.888427734375 300.416259765625 C 324.888427734375 299.9064331054688 325.2928161621094 299.4916381835938 325.7898559570313 299.4916381835938 L 366.0885009765625 299.4916381835938 C 366.5638122558594 299.4916381835938 366.9543762207031 299.8709411621094 366.9876098632813 300.3499450683594 L 363.7217712402344 327.0392456054688 L 363.71142578125 327.1236572265625 L 363.71142578125 327.2087097167969 C 363.71142578125 327.7185363769531 363.3070678710938 328.13330078125 362.8100280761719 328.13330078125 Z" stroke="none"></path><path d="M 362.3529357910156 326.7380065917969 L 365.5162048339844 300.8869323730469 L 326.2469482421875 300.8869323730469 L 323.0836486816406 326.7380065917969 L 362.3529357910156 326.7380065917969 M 362.8100280761719 329.5285949707031 L 322.5113830566406 329.5285949707031 C 321.2427368164063 329.5285949707031 320.2146606445313 328.48974609375 320.2146606445313 327.2087097167969 L 323.4931335449219 300.416259765625 C 323.4931335449219 299.1351928710938 324.5212097167969 298.0963439941406 325.7898559570313 298.0963439941406 L 366.0885009765625 298.0963439941406 C 367.3571472167969 298.0963439941406 368.3851928710938 299.1351928710938 368.3851928710938 300.416259765625 L 365.1067199707031 327.2087097167969 C 365.1067199707031 328.48974609375 364.0786743164063 329.5285949707031 362.8100280761719 329.5285949707031 Z" stroke="none" fill="#a0c3d1"></path></g><path id="Path_250" data-name="Path 250" d="M351.016,338.485H335.693a3.157,3.157,0,0,1,3.141-3.174h9.042a3.157,3.157,0,0,1,3.141,3.174Z" fill="#a0c3d1"></path><g id="Group_117" data-name="Group 117"><path id="Path_251" data-name="Path 251" d="M341.344,306.429H329.016l.231-1.87h12.328Z" fill="#469757"></path></g><g id="Group_118" data-name="Group 118"><path id="Path_252" data-name="Path 252" d="M360.323,310.524H348l.231-1.87h12.328Z" fill="#469757"></path></g><g id="Group_119" data-name="Group 119"><path id="Path_253" data-name="Path 253" d="M354.331,314.619H341.078l.231-1.87h13.253Z" fill="#fff"></path></g><g id="Group_120" data-name="Group 120"><path id="Path_254" data-name="Path 254" d="M345.639,310.524H328.616l.229-1.87h17.023Z" fill="#ffd56b"></path></g><g id="Group_121" data-name="Group 121"><path id="Path_255" data-name="Path 255" d="M338.721,314.619H328.175l.229-1.87H338.95Z" fill="#eb5a7d"></path></g><g id="Group_122" data-name="Group 122"><path id="Path_256" data-name="Path 256" d="M341.835,318.714H327.588l.229-1.87h14.247Z" fill="#827ddc"></path></g><g id="Group_123" data-name="Group 123"><path id="Path_257" data-name="Path 257" d="M350.622,318.714h-6.844l.229-1.87h6.844Z" fill="#ffd56b"></path></g><g id="Group_124" data-name="Group 124"><path id="Path_258" data-name="Path 258" d="M334.836,322.809h-7.77l.229-1.87h7.77Z" fill="#fff"></path></g><path id="Path_259" data-name="Path 259" d="M283.977,273.327s3.144-5.517,11.222-.951a6.235,6.235,0,0,1,2.813,3.427,9.29,9.29,0,0,0,5.689,5.84,11.772,11.772,0,0,1,7.43,6.27,15.053,15.053,0,0,1,1.27,4.864,9.134,9.134,0,0,0,3.677,6.612c2.751,2.017,5.716,5.816,4.9,12.649-1.448,12.147-17.61,13.535-22.594,13.758-7.016.312-22.044-.781-25.448-5.465s5.522-19,4.316-21.219c-3.966-7.309-1.633-12.614,1.983-13.557C284.276,284.241,283.977,273.327,283.977,273.327Z" fill="#ffe678"></path><path id="Path_260" data-name="Path 260" d="M270.509,319.108c0,1.665,2.355,3.967,3.607,3.967s1.218-1,1.218-2.663-.111-13.866-.111-13.866S270.509,317.443,270.509,319.108Z" fill="#928de0"></path><path id="Path_261" data-name="Path 261" d="M287.164,396.849l-.319,2.135a1.813,1.813,0,0,1-.585,1.088c-1,.893-3.331,1.714-4.062.748-.494-.654.606-1.354,1.483-1.782a2.953,2.953,0,0,0,1.416-1.476l.31-.712Z" fill="#9e573c"></path><path id="Path_262" data-name="Path 262" d="M293.316,375.541l1.561,1.475a1.812,1.812,0,0,1,.555,1.1c.161,1.336.372,4.238-.831,4.3-.856.044-1.134-1.627-1.223-2.754a4.57,4.57,0,0,0-.669-2.019L292.32,377Z" fill="#9e573c"></path><path id="Path_263" data-name="Path 263" d="M274.965,334.012s-10.287,13.831-9.146,20.391c1.612,9.271,26.2,23.726,26.2,23.726l1.925-3.345s-16.032-17-15.515-20.987c.277-2.137,12.788-18.91,12.788-18.91Z" fill="#a5a0aa"></path><path id="Path_264" data-name="Path 264" d="M303.536,335.594l-16.114,61.829a3.1,3.1,0,0,1-2.411,0l1.751-61.31Z" fill="#a5a0aa"></path><path id="Path_265" data-name="Path 265" d="M285.463,292.2c3.778-.553,9.09-1.709,12.948,2.81,2.538,2.973,2.344,9.332,3.042,15.983,2.375,22.642,2.138,25.009,2.138,25.009s-25.034,1.932-28.569-1.641c-.425-2.31-2.529-21.2,1.337-31.959C278.274,297.079,281.867,292.731,285.463,292.2Z" fill="#827ddc"></path><path id="Path_266" data-name="Path 266" d="M284.747,324.274c-1.87-1.265,2.993-3.417,2.993-3.417,4.839-1.651,9.365-3.327,14.818-3.144a80.148,80.148,0,0,1-9.834-11.082c-3.992-5.709-4.686-13.308,1.86-11.5a9.975,9.975,0,0,1,1.39.691c2.519,2.875,4.883,7.793,6.2,16.128a67,67,0,0,1,.466,11.887C296.565,324.961,286.657,325.567,284.747,324.274Z" fill="#6e64c3"></path><path id="Path_267" data-name="Path 267" d="M293.077,292.907a5.136,5.136,0,0,1,4.672,1.556c1.765,1.833,4.806,5.854,8.182,14.1,4.489,10.967.7,11.34.7,11.34-6.692,1.651-20.053,5.5-22.765,4.141-1.094-.548-.682-3.107-.682-3.107,4.839-1.651,11.057-5.332,15.647-6.948a82.118,82.118,0,0,1-8.027-9.77C287.508,299.509,288.836,293.758,293.077,292.907Z" fill="#928de0"></path><path id="Path_268" data-name="Path 268" d="M283.04,321.717l-2.524-1.6a.391.391,0,0,0-.583.441l.287,1.021,2.382,1.35Z" fill="#f58251"></path><path id="Path_269" data-name="Path 269" d="M286.261,286.567h3.869a34.794,34.794,0,0,0,.754,4.064,2.314,2.314,0,0,1-.434,1.99c-1.279,1.6-3.984,4.326-5.377.754a2.336,2.336,0,0,1-.008-1.65A22.122,22.122,0,0,0,286.261,286.567Z" fill="#f58251"></path><path id="Path_270" data-name="Path 270" d="M291.361,282.6a8.935,8.935,0,0,1-1.549,5.243,4.429,4.429,0,0,1-3.724,2.258c-1.259-.039-2.233-1.108-2.918-2.2-2.223-3.535-2.029-10.44-2.029-10.44s7.16-2.978,9.594,1.118A8.973,8.973,0,0,1,291.361,282.6Z" fill="#ff9669"></path><path id="Path_271" data-name="Path 271" d="M287.592,286.357a1.232,1.232,0,1,1-2.463,0Z" fill="#f9f8f7"></path><path id="Path_272" data-name="Path 272" d="M287.451,286.921a1.215,1.215,0,0,1-2.182,0Z" fill="#523528"></path><path id="Path_273" data-name="Path 273" d="M287.409,283.042c0,.349.143.631.321.631s.32-.282.32-.631" fill="#523528"></path><path id="Path_274" data-name="Path 274" d="M283.159,283.042c0,.349.143.631.32.631s.321-.282.321-.631" fill="#523528"></path><path id="Path_275" data-name="Path 275" d="M286.124,282.566l-.54,2.223a.572.572,0,0,0,.641.686h0a.426.426,0,0,0,.413-.517Z" fill="#ff640a"></path><path id="Path_276" data-name="Path 276" d="M287.015,281.852a7.343,7.343,0,0,1,2.175-.585" fill="none" stroke="#c96e35" stroke-linecap="round" stroke-miterlimit="10" stroke-width="0.724"></path><path id="Path_277" data-name="Path 277" d="M285.386,281.915a3.025,3.025,0,0,0-1.663-.334" fill="none" stroke="#c96e35" stroke-linecap="round" stroke-miterlimit="10" stroke-width="0.724"></path><path id="Path_278" data-name="Path 278" d="M290.781,277.013s-4.226,4.949-8.7,4.766-5.809-5.013-5.5-6.842,1.081-7.757,8.622-3C285.2,271.937,295.923,270.894,290.781,277.013Z" fill="#ffe678"></path><ellipse id="Ellipse_8" data-name="Ellipse 8" cx="1.744" cy="1.763" rx="1.744" ry="1.763" transform="translate(286.677 281.737)" fill="none" stroke="#ffdcd7" stroke-linecap="round" stroke-miterlimit="10" stroke-width="0.181"></ellipse><path id="Path_279" data-name="Path 279" d="M287.024,283.173a1.153,1.153,0,0,0-1.641,0" fill="none" stroke="#ffdcd7" stroke-linecap="round" stroke-miterlimit="10" stroke-width="0.181"></path><path id="Path_280" data-name="Path 280" d="M282.233,283.5a1.745,1.745,0,1,0,1.744-1.764A1.754,1.754,0,0,0,282.233,283.5Z" fill="none" stroke="#ffdcd7" stroke-linecap="round" stroke-miterlimit="10" stroke-width="0.181"></path><path id="Path_281" data-name="Path 281" d="M290.1,283.042l.795-1.31a.694.694,0,0,1,.594-.337H292.5v1.318" fill="none" stroke="#ffdcd7" stroke-linecap="round" stroke-miterlimit="10" stroke-width="0.181"></path><path id="Path_282" data-name="Path 282" d="M290.625,282.895c-.312,1.2-.1,2.306.485,2.459s1.3-.7,1.617-1.9.1-2.306-.485-2.459S290.938,281.691,290.625,282.895Z" fill="#ff9669"></path><path id="Path_283" data-name="Path 283" d="M275.558,318.963s-.866,2.173-1.363,2.148-.909-.881-.811-1.258S275.388,318.109,275.558,318.963Z" fill="#f58251"></path><path id="Path_284" data-name="Path 284" d="M276.85,324.438h4.228a.75.75,0,0,0,.715-.958l-2.347-8.3a.745.745,0,0,0-.715-.545H274.5a.75.75,0,0,0-.715.958l2.347,8.3A.745.745,0,0,0,276.85,324.438Z" fill="#fff"></path><path id="Path_285" data-name="Path 285" d="M284.125,323.316s-2.62.495-3.213.194a6.348,6.348,0,0,1-2.449-2.557.524.524,0,0,1,.606-.762,42.1,42.1,0,0,1,4.047,1.433Z" fill="#ff9669"></path><path id="Path_286" data-name="Path 286" d="M273.316,320.638A2.164,2.164,0,0,0,275.35,323a1.4,1.4,0,0,0,.6-.064c1.077-.546.026-1.154-.433-2.552a.693.693,0,0,0-.832-.484c-1.163.331-1.306-.049-1.306-.049Z" fill="#ff9669"></path><path id="Path_287" data-name="Path 287" d="M404.843,327.139c-1.991,5.379-4.84,8.274-6.763,7.548s-2.191-4.8-.2-10.18,7.411-9.3,7.411-9.3S406.834,321.76,404.843,327.139Z" fill="#469757"></path><path id="Path_288" data-name="Path 288" d="M407.762,347.778c-2.272,4.334-5,6.469-6.549,5.639s-1.333-4.309.938-8.643,7.289-7.05,7.289-7.05S410.035,343.445,407.762,347.778Z" fill="#4fab63"></path><path id="Path_289" data-name="Path 289" d="M378.658,350.47c4.8-.693,8.118.28,8.366,2.033s-2.664,3.625-7.468,4.318-9.93-1.807-9.93-1.807S373.854,351.163,378.658,350.47Z" fill="#4fab63"></path><path id="Path_290" data-name="Path 290" d="M398.275,341.374c1.171,5.62.3,9.607-1.708,10.035s-4.4-2.867-5.568-8.487,1.326-11.865,1.326-11.865S397.1,335.754,398.275,341.374Z" fill="#4fab63"></path><path id="Path_291" data-name="Path 291" d="M383.327,334.811c4.242,3.823,6.143,7.259,5.1,8.442s-4.64-.333-8.881-4.155a28.56,28.56,0,0,1-6.479-9.687A28.116,28.116,0,0,1,383.327,334.811Z" fill="#469757"></path><path id="Path_292" data-name="Path 292" d="M403,320.939s-9.246,18.859-10.566,37.4c-.28,3.938-.441,7.387-.522,10.377" fill="none" stroke="#4fab63" stroke-miterlimit="10" stroke-width="0.953"></path><path id="Path_293" data-name="Path 293" d="M378.333,334.8s17.48,7.967,19.094,32.88" fill="none" stroke="#4fab63" stroke-miterlimit="10" stroke-width="0.698"></path><path id="Path_294" data-name="Path 294" d="M375.941,354.331s16.9-4.894,22.861,0,.532,14.381.532,14.381" fill="none" stroke="#469757" stroke-miterlimit="10" stroke-width="0.93"></path><path id="Path_295" data-name="Path 295" d="M394.013,339.8s4.147,14.231,1.653,28.914" fill="none" stroke="#469757" stroke-miterlimit="10" stroke-width="1.015"></path><path id="Path_296" data-name="Path 296" d="M405.862,344.4s-7.49,13.045-8.4,24.317" fill="none" stroke="#469757" stroke-miterlimit="10" stroke-width="0.93"></path><path id="Path_297" data-name="Path 297" d="M403.49,363.059c-5.994-.8-9.694-2.724-9.468-4.455s4.294-2.615,10.289-1.814,11.42,4.716,11.42,4.716S409.484,363.86,403.49,363.059Z" fill="#4fab63"></path><path id="Path_298" data-name="Path 298" d="M407.846,360.434s-19.077-8.989-17.756,8.278" fill="none" stroke="#469757" stroke-miterlimit="10" stroke-width="0.93"></path><path id="Path_299" data-name="Path 299" d="M400.415,399.218H390.061l-5.552-31.541h21.458Z" fill="#e16450"></path><path id="Path_300" data-name="Path 300" d="M402.644,367.677l-5.552,31.541h3.323l5.552-31.541Z" fill="#db4e40"></path><path id="Path_301" data-name="Path 301" d="M400.054,399.829H389.987a2.964,2.964,0,0,1-2.948-2.98H403A2.965,2.965,0,0,1,400.054,399.829Z" fill="#6f98a8"></path></g></g></svg>