<svg xmlns="http://www.w3.org/2000/svg" xmlns:xlink="http://www.w3.org/1999/xlink" width="177.001" height="130" viewBox="0 0 177.001 130"><defs><linearGradient id="linear-gradient" y1="0.5" x2="1" y2="0.5" gradientUnits="objectBoundingBox"><stop offset="0" stop-color="#fff"></stop><stop offset="1" stop-color="#fff" stop-opacity="0"></stop></linearGradient><linearGradient id="linear-gradient-3" x1="0.117" y1="0.733" x2="1.035" y2="0.175" xlink:href="#linear-gradient"></linearGradient></defs><g id="Vector_Smart_Object" data-name="Vector Smart Object" transform="translate(-230.386 -64.878)"><g id="Group_159" data-name="Group 159"><g id="Group_157" data-name="Group 157"><g id="Group_144" data-name="Group 144"><g id="Group_143" data-name="Group 143"><rect id="Rectangle_49" data-name="Rectangle 49" width="52.015" height="79.239" rx="1.964" transform="translate(270.404 64.878)" fill="#d2f0ff"></rect><rect id="Rectangle_50" data-name="Rectangle 50" width="52.015" height="79.239" rx="1.964" transform="translate(324.556 64.878)" fill="#d2f0ff"></rect></g><path id="Path_379" data-name="Path 379" d="M322.3,71.125,270.4,90.5v18.63L322.3,89.755Z" opacity="0.25" fill="url(#linear-gradient)"></path><path id="Path_380" data-name="Path 380" d="M322.3,92.856,270.4,112.228v9.45L322.3,102.305Z" opacity="0.25" fill="url(#linear-gradient)"></path><path id="Path_381" data-name="Path 381" d="M376.005,71.057,324.113,90.429v18.63l51.892-19.373Z" opacity="0.25" fill="url(#linear-gradient-3)"></path><path id="Path_382" data-name="Path 382" d="M376.005,92.787,324.113,112.16v9.45l51.892-19.373Z" opacity="0.25" fill="url(#linear-gradient)"></path></g><path id="Path_383" data-name="Path 383" d="M262.7,84.019s-10.474-6.847-14-2.543-1.324,12.243-1.324,12.243-10.84.38-15.142,6.064c-4.18,5.523-.586,15.4,4.268,18.231s22.469,4.671,25.778,4.412c10.4-.815,12.13-7.514,10.579-17.928C271.911,98.192,262.7,84.019,262.7,84.019Z" fill="#9e6c43"></path><ellipse id="Ellipse_9" data-name="Ellipse 9" cx="30.202" cy="2.039" rx="30.202" ry="2.039" transform="translate(242.681 190.8)" fill="#dff5ee"></ellipse><ellipse id="Ellipse_10" data-name="Ellipse 10" cx="22.212" cy="2.039" rx="22.212" ry="2.039" transform="translate(327.96 190.8)" fill="#dff5ee"></ellipse><path id="Path_384" data-name="Path 384" d="M398.48,192.839c0,.868-4.43,1.572-9.895,1.572s-9.894-.7-9.894-1.572,4.43-1.571,9.894-1.571S398.48,191.971,398.48,192.839Z" fill="#dff5ee"></path><path id="Path_385" data-name="Path 385" d="M353.367,91.492a4.491,4.491,0,1,0-6.7,5.944,5.027,5.027,0,0,0,1.782,1.292,3.716,3.716,0,0,1,2,2.467,3.451,3.451,0,0,0,2.165,2.294,2.792,2.792,0,0,1,1.707,2.091,2.578,2.578,0,0,0,1.914,1.945A1.487,1.487,0,0,1,357.3,108.8a2.022,2.022,0,0,0,.417,1.1c1.8,2.029,5.046,1.325,5.046,1.325a16.35,16.35,0,0,0-1.95-4.072,3.169,3.169,0,0,0-.783-.642,1.217,1.217,0,0,1-.586-1.214,2.591,2.591,0,0,0-.635-2.029,2.56,2.56,0,0,0-.447-.4,2.543,2.543,0,0,1-1.116-2.3,3.466,3.466,0,0,0-1.217-3.023,3.889,3.889,0,0,1-1.387-2.9A5,5,0,0,0,353.367,91.492Z" fill="#ff8d0a"></path><g id="Group_149" data-name="Group 149"><path id="Path_386" data-name="Path 386" d="M244.692,156.759h23.9V113.65l-32.994.072Z" fill="#50374b"></path><g id="Group_145" data-name="Group 145"><rect id="Rectangle_51" data-name="Rectangle 51" width="2.736" height="30.818" transform="translate(261.121 158.015)" fill="#a5a0aa"></rect></g><g id="Group_146" data-name="Group 146"><path id="Path_387" data-name="Path 387" d="M249.554,160.753H281.7a2.738,2.738,0,0,0,0-5.476H249.554a1.862,1.862,0,0,1-1.821-1.446l-8.851-38.062a2.737,2.737,0,1,0-5.331,1.241l8.851,38.062A7.311,7.311,0,0,0,249.554,160.753Z" fill="#695a6e"></path></g><g id="Group_147" data-name="Group 147"><path id="Path_388" data-name="Path 388" d="M249.088,192.705h2.737a2.506,2.506,0,0,1,2.5-2.5h16.079a2.506,2.506,0,0,1,2.5,2.5h2.736a5.246,5.246,0,0,0-5.239-5.242H254.328A5.246,5.246,0,0,0,249.088,192.705Z" fill="#695a6e"></path></g><path id="Path_389" data-name="Path 389" d="M306.924,129.995l-1.327-.35a18.465,18.465,0,0,0-4.706-.609h-3.7v2.493l9.526.031A.8.8,0,0,0,306.924,129.995Z" fill="#ffaf82"></path><path id="Path_390" data-name="Path 390" d="M261.8,102.208c-4.636-1.276.213,7.9,2.605,12.069,4.277,7.464,13.237,14.762,14.9,14.758l19.494-.044a5.248,5.248,0,0,0,.049-3.257l-17.14-4.251S273.344,105.8,267.17,103.01C265.941,102.454,261.8,102.208,261.8,102.208Z" fill="#eace57"></path><path id="Path_391" data-name="Path 391" d="M289.973,187.953l.652,3.416a1.548,1.548,0,0,0,.586.8c1,.705,3.8.969,4.364.2.595-.8-1.836-1.653-3.074-2.357l-.3-1.5Z" fill="#9b2d3c"></path><path id="Path_392" data-name="Path 392" d="M251.457,140.084l.041-.418,42.44,3.819a6.511,6.511,0,0,1,5.841,7.531l-6.957,38.94a4.19,4.19,0,0,1-2.812,0l-1.479-34.423-21.736-.256C257.8,155.625,250.572,149.044,251.457,140.084Z" fill="#dcbe82"></path><path id="Path_393" data-name="Path 393" d="M276.237,147.135l-7.267-3.3L251.5,139.666l42.44,3.819a6.511,6.511,0,0,1,5.841,7.531l-1.026,5.742-9.965,5.406-.257-6.631-11.687-.138C279.268,152.534,279.652,148.683,276.237,147.135Z" fill="#c8a06e"></path><path id="Path_394" data-name="Path 394" d="M272.7,166.264l-1.208,1.559a1.485,1.485,0,0,0-.3,1.084c.148,1.26,2.052,3.837,2.989,3.8,1.084-.041-.37-4.024-.37-4.024l.4-1.451Z" fill="#9b2d3c"></path><path id="Path_395" data-name="Path 395" d="M272.883,128.66c8.745,1.966,23.43,6.933,30.546,11.146a5.7,5.7,0,0,1,2.379,7.039,5.539,5.539,0,0,1-2.218,2.532l-29.288,18.9a3.741,3.741,0,0,1-2.147-2l16.653-19.227-16.653-5.525C272.745,137.1,272.755,132.209,272.883,128.66Z" fill="#dcbe82"></path><path id="Path_396" data-name="Path 396" d="M272.812,141.169s2.734-22.945-.042-29.824c-6.244-15.468-17.921-10.692-17.921-10.692s-10.988,3.283-8.078,24.462c.656,4.773,3.438,19.222,3.438,19.222S264.365,145.929,272.812,141.169Z" fill="#ffe576"></path><path id="Path_397" data-name="Path 397" d="M263.677,96.457l1,6.265c.673,1.479,1.786,4.138-.588,5.128-1.625.678-3.1-3.353-8.839-7.176l2.648-9.22Z" fill="#f58251"></path><path id="Path_398" data-name="Path 398" d="M270.9,157.87,268.9,142a7.767,7.767,0,0,0-7.706-6.8H240.521" fill="none" stroke="#50374b" stroke-linecap="round" stroke-miterlimit="10" stroke-width="3.449"></path><path id="Path_399" data-name="Path 399" d="M265.162,127.754s3.8-3.6,4.454-3.756a13.748,13.748,0,0,1,2.064-.135.332.332,0,0,1,.251.553l-5.821,6.521Z" fill="#ffaf82"></path><path id="Path_400" data-name="Path 400" d="M257.091,105.075c-3.169-3.225-6.526-2.92-9.714,2.68-2.995,5.258-4.207,15.816-4.254,21.65.026,3.307,1.546,4.576,3.983,4.288l19.359-2.293-.432-4.276-12.65-.878a.858.858,0,0,1-.769-1.076l5.087-17.788a2.408,2.408,0,0,0-.61-2.307Z" fill="#eace57"></path><g id="Group_148" data-name="Group 148"><path id="Path_401" data-name="Path 401" d="M256.971,92.131a9.718,9.718,0,0,0,1.715,5.746,4.906,4.906,0,0,0,4.122,2.474c1.4-.042,2.473-1.214,3.23-2.406,2.46-3.873,2.246-11.442,2.246-11.442s-7.926-3.263-10.62,1.226A9.743,9.743,0,0,0,256.971,92.131Z" fill="#ff9669"></path><path id="Path_402" data-name="Path 402" d="M261.776,96.475a1.364,1.364,0,1,0,2.727,0Z" fill="#f9f8f7"></path><ellipse id="Ellipse_11" data-name="Ellipse 11" cx="0.355" cy="0.692" rx="0.355" ry="0.692" transform="translate(260.635 91.921)" fill="#523528"></ellipse><path id="Path_403" data-name="Path 403" d="M266.051,92.612c0,.383-.159.692-.355.692s-.356-.31-.356-.692.159-.691.356-.691S266.051,92.23,266.051,92.612Z" fill="#523528"></path><path id="Path_404" data-name="Path 404" d="M263.485,92.4l.6,2.437a.628.628,0,0,1-.71.752h0a.467.467,0,0,1-.456-.567Z" fill="#ff640a"></path><path id="Path_405" data-name="Path 405" d="M261.8,90.726a8.194,8.194,0,0,0-2.435.525" fill="none" stroke="#c96e35" stroke-linecap="round" stroke-miterlimit="10" stroke-width="0.635"></path><path id="Path_406" data-name="Path 406" d="M264.593,91.129a3.374,3.374,0,0,1,1.872.131" fill="none" stroke="#c96e35" stroke-linecap="round" stroke-miterlimit="10" stroke-width="0.635"></path></g><path id="Path_407" data-name="Path 407" d="M270.553,80.679c1.435,1.7,2.626,7.646.37,9.823-2.05,1.978-4.923-.084-7.783-1.436-6.173-2.919-5.015,3.27-5.015,3.27l-.546-.352-1.02-1.954s-.522-.947-.862.17,1.532,3.126,1.532,3.126l-.3,1.244-.306.924s-.879-3.594-1.85-4.857-3.01-2.914-2.233-5.148,3.884-1.652,6.02-.681,3.706-1.447,4.578-3.106C265.089,77.995,268.29,77.995,270.553,80.679Z" fill="#9e6c43"></path><path id="Path_408" data-name="Path 408" d="M257.786,92.452c.346,1.32.106,2.527-.537,2.7s-1.443-.765-1.789-2.086-.106-2.527.536-2.7S257.44,91.131,257.786,92.452Z" fill="#ff9669"></path></g><path id="Path_409" data-name="Path 409" d="M335.846,102.1a48.753,48.753,0,0,0-10.009,19.354c-1,4.02-4.464,6.939-7.2,7.256l-8.874.308-1.72,3.022,19.08.061a6.271,6.271,0,0,0,6.287-6.045c.091-2.456.169-5.193.169-7.251C333.583,112.044,335.846,102.1,335.846,102.1Z" fill="#d93232"></path><path id="Rectangle_52" data-name="Rectangle 52" d="M0,0H15.439a0,0,0,0,1,0,0V.147A3.019,3.019,0,0,1,12.42,3.166h-9.4A3.019,3.019,0,0,1,0,.147V0A0,0,0,0,1,0,0Z" transform="matrix(-1, 0, 0, -1, 314.623, 132.042)" fill="#a0c3d1"></path><g id="Group_150" data-name="Group 150"><rect id="Rectangle_53" data-name="Rectangle 53" width="3.584" height="33.186" transform="translate(344.413 155.441)" fill="#959da3"></rect><path id="Path_410" data-name="Path 410" d="M347.8,162.133h-3.3a1.936,1.936,0,0,1-1.919-1.681l-.666-5.01h8.468l-.666,5.01A1.936,1.936,0,0,1,347.8,162.133Z" fill="#5d6266"></path><path id="Path_411" data-name="Path 411" d="M335.5,192.961a4.965,4.965,0,0,1,4.964-4.967h11.4a4.965,4.965,0,0,1,4.964,4.967" fill="none" stroke="#696e73" stroke-miterlimit="10" stroke-width="1.779"></path></g><g id="Group_151" data-name="Group 151"><rect id="Rectangle_54" data-name="Rectangle 54" width="27.339" height="4.293" transform="translate(329.384 145.189)" fill="#696e73"></rect></g><path id="Path_412" data-name="Path 412" d="M345.363,188.5v1.858a1.839,1.839,0,0,1-.374,1.114c-.879,1.152-3.187,2.784-4.1,2.123-1.34-.97,2.58-5.1,2.58-5.1Z" fill="#55696e"></path><path id="Path_413" data-name="Path 413" d="M352.329,129.44,345.363,188.5s-.7.918-1.893,0l-6.01-49.2c-.424-4.309,0-8.279.858-14.517Z" fill="#ff9669"></path><path id="Path_414" data-name="Path 414" d="M362.712,177.4l1.1,1.664c.276.417,2.13,3.66,3.214,3.149.757-.356.21-2.8-.646-4.5a4.643,4.643,0,0,0-1.544-1.759l-.618-.419Z" fill="#55696e"></path><path id="Path_415" data-name="Path 415" d="M349.072,77.49c-2.455.966-3.558,1.492-3.558,1.492-7.988-5.681-9.851-1.779-10.2.287s-.459,7,3.9,8.761c2.337.943,4.173-.588,5.38-2.211-.166,2.165.245,4.984,3.11,5.9C356.646,94.584,355.29,75.043,349.072,77.49Z" fill="#ff8d0a"></path><path id="Path_416" data-name="Path 416" d="M347.964,98.772a16.955,16.955,0,0,1,9.158,4.871c2.665,2.848.841,16.511-.46,24.289a7.847,7.847,0,0,1-6.576,6.478c-6.328.944-15.91,1.6-17-2.794-1.647-6.625-4.691-18.054,1.41-27.694A11.365,11.365,0,0,1,347.964,98.772Z" fill="#e84340"></path><path id="Path_417" data-name="Path 417" d="M348.964,103.047a11.114,11.114,0,0,0,.683-3.886,6.562,6.562,0,0,0-1.682-.389,11.829,11.829,0,0,0-5.8-.375c-.959.181-2.384,1.821-2.869,3.987C337.842,108.838,346.623,110.135,348.964,103.047Z" fill="#ff9669"></path><path id="Path_418" data-name="Path 418" d="M347.479,89.783s-1.2,5.387,1.864,9.5a9.287,9.287,0,0,1-2.667,2.022c-2.443,1.19-5.486,1.64-4.849-1.447,0,0,1.612-3.208,1.06-8.878Z" fill="#ff9669"></path><path id="Path_419" data-name="Path 419" d="M349,87.188a7.753,7.753,0,0,1-1.805,7.913,5.187,5.187,0,0,1-3.727,1.65c-1.913-.139-3.124-3.019-3.36-4.218-.37-1.876-1.6-7.5-1.6-7.5a41.9,41.9,0,0,1,7.012.174c1.549.214,2.877-.787,3.366,1.317C348.927,86.735,348.967,86.955,349,87.188Z" fill="#ffaf82"></path><line id="Line_8" data-name="Line 8" x2="2.145" y2="0.138" transform="translate(344.87 88.007)" fill="none" stroke="#a03c19" stroke-linecap="round" stroke-miterlimit="10" stroke-width="0.635"></line><line id="Line_9" data-name="Line 9" x1="1.797" y2="0.226" transform="translate(340.604 88.077)" fill="none" stroke="#a03c19" stroke-linecap="round" stroke-miterlimit="10" stroke-width="0.635"></line><path id="Path_420" data-name="Path 420" d="M345.6,89.463c0,.364.151.659.339.659s.339-.3.339-.659-.152-.66-.339-.66S345.6,89.1,345.6,89.463Z" fill="#523528"></path><path id="Path_421" data-name="Path 421" d="M341.425,89.463c0,.364.151.659.339.659s.339-.3.339-.659-.152-.66-.339-.66S341.425,89.1,341.425,89.463Z" fill="#523528"></path><path id="Path_422" data-name="Path 422" d="M348.459,88.5c-.29,1.106-.028,2.131.585,2.292s1.344-.6,1.634-1.71.027-2.131-.586-2.292S348.748,87.393,348.459,88.5Z" fill="#ffaf82"></path><path id="Path_423" data-name="Path 423" d="M343.087,89.069l-.615,2.445a.541.541,0,0,0,.723.6h0a.445.445,0,0,0,.435-.54Z" fill="#ff640a"></path><path id="Path_424" data-name="Path 424" d="M347.135,82.252s-3.221,8.076-8.092,5.264-2.979-6.641,1.783-6.813S347.192,79.384,347.135,82.252Z" fill="#ff8d0a"></path><path id="Path_425" data-name="Path 425" d="M358.256,152.825l-.414,1.907.585,1.712a.962.962,0,0,1-.895,1.274l-2.155.036a.83.83,0,0,1-.792-1.115l.847-2.309.447-1.942Z" fill="#ff9669"></path><path id="Path_426" data-name="Path 426" d="M355.708,128.278s10.88,22.39-2.188,32.118L344,134.67Z" fill="#e84340"></path><path id="Path_427" data-name="Path 427" d="M335.5,149.778a80.572,80.572,0,0,1,8.2,2.12c5.792,2.338,19.008,25.506,19.008,25.506a2.039,2.039,0,0,0,1.505-1.867s-5.974-27.307-12.921-35.446c-.132-.155-.272-.31-.423-.465a13.5,13.5,0,0,0-10.686-3.955l-.845.059a7.4,7.4,0,0,0-6.832,6.41C332.08,145.451,332.395,149.034,335.5,149.778Z" fill="#ffaf82"></path><path id="Path_428" data-name="Path 428" d="M345.109,135.325s-7.816-.429-5.724,19.746c0,0-8.269-1.4-8.269-12.125a27.42,27.42,0,0,1,2.036-10.826Z" fill="#e84340"></path><path id="Path_429" data-name="Path 429" d="M350.151,121.612h0a5.105,5.105,0,0,1-4.161,4.333l-13.073,2.333.236,3.843,18.766-.061a7.269,7.269,0,0,0,6.913-5.1l1.175-3.758a23.618,23.618,0,0,0,.336-13.392c-1.254-4.476-3.58-7.461-6.115-7.706-3.035-.294-3.716,3.363-3.553,7.632A68.436,68.436,0,0,1,350.151,121.612Z" fill="#d93232"></path><path id="Path_430" data-name="Path 430" d="M342.649,93.143a1.151,1.151,0,1,0,2.3,0Z" fill="#fff"></path><path id="Path_431" data-name="Path 431" d="M295.455,132.042h8.872l2.8-11.031h-8.872Z" fill="#6f98a8"></path><path id="Path_432" data-name="Path 432" d="M283.571,123.108h40.6a2.314,2.314,0,0,0,2.314-2.316l-3.3-26.725a2.314,2.314,0,0,0-2.314-2.315h-40.6a2.314,2.314,0,0,0-2.314,2.315l3.3,26.725A2.314,2.314,0,0,0,283.571,123.108Z" fill="#a0c3d1"></path><path id="Path_433" data-name="Path 433" d="M304.655,111.975h-4.9a1.285,1.285,0,0,1-1.285-1.286l-.889-4.905a1.285,1.285,0,0,1,1.285-1.286h4.9a1.285,1.285,0,0,1,1.285,1.286l.889,4.905A1.285,1.285,0,0,1,304.655,111.975Z" fill="#acd1e0"></path><g id="Group_154" data-name="Group 154"><rect id="Rectangle_55" data-name="Rectangle 55" width="67.154" height="1.763" transform="translate(286.748 135.952)" fill="#c2804a"></rect><g id="Group_152" data-name="Group 152"><path id="Path_434" data-name="Path 434" d="M278.184,192.705l19.1-57.583-5.5-.535-15.577,58.118Z" fill="#c2804a"></path></g><g id="Group_153" data-name="Group 153"><path id="Path_435" data-name="Path 435" d="M363.262,192.705l-15.577-58.118-5.5.535,19.1,57.583Z" fill="#c2804a"></path></g><rect id="Rectangle_56" data-name="Rectangle 56" width="75.451" height="4.515" transform="translate(282.718 131.833)" fill="#8c501f"></rect></g><path id="Rectangle_57" data-name="Rectangle 57" d="M2.416,0h2.9A2.416,2.416,0,0,1,7.729,2.416V2.8a0,0,0,0,1,0,0H0a0,0,0,0,1,0,0V2.416A2.416,2.416,0,0,1,2.416,0Z" transform="translate(325.354 129.036)" fill="#a0c3d1"></path><path id="Path_436" data-name="Path 436" d="M332.966,128.321s-3.6-.538-4.722-.044-4.626,2.649-3.948,3.293c.492.468,4.35-1.112,4.35-1.112l4.436.409Z" fill="#ff9669"></path><g id="Group_156" data-name="Group 156"><path id="Path_437" data-name="Path 437" d="M371.927,125.337a12.492,12.492,0,0,0,5.188,3.324,11.5,11.5,0,0,0-7.916-8.851A12.5,12.5,0,0,0,371.927,125.337Z" fill="#4ba35e"></path><g id="Group_155" data-name="Group 155"><path id="Path_438" data-name="Path 438" d="M403.475,127.985s-10.949,8.73-11.9,39.357" fill="none" stroke="#4ba35e" stroke-miterlimit="10" stroke-width="0.667"></path><path id="Path_439" data-name="Path 439" d="M404.717,129.139a12.494,12.494,0,0,1-5.154,3.378,11.5,11.5,0,0,1,7.823-8.932A12.5,12.5,0,0,1,404.717,129.139Z" fill="#4ba35e"></path><path id="Path_440" data-name="Path 440" d="M402.61,136.378a12.481,12.481,0,0,1-5.847,1.941,11.5,11.5,0,0,1,9.853-6.624A12.5,12.5,0,0,1,402.61,136.378Z" fill="#4ba35e"></path><path id="Path_441" data-name="Path 441" d="M400.484,142.278a12.493,12.493,0,0,1-5.847,1.941,11.488,11.488,0,0,1,9.852-6.624A12.49,12.49,0,0,1,400.484,142.278Z" fill="#4ba35e"></path><path id="Path_442" data-name="Path 442" d="M399.056,148.086a12.493,12.493,0,0,1-5.847,1.941,11.493,11.493,0,0,1,9.852-6.624A12.491,12.491,0,0,1,399.056,148.086Z" fill="#4ba35e"></path><path id="Path_443" data-name="Path 443" d="M393.775,143.876a11.709,11.709,0,0,1-.414,5.76,10.776,10.776,0,0,1-2.2-10.907A11.718,11.718,0,0,1,393.775,143.876Z" fill="#4ba35e"></path><path id="Path_444" data-name="Path 444" d="M391.657,150.427a9.577,9.577,0,0,1,.649,4.677,8.811,8.811,0,0,1-3.619-8.346A9.573,9.573,0,0,1,391.657,150.427Z" fill="#4ba35e"></path><path id="Path_445" data-name="Path 445" d="M395.715,154.349a9.572,9.572,0,0,1-3.456,3.214,8.808,8.808,0,0,1,4.757-7.753A9.573,9.573,0,0,1,395.715,154.349Z" fill="#4ba35e"></path><path id="Path_446" data-name="Path 446" d="M395.031,160.265a9.572,9.572,0,0,1-3.456,3.214,8.809,8.809,0,0,1,4.757-7.753A9.573,9.573,0,0,1,395.031,160.265Z" fill="#4ba35e"></path><path id="Path_447" data-name="Path 447" d="M391.5,156.995a9.576,9.576,0,0,1,.35,4.709,8.81,8.81,0,0,1-3.081-8.559A9.569,9.569,0,0,1,391.5,156.995Z" fill="#4ba35e"></path><path id="Path_448" data-name="Path 448" d="M396.758,136.456a12.5,12.5,0,0,1-1.449,5.991,11.5,11.5,0,0,1-.4-11.869A12.5,12.5,0,0,1,396.758,136.456Z" fill="#4ba35e"></path><path id="Path_449" data-name="Path 449" d="M399.545,129.485a11.532,11.532,0,0,1-1.337,5.526,10.612,10.612,0,0,1-.371-10.948A11.538,11.538,0,0,1,399.545,129.485Z" fill="#4ba35e"></path><path id="Path_450" data-name="Path 450" d="M373.157,124.17s11.038,8.614,12.31,39.23v3.943" fill="none" stroke="#4ba35e" stroke-miterlimit="10" stroke-width="0.667"></path><path id="Path_451" data-name="Path 451" d="M374.108,132.552a12.489,12.489,0,0,0,5.867,1.88,11.492,11.492,0,0,0-9.921-6.521A12.5,12.5,0,0,0,374.108,132.552Z" fill="#4ba35e"></path><path id="Path_452" data-name="Path 452" d="M376.3,138.43a12.489,12.489,0,0,0,5.867,1.88,11.492,11.492,0,0,0-9.921-6.521A12.5,12.5,0,0,0,376.3,138.43Z" fill="#4ba35e"></path><path id="Path_453" data-name="Path 453" d="M377.784,144.223a12.489,12.489,0,0,0,5.867,1.88,11.492,11.492,0,0,0-9.921-6.521A12.5,12.5,0,0,0,377.784,144.223Z" fill="#4ba35e"></path><path id="Path_454" data-name="Path 454" d="M383.022,139.958a11.721,11.721,0,0,0,.474,5.756,10.777,10.777,0,0,0,2.091-10.929A11.717,11.717,0,0,0,383.022,139.958Z" fill="#4ba35e"></path><path id="Path_455" data-name="Path 455" d="M385.207,146.487a9.586,9.586,0,0,0-.6,4.683,8.811,8.811,0,0,0,3.532-8.384A9.573,9.573,0,0,0,385.207,146.487Z" fill="#4ba35e"></path><path id="Path_456" data-name="Path 456" d="M381.191,150.451a9.564,9.564,0,0,0,3.49,3.178,8.809,8.809,0,0,0-4.838-7.7A9.575,9.575,0,0,0,381.191,150.451Z" fill="#4ba35e"></path><path id="Path_457" data-name="Path 457" d="M381.936,156.359a9.578,9.578,0,0,0,3.49,3.179,8.809,8.809,0,0,0-4.838-7.7A9.583,9.583,0,0,0,381.936,156.359Z" fill="#4ba35e"></path><path id="Path_458" data-name="Path 458" d="M385.429,153.053a9.578,9.578,0,0,0-.3,4.711,8.809,8.809,0,0,0,2.992-8.591A9.573,9.573,0,0,0,385.429,153.053Z" fill="#4ba35e"></path><path id="Path_459" data-name="Path 459" d="M379.962,132.57a12.5,12.5,0,0,0,1.511,5.975,11.5,11.5,0,0,0,.279-11.873A12.5,12.5,0,0,0,379.962,132.57Z" fill="#4ba35e"></path><path id="Path_460" data-name="Path 460" d="M377.1,125.629a11.529,11.529,0,0,0,1.394,5.511,10.61,10.61,0,0,0,.257-10.952A11.536,11.536,0,0,0,377.1,125.629Z" fill="#4ba35e"></path><path id="Path_461" data-name="Path 461" d="M393.968,111.355s-5.379,30.9-5.34,54.74v1.247" fill="none" stroke="#4ba35e" stroke-miterlimit="10" stroke-width="0.923"></path><path id="Path_462" data-name="Path 462" d="M390.083,190.926h-3.7a3.231,3.231,0,0,1-3.222-2.989l-1.553-20.6h13.244l-1.553,20.6A3.232,3.232,0,0,1,390.083,190.926Z" fill="#3da5a0"></path><path id="Path_463" data-name="Path 463" d="M392.089,167.342l-1.553,20.6a3.232,3.232,0,0,1-3.222,2.989h2.768a3.232,3.232,0,0,0,3.222-2.989l1.553-20.6Z" fill="#388280"></path><path id="Rectangle_58" data-name="Rectangle 58" d="M0,0H13.38a0,0,0,0,1,0,0V1.106a2.065,2.065,0,0,1-2.065,2.065H2.065A2.065,2.065,0,0,1,0,1.106V0A0,0,0,0,1,0,0Z" transform="translate(381.594 189.474)" fill="#ffe576"></path></g></g></g><g id="Group_158" data-name="Group 158"><rect id="Rectangle_59" data-name="Rectangle 59" width="23.809" height="12.543" rx="2.616" transform="translate(239.479 145.984)" fill="#4fab63"></rect><rect id="Rectangle_60" data-name="Rectangle 60" width="23.809" height="7.712" rx="2.051" transform="translate(239.479 145.984)" fill="#409650"></rect><rect id="Rectangle_61" data-name="Rectangle 61" width="3.256" height="5.568" rx="0.748" transform="translate(248.836 150.301)" fill="#ffe576"></rect></g><path id="Path_464" data-name="Path 464" d="M243.123,145.984s3.24-19.664,10.892-19.695" fill="none" stroke="#409650" stroke-linecap="round" stroke-miterlimit="10" stroke-width="0.889"></path><line id="Line_10" data-name="Line 10" x2="2.616" y2="13.881" transform="translate(257.778 132.429)" fill="none" stroke="#409650" stroke-miterlimit="10" stroke-width="0.889"></line></g></g></svg>