<svg xmlns="http://www.w3.org/2000/svg" width="174" height="137" viewBox="0 0 174 137"><g id="Vector_Smart_Object" data-name="Vector Smart Object" transform="translate(-48.646 -254.968)"><g id="Group_142" data-name="Group 142"><path id="Path_302" data-name="Path 302" d="M128.124,390.058c0,1.055-11.882,1.91-26.541,1.91s-26.541-.855-26.541-1.91,11.882-1.909,26.541-1.909S128.124,389,128.124,390.058Z" fill="#dff5ee"></path><path id="Path_303" data-name="Path 303" d="M215.739,390.058c0,1.055-11.883,1.91-26.541,1.91s-26.541-.855-26.541-1.91,11.882-1.909,26.541-1.909S215.739,389,215.739,390.058Z" fill="#dff5ee"></path><path id="Path_304" data-name="Path 304" d="M63.105,332.564a51,51,0,0,1,14.781,30.27" fill="none" stroke="#4ba35e" stroke-miterlimit="10" stroke-width="1.256"></path><g id="Group_126" data-name="Group 126"><rect id="Rectangle_38" data-name="Rectangle 38" width="13.73" height="32.746" transform="translate(173.27 356.077)" fill="#a0c3d1"></rect><rect id="Rectangle_39" data-name="Rectangle 39" width="27.123" height="32.746" transform="matrix(-1, 0, 0, -1, 214.123, 388.824)" fill="#6f98a8"></rect><rect id="Rectangle_40" data-name="Rectangle 40" width="9.307" height="2.922" transform="translate(175.305 358.548)" fill="#6f98a8"></rect><path id="Path_305" data-name="Path 305" d="M183.134,364.724a.739.739,0,1,0,.739-.747A.744.744,0,0,0,183.134,364.724Z" fill="#6f98a8"></path><path id="Path_306" data-name="Path 306" d="M183.66,367.45a.476.476,0,1,1,.476.481A.479.479,0,0,1,183.66,367.45Z" fill="#6f98a8"></path><path id="Path_307" data-name="Path 307" d="M210.578,380.757H201.51a1.439,1.439,0,0,1,1.432-1.447h6.2a1.439,1.439,0,0,1,1.432,1.447Z" fill="#426670"></path><path id="Path_308" data-name="Path 308" d="M210.578,383.038H201.51a1.439,1.439,0,0,1,1.432-1.447h6.2a1.439,1.439,0,0,1,1.432,1.447Z" fill="#426670"></path><path id="Path_309" data-name="Path 309" d="M210.578,385.318H201.51a1.439,1.439,0,0,1,1.432-1.447h6.2a1.439,1.439,0,0,1,1.432,1.447Z" fill="#426670"></path><rect id="Rectangle_41" data-name="Rectangle 41" width="2.311" height="1.191" transform="translate(175.144 388.824)" fill="#6f98a8"></rect><rect id="Rectangle_42" data-name="Rectangle 42" width="2.311" height="1.191" transform="translate(182.367 388.824)" fill="#6f98a8"></rect><rect id="Rectangle_43" data-name="Rectangle 43" width="2.311" height="1.191" transform="translate(188.687 388.824)" fill="#6f98a8"></rect><rect id="Rectangle_44" data-name="Rectangle 44" width="2.311" height="1.191" transform="translate(209.452 388.824)" fill="#6f98a8"></rect></g><path id="Path_310" data-name="Path 310" d="M93.526,326.74q.033.584.1,1.175a20.812,20.812,0,0,0,26.549,17.8,28.913,28.913,0,0,1,23.215,3.025,46.077,46.077,0,0,0,26.449,6.722c23.313-1.156,42.426-19.94,44.154-43.455,2.031-27.644-19.568-50.711-46.5-50.711a46.1,46.1,0,0,0-15.114,2.533,31.891,31.891,0,0,1-28.707-3.524,29.894,29.894,0,0,0-19.548-5.243,30.6,30.6,0,0,0-19.233,51.645A31.375,31.375,0,0,1,93.526,326.74Z" fill="#d2f0ff"></path><path id="Path_311" data-name="Path 311" d="M56.135,295.932S79.967,336.994,82.1,362.341" fill="none" stroke="#4ba35e" stroke-miterlimit="10" stroke-width="0.907"></path><path id="Path_312" data-name="Path 312" d="M90.73,272.48s-17.4,49.814-11.694,90.354" fill="none" stroke="#4ba35e" stroke-miterlimit="10" stroke-width="0.907"></path><path id="Path_313" data-name="Path 313" d="M84.3,390.015h-6.6a1.747,1.747,0,0,1-1.724-1.516l-4.266-30.848a1.377,1.377,0,0,1,1.355-1.574H88.082a1.378,1.378,0,0,1,1.361,1.536l-3.412,30.838A1.749,1.749,0,0,1,84.3,390.015Z" fill="#695a6e"></path><path id="Path_314" data-name="Path 314" d="M56.887,293.261a17.789,17.789,0,0,1,2.086,7.775,17.558,17.558,0,0,1-5.488-5.843,17.8,17.8,0,0,1-2.086-7.775A17.559,17.559,0,0,1,56.887,293.261Z" fill="#4ba35e"></path><path id="Path_315" data-name="Path 315" d="M56.5,302.395a17.524,17.524,0,0,1,6.249,5,17.307,17.307,0,0,1-7.851-1.409,17.516,17.516,0,0,1-6.248-5A17.318,17.318,0,0,1,56.5,302.395Z" fill="#4ba35e"></path><path id="Path_316" data-name="Path 316" d="M63,295.432a17.753,17.753,0,0,1-2.851,7.523,16.6,16.6,0,0,1,1.826-15.511A17.819,17.819,0,0,1,63,295.432Z" fill="#4ba35e"></path><path id="Path_317" data-name="Path 317" d="M92.017,272.8a17.689,17.689,0,0,1-3.762,7.1,16.575,16.575,0,0,1,3.738-15.158A17.833,17.833,0,0,1,92.017,272.8Z" fill="#4ba35e"></path><path id="Path_318" data-name="Path 318" d="M94.993,278.621a17.379,17.379,0,0,1-7.183,3.5,17.657,17.657,0,0,1,4.679-6.522,17.382,17.382,0,0,1,7.183-3.5A17.657,17.657,0,0,1,94.993,278.621Z" fill="#4ba35e"></path><path id="Path_319" data-name="Path 319" d="M92.616,285.993a17.382,17.382,0,0,1-7.183,3.5,17.657,17.657,0,0,1,4.679-6.523,17.374,17.374,0,0,1,7.183-3.5A17.658,17.658,0,0,1,92.616,285.993Z" fill="#4ba35e"></path><path id="Path_320" data-name="Path 320" d="M85.766,278.817a17.824,17.824,0,0,1,.724,8.022A16.555,16.555,0,0,1,81.36,272.1,17.644,17.644,0,0,1,85.766,278.817Z" fill="#4ba35e"></path><path id="Path_321" data-name="Path 321" d="M83.943,287.474a17.828,17.828,0,0,1,.724,8.023,16.555,16.555,0,0,1-5.13-14.736A17.645,17.645,0,0,1,83.943,287.474Z" fill="#4ba35e"></path><path id="Path_322" data-name="Path 322" d="M81.834,295.88a17.816,17.816,0,0,1,.723,8.022,16.551,16.551,0,0,1-5.129-14.736A17.644,17.644,0,0,1,81.834,295.88Z" fill="#4ba35e"></path><path id="Path_323" data-name="Path 323" d="M90.137,295.674a17.406,17.406,0,0,1-7,3.856,17.693,17.693,0,0,1,4.35-6.751,17.412,17.412,0,0,1,7-3.856A17.679,17.679,0,0,1,90.137,295.674Z" fill="#4ba35e"></path><path id="Path_324" data-name="Path 324" d="M87.984,305.64a17.407,17.407,0,0,1-7,3.856,17.693,17.693,0,0,1,4.35-6.751,17.412,17.412,0,0,1,7-3.856A17.672,17.672,0,0,1,87.984,305.64Z" fill="#4ba35e"></path><path id="Path_325" data-name="Path 325" d="M86.759,315.9a17.407,17.407,0,0,1-7,3.856A17.688,17.688,0,0,1,84.109,313a17.406,17.406,0,0,1,7-3.856A17.679,17.679,0,0,1,86.759,315.9Z" fill="#4ba35e"></path><path id="Path_326" data-name="Path 326" d="M79.716,306.741a17.825,17.825,0,0,1,.872,8.008,17.648,17.648,0,0,1-4.53-6.629,17.832,17.832,0,0,1-.873-8.007A17.644,17.644,0,0,1,79.716,306.741Z" fill="#4ba35e"></path><path id="Path_327" data-name="Path 327" d="M67.5,304.571a17.754,17.754,0,0,1-2.851,7.523,16.6,16.6,0,0,1,1.826-15.511A17.819,17.819,0,0,1,67.5,304.571Z" fill="#4ba35e"></path><path id="Path_328" data-name="Path 328" d="M61.847,310.749a17.6,17.6,0,0,1,5.385,5.942,17.35,17.35,0,0,1-7.531-2.648,17.589,17.589,0,0,1-5.385-5.941A17.345,17.345,0,0,1,61.847,310.749Z" fill="#4ba35e"></path><path id="Path_329" data-name="Path 329" d="M63.817,318.471a17.479,17.479,0,0,1,6.488,4.683,17.3,17.3,0,0,1-7.911-1.012,17.491,17.491,0,0,1-6.488-4.683A17.3,17.3,0,0,1,63.817,318.471Z" fill="#4ba35e"></path><path id="Path_330" data-name="Path 330" d="M67.39,326.325a17.513,17.513,0,0,1,6.234,5.023,17.311,17.311,0,0,1-7.847-1.432,17.524,17.524,0,0,1-6.234-5.023A17.311,17.311,0,0,1,67.39,326.325Z" fill="#4ba35e"></path><path id="Path_331" data-name="Path 331" d="M71.065,312.537a17.768,17.768,0,0,1-2.5,7.649,16.6,16.6,0,0,1,1.108-15.581A17.8,17.8,0,0,1,71.065,312.537Z" fill="#4ba35e"></path><path id="Path_332" data-name="Path 332" d="M75.032,321.487a17.763,17.763,0,0,1-2.5,7.65,16.6,16.6,0,0,1,1.109-15.581A17.8,17.8,0,0,1,75.032,321.487Z" fill="#4ba35e"></path><path id="Path_333" data-name="Path 333" d="M114.212,290.254c5,4.115,7.363,12.449,12.7,15.737,3.715,2.288,17.131,3.118,17.131,3.118l.692,3.231s-16.464,2.413-21.723,1.02c-4.752-1.259-9.129-5.773-15.17-12.616-1.863-2.112-3.938-5.869-4.009-6.8C103.46,288.985,110.4,287.112,114.212,290.254Z" fill="#ffce52"></path><path id="Path_334" data-name="Path 334" d="M139.931,325.788l.854-.042a4.233,4.233,0,0,0,1.083-.18,6.52,6.52,0,0,1,4.247-.057,13.49,13.49,0,0,1,2.769,1.469c.085.131.158.419.036.514-.689.535-3.453-.4-3.453-.4a5.468,5.468,0,0,0-2.6.206l-1.66.549-1.768.577Z" fill="#ffaf82"></path><path id="Path_335" data-name="Path 335" d="M175.305,330.351h-8.591l-2.709-10.787H172.6Z" fill="#6f98a8"></path><g id="Path_336" data-name="Path 336" fill="#174eaf" stroke-miterlimit="10"><path d="M 186.8128356933594 320.2535705566406 L 147.4930877685547 320.2535705566406 C 147.0297546386719 320.2535705566406 146.6490020751953 319.8832702636719 146.6165771484375 319.4156494140625 L 149.8030242919922 293.38232421875 L 149.8130950927734 293.2999572753906 L 149.8130950927734 293.2169494628906 C 149.8130950927734 292.71923828125 150.2077178955078 292.3143005371094 150.6927642822266 292.3143005371094 L 190.0116119384766 292.3143005371094 C 190.4754486083984 292.3143005371094 190.8565979003906 292.6845703125 190.8890228271484 293.1522216796875 L 187.7025756835938 319.1855163574219 L 187.6924896240234 319.2678833007813 L 187.6924896240234 319.3508911132813 C 187.6924896240234 319.8486328125 187.2978820800781 320.2535705566406 186.8128356933594 320.2535705566406 Z" stroke="none"></path><path d="M 186.3670959472656 318.8923645019531 L 189.45361328125 293.6755065917969 L 151.1385040283203 293.6755065917969 L 148.0519714355469 318.8923645019531 L 186.3670959472656 318.8923645019531 M 186.8128356933594 321.6147766113281 L 147.4930877685547 321.6147766113281 C 146.2561798095703 321.6147766113281 145.2531280517578 320.6014099121094 145.2531280517578 319.3508911132813 L 148.451904296875 293.2169494628906 C 148.451904296875 291.9673461914063 149.4549560546875 290.9530944824219 150.6927642822266 290.9530944824219 L 190.0116119384766 290.9530944824219 C 191.2494049072266 290.9530944824219 192.2524566650391 291.9673461914063 192.2524566650391 293.2169494628906 L 189.0536956787109 319.3508911132813 C 189.0536956787109 320.6014099121094 188.0497283935547 321.6147766113281 186.8128356933594 321.6147766113281 Z" stroke="none" fill="#fff"></path></g><path id="Path_337" data-name="Path 337" d="M175.305,330.351h-14.95a3.079,3.079,0,0,1,3.064-3.1h8.822a3.08,3.08,0,0,1,3.064,3.1Z" fill="#fff"></path><path id="Path_338" data-name="Path 338" d="M155.178,330.351H139.07a1.233,1.233,0,0,1-1.227-1.24h0a1.233,1.233,0,0,1,1.227-1.24h16.108a1.233,1.233,0,0,1,1.227,1.24h0A1.233,1.233,0,0,1,155.178,330.351Z" fill="#a0c3d1"></path><g id="Group_129" data-name="Group 129"><rect id="Rectangle_45" data-name="Rectangle 45" width="65.182" height="1.728" transform="translate(125.968 334.388)" fill="#c2804a"></rect><g id="Group_127" data-name="Group 127"><path id="Path_339" data-name="Path 339" d="M117.655,390.015l18.544-56.44-5.341-.525-15.12,56.965Z" fill="#c2804a"></path></g><g id="Group_128" data-name="Group 128"><path id="Path_340" data-name="Path 340" d="M200.236,390.015l-15.12-56.965-5.341.525,18.544,56.44Z" fill="#c2804a"></path></g><rect id="Rectangle_46" data-name="Rectangle 46" width="73.235" height="4.425" transform="translate(122.056 330.351)" fill="#8c501f"></rect></g><g id="Group_130" data-name="Group 130"><path id="Path_341" data-name="Path 341" d="M165.868,299.082H153.84l.226-1.824h12.028Z" fill="#eb5a7d"></path></g><g id="Group_131" data-name="Group 131"><path id="Path_342" data-name="Path 342" d="M184.387,303.076H172.359l.226-1.824h12.028Z" fill="#eb5a7d"></path></g><g id="Group_132" data-name="Group 132"><path id="Path_343" data-name="Path 343" d="M178.54,307.071H165.609l.226-1.824h12.931Z" fill="#eb5a7d"></path></g><g id="Group_133" data-name="Group 133"><path id="Path_344" data-name="Path 344" d="M170.059,303.076H153.45l.223-1.824h16.609Z" fill="#ffd56b"></path></g><g id="Group_134" data-name="Group 134"><path id="Path_345" data-name="Path 345" d="M163.309,307.071H153.02l.223-1.824h10.289Z" fill="#eb5a7d"></path></g><g id="Group_135" data-name="Group 135"><path id="Path_346" data-name="Path 346" d="M166.348,311.065h-13.9l.223-1.824h13.9Z" fill="#827ddc"></path></g><g id="Group_136" data-name="Group 136"><path id="Path_347" data-name="Path 347" d="M174.921,311.065h-6.678l.223-1.824h6.678Z" fill="#ffd56b"></path></g><g id="Group_137" data-name="Group 137"><path id="Path_348" data-name="Path 348" d="M159.519,315.06h-7.581l.223-1.824h7.581Z" fill="#827ddc"></path></g><path id="Path_349" data-name="Path 349" d="M112.118,286s-5.692,1.775-11.2,11.785l15.745-4.664.627,4.932s-23.189,15.586-27.155,9.58c-2.345-3.552-.519-12.034,7.447-18.576S112.118,286,112.118,286Z" fill="#f5e88c"></path><path id="Path_350" data-name="Path 350" d="M88.849,385.557l.332,1.434c.131.563,3.631,1.731,4.409,2.413.392.342-4.542.939-5.733.5a1.356,1.356,0,0,1-.848-1.483l.5-3.264Z" fill="#ffaf82"></path><path id="Path_351" data-name="Path 351" d="M73.931,362.594l-1.964,1.377c-.555.137-1.954,6.642-3.343,6.627-.517-.006.025-6.731.448-7.938a1.334,1.334,0,0,1,1.272-.884,2.446,2.446,0,0,0,.375-.014l2.717-.419Z" fill="#ffaf82"></path><path id="Path_352" data-name="Path 352" d="M88.849,385.557l.332,1.434c.131.563,3.631,1.731,4.409,2.413.392.342-4.542.939-5.733.5a1.356,1.356,0,0,1-.848-1.483l.5-3.264Z" fill="#50374b"></path><path id="Path_353" data-name="Path 353" d="M73.931,362.594l-1.964,1.377c-.555.137-1.954,6.642-3.343,6.627-.517-.006.025-6.731.448-7.938a1.334,1.334,0,0,1,1.272-.884,2.446,2.446,0,0,0,.375-.014l2.717-.419Z" fill="#50374b"></path><path id="Path_354" data-name="Path 354" d="M72.1,361.024s24.814-14.062,27.948-14.463,4.283,2.984,4.283,2.984-.224,5.618-1.351,5.618c-7.436,0-29.841,8.244-29.841,8.244A2.81,2.81,0,0,1,72.1,361.024Z" fill="#e16450"></path><path id="Path_355" data-name="Path 355" d="M94.518,348.833c-8.287,4.286-22.421,12.19-22.421,12.19a2.81,2.81,0,0,0,1.039,2.382S85.8,358.93,94.518,356.49Z" fill="#ce4a3c"></path><path id="Path_356" data-name="Path 356" d="M98.683,355.836a5.722,5.722,0,0,0,5.639-4.9l.005-.035c1.058-7.082,2.007-27.128-.506-33.242-2.161-5.256-19.5-6.234-24.971-4.483-.268.086-.582.929-.891,2.066a34.192,34.192,0,0,0-.987,12.07A280.527,280.527,0,0,0,81.314,357.5C84.884,374.55,87,386.041,87,386.041a3.162,3.162,0,0,0,2.222,0s4.518-46.11,5.086-54.666c0,0,.654,9.537,1.5,24.461Z" fill="#e16450"></path><path id="Path_357" data-name="Path 357" d="M105.96,283.774a12.352,12.352,0,0,0-4.417,1.8c-2.213,1.21-5.577,3.387-12.732,9.627-9.537,8.319-12.023,15.22-12.683,18.333a5.76,5.76,0,0,0,.549,3.9l.081.151c7.4,13.709,20.056,9.673,24.056,5.668s6.842-7.685,8.846-10.015C127.328,292.7,110.791,283.228,105.96,283.774Z" fill="#ffce52"></path><g id="Group_138" data-name="Group 138"><line id="Line_7" data-name="Line 7" y2="29.379" transform="translate(102.977 358.771)" fill="none" stroke="#87afb9" stroke-miterlimit="10" stroke-width="2.736"></line><rect id="Rectangle_47" data-name="Rectangle 47" width="26.188" height="7.215" rx="2.575" transform="translate(89.883 355.163)" fill="#ffb49b"></rect><path id="Path_358" data-name="Path 358" d="M93.547,389.943h0a3.7,3.7,0,0,1,3.676-3.714H108.73a3.7,3.7,0,0,1,3.675,3.714h0" fill="none" stroke="#87afb9" stroke-miterlimit="10" stroke-width="1.815"></path><path id="Path_359" data-name="Path 359" d="M101.257,364.516h3.307l6.613,2.138" fill="none" stroke="#b4d7dc" stroke-linecap="round" stroke-miterlimit="10" stroke-width="1.815"></path></g><path id="Path_360" data-name="Path 360" d="M146.718,307.648c-.28-.245.394-1.311.752-2.024.115-.229-.089-.6-.571-.352a4.743,4.743,0,0,0-1.32.787c-.188.353-1.437,3.543-1.437,3.543l.435,2a12.11,12.11,0,0,0,1.669-.37A24.606,24.606,0,0,0,146.718,307.648Z" fill="#ffaf82"></path><path id="Path_361" data-name="Path 361" d="M111.307,289.9c2.9,5.818,5.961,18.493,9.65,23.594,2.687,3.717,19.723,12.005,19.723,12.005l-.655,3.511c-8.967-1.138-20.944-7.053-25.6-10.4-4.593-3.3-9.93-13.581-12.68-22.32-.848-2.7-1.11-5.019-.8-5.9A5.641,5.641,0,0,1,111.307,289.9Z" fill="#ffd56b"></path><path id="Rectangle_48" data-name="Rectangle 48" d="M0,0H12.347a0,0,0,0,1,0,0V9.944A3.707,3.707,0,0,1,8.64,13.652H3.707A3.707,3.707,0,0,1,0,9.944V0A0,0,0,0,1,0,0Z" transform="translate(200.236 342.426)" fill="#827ddc"></path><path id="Path_362" data-name="Path 362" d="M207.428,334.388a20.832,20.832,0,0,1,0-20.859c6.284-11.386,6.682-6.523,7.732,0S207.428,334.388,207.428,334.388Z" fill="#469757"></path><path id="Path_363" data-name="Path 363" d="M211.437,314.249s-4.772,18.727-4.009,28.177" fill="none" stroke="#428f52" stroke-miterlimit="10" stroke-width="0.681"></path><path id="Path_364" data-name="Path 364" d="M209.667,338.568s7.74-9.836,10.612-7.136,3.428,20.638,0,20.252S216.61,338.376,209.667,338.568Z" fill="#4fab63"></path><g id="Group_139" data-name="Group 139"><path id="Path_365" data-name="Path 365" d="M216.615,335.685a5.459,5.459,0,0,0-4.238.4c-1.958,1.026-3.476,3.163-4.529,6.328h.949c.968-2.776,2.307-4.634,4-5.518a4.552,4.552,0,0,1,3.532-.351c2.015.692,3.152,6.881,3.419,9.208C219.743,345.757,219.529,336.687,216.615,335.685Z" fill="#4ba35e"></path></g><path id="Path_366" data-name="Path 366" d="M197.75,318.281s7.588,2.368,8.162,7.563-1.05,11.619-1.05,11.619-5.394-4.225-7.112-9.591A15.159,15.159,0,0,1,197.75,318.281Z" fill="#4fab63"></path><path id="Path_367" data-name="Path 367" d="M200.562,323.669s5,12.2,4.718,18.757" fill="none" stroke="#4ba35e" stroke-miterlimit="10" stroke-width="0.681"></path><g id="Group_141" data-name="Group 141"><g id="Group_140" data-name="Group 140"><path id="Path_368" data-name="Path 368" d="M116.123,277.9l-.636,11.428c-1.351-1.905-4.656-4.532-7.976-4.528a41.235,41.235,0,0,0,5.586-9.037Z" fill="#ffaf82"></path><path id="Path_369" data-name="Path 369" d="M115.849,282.476c-.64-.828-1.232-2.072-1.394-1.517-.776,2.545-.4,5.821,1.08,6.754Z" fill="#ff9669"></path><path id="Path_370" data-name="Path 370" d="M122.585,275.8s-1.488,9.933-4.884,10.572c-1.852.348-3.757-2.67-3.124-7.381.741-5.519-1.414-7.073.583-6.582S123.189,273.3,122.585,275.8Z" fill="#ffaf82"></path><path id="Path_371" data-name="Path 371" d="M127.484,275.058c-.935,2.364-4.286,4.867-7.9.9-4.207-4.614-10.5,5.66-11.652,2.514-1.4-3.821.973-10.835,6.458-11.218,2.477-.172,4.167,2.121,5.382,2.458,3.241.9,4.514-.524,5.639-.189C128.535,270.453,127.969,273.833,127.484,275.058Z" fill="#783c28"></path><path id="Path_372" data-name="Path 372" d="M119.613,279.473c-.174.341-.182.688-.017.773s.44-.12.614-.462.182-.689.017-.774S119.788,279.132,119.613,279.473Z" fill="#783c28"></path><path id="Path_373" data-name="Path 373" d="M121.386,278.313a1.816,1.816,0,0,0-1.562-.576" fill="none" stroke="#783c28" stroke-linecap="round" stroke-miterlimit="10" stroke-width="0.535"></path><path id="Path_374" data-name="Path 374" d="M120.022,273.4s-4.242,1.05-4.539,4.185c-.16,1.687-2,6.006-5.513,3.614-5.494-3.737,1.275-10.2,1.275-10.2s6.227-1.458,8.9,1.99" fill="#783c28"></path><path id="Path_375" data-name="Path 375" d="M114.229,277.452a2.4,2.4,0,0,0,.891,2.646c.569.212,1.036-.775,1.462-1.944s.31-2.286-.259-2.5S114.714,275.786,114.229,277.452Z" fill="#ffaf82"></path><path id="Path_376" data-name="Path 376" d="M121.658,279.362l.09,2.9a.653.653,0,0,1-.745.624,1.909,1.909,0,0,1-.346-.095.489.489,0,0,1-.274-.644Z" fill="#ff640a"></path><path id="Path_377" data-name="Path 377" d="M116.3,275.33s-.268,2.58.14,2.842,2.145-4.262,2.145-4.262A2.324,2.324,0,0,0,116.3,275.33Z" fill="#783c28"></path></g><path id="Path_378" data-name="Path 378" d="M111.817,269.517s-1.537-3.681-8-2.273-5.645,12.117-5.645,12.117-14.264-2.324-19.436,3.187c-4.173,4.447-1.482,16.34,4.314,18.406,10.8,3.851,18.717-14.556,18.717-14.556s5.357.178,4.9-4.491-1.257-12.39,3.459-11.213Z" fill="#783c28"></path></g></g></g></svg>